<svg version="1.1" id="Layer_1" xmlns="http://www.w3.org/2000/svg" xmlns:xlink="http://www.w3.org/1999/xlink" x="0px" y="0px"
	 width="100%" viewBox="0 0 100 100" enable-background="new 0 0 100 100" xml:space="preserve">
<path fill="#FEFEFE" opacity="1.000000" stroke="none" 
	d="
M63.000000,101.000000 
	C42.000004,101.000000 21.500008,101.000000 1.000008,101.000000 
	C1.000005,67.666679 1.000005,34.333351 1.000003,1.000022 
	C34.333317,1.000014 67.666634,1.000014 100.999969,1.000007 
	C100.999977,34.333313 100.999977,67.666626 100.999985,100.999969 
	C88.500000,101.000000 76.000000,101.000000 63.000000,101.000000 
M22.888126,57.737492 
	C23.581301,58.828663 24.274475,59.919838 25.119583,61.676365 
	C28.394716,64.655708 31.340284,68.162170 35.034199,70.471695 
	C39.027634,72.968483 41.444111,75.716156 41.062691,80.551521 
	C40.989613,81.477943 41.331776,82.437119 41.675068,84.589233 
	C51.500160,78.952339 60.768349,73.634964 70.688835,68.076370 
	C81.942169,57.791405 84.758415,43.426064 78.031868,30.620375 
	C71.399551,17.994049 57.784279,12.056396 42.309254,15.397889 
	C36.020145,17.208523 30.586428,20.273335 26.330032,26.264664 
	C19.182940,35.848278 17.727362,46.089561 22.888126,57.737492 
z"/>
<path fill="#66338D" opacity="1.000000" stroke="none" 
	d="
M43.024158,15.353429 
	C57.784279,12.056396 71.399551,17.994049 78.031868,30.620375 
	C84.758415,43.426064 81.942169,57.791405 70.121918,67.884735 
	C67.983772,63.304111 66.412537,58.915131 64.925415,54.185287 
	C68.490189,46.689358 68.535194,39.744411 63.085205,33.557201 
	C57.612392,27.344080 50.660870,26.724606 43.085785,28.679073 
	C43.020020,23.925449 43.022091,19.639439 43.024158,15.353429 
z"/>
<path fill="#28B050" opacity="1.000000" stroke="none" 
	d="
M64.841301,54.526150 
	C66.412537,58.915131 67.983772,63.304111 69.795776,68.005341 
	C60.768349,73.634964 51.500160,78.952339 41.675068,84.589233 
	C41.331776,82.437119 40.989613,81.477943 41.062691,80.551521 
	C41.444111,75.716156 39.027634,72.968483 35.034199,70.471695 
	C31.340284,68.162170 28.394716,64.655708 25.040001,61.017326 
	C24.677349,59.326820 24.394278,58.295361 24.094215,57.114731 
	C24.077223,56.965565 23.917473,56.711330 24.295551,56.822235 
	C25.451912,57.037743 26.230196,57.142349 27.164021,57.438538 
	C27.876831,57.495903 28.434099,57.361694 29.384560,57.151791 
	C30.836580,57.146717 31.895405,57.217339 33.071857,57.644302 
	C35.509544,58.298065 37.829601,58.595482 40.504646,58.987480 
	C50.438812,63.904202 56.390442,62.773540 64.841301,54.526150 
z"/>
<path fill="#DE7547" opacity="1.000000" stroke="none" 
	d="
M22.769051,57.081619 
	C17.727362,46.089561 19.182940,35.848278 26.698174,26.165318 
	C27.066315,26.065969 27.229029,26.226868 27.108051,26.573530 
	C21.602266,36.401165 19.960186,46.267776 23.917473,56.711330 
	C23.917473,56.711330 24.077223,56.965565 23.765680,57.015915 
	C23.225777,57.071384 22.997414,57.076504 22.769051,57.081619 
z"/>
<path fill="#DE7547" opacity="1.000000" stroke="none" 
	d="
M42.666706,15.375659 
	C43.022091,19.639439 43.020020,23.925449 42.875645,28.908209 
	C41.978371,29.911673 41.223400,30.218390 40.367298,30.110317 
	C40.935555,25.973576 41.604942,22.251621 42.274330,18.529667 
	C41.712135,18.195528 41.149940,17.861387 40.587742,17.527248 
	C36.134838,20.427122 31.681934,23.326994 27.229029,26.226868 
	C27.229029,26.226868 27.066315,26.065969 26.984898,25.985554 
	C30.586428,20.273335 36.020145,17.208523 42.666706,15.375659 
z"/>
<path fill="#52A24A" opacity="1.000000" stroke="none" 
	d="
M22.828588,57.409554 
	C22.997414,57.076504 23.225777,57.071384 23.782673,57.165085 
	C24.394278,58.295361 24.677349,59.326820 24.964035,60.684647 
	C24.274475,59.919838 23.581301,58.828663 22.828588,57.409554 
z"/>
<path fill="#FBF8F3" opacity="1.000000" stroke="none" 
	d="
M40.468430,30.525105 
	C41.223400,30.218390 41.978371,29.911673 42.943481,29.375820 
	C50.660870,26.724606 57.612392,27.344080 63.085205,33.557201 
	C68.535194,39.744411 68.490189,46.689358 64.925415,54.185287 
	C56.390442,62.773540 50.438812,63.904202 40.352341,58.699493 
	C39.147663,57.795868 38.450272,57.274818 37.638382,56.460110 
	C32.152058,49.459290 32.176422,42.367043 36.005959,35.001289 
	C35.998314,34.999874 36.004482,35.014767 36.293915,34.877735 
	C37.512180,33.604034 38.441006,32.467369 39.185867,31.298151 
	C39.001900,31.265602 39.363705,31.360640 39.592373,31.306787 
	C40.124226,31.107090 40.312988,30.870144 40.406052,30.530960 
	C40.424767,30.519825 40.468430,30.525106 40.468430,30.525105 
M39.311085,41.611656 
	C39.750938,44.105419 41.022926,45.707325 43.574516,44.267399 
	C44.364479,43.821602 44.973473,41.448483 44.498554,40.665276 
	C42.996330,38.187885 41.124462,38.684227 39.311085,41.611656 
z"/>
<path fill="#F46523" opacity="1.000000" stroke="none" 
	d="
M27.108051,26.573530 
	C31.681934,23.326994 36.134838,20.427122 40.587742,17.527248 
	C41.149940,17.861387 41.712135,18.195528 42.274330,18.529667 
	C41.604942,22.251621 40.935555,25.973576 40.367298,30.110317 
	C40.468430,30.525106 40.424767,30.519825 40.117474,30.456432 
	C39.661354,30.715570 39.512527,31.038105 39.363705,31.360640 
	C39.363705,31.360640 39.001900,31.265602 38.814758,31.297546 
	C37.753239,32.557919 36.878860,33.786343 36.004482,35.014767 
	C36.004482,35.014767 35.998314,34.999874 35.643238,35.048168 
	C34.197460,37.493649 32.199524,39.893669 32.206997,42.287430 
	C32.222042,47.107067 33.329216,51.923294 33.717255,56.857597 
	C33.283886,57.078835 33.119061,57.183395 32.954231,57.287960 
	C31.895405,57.217339 30.836580,57.146717 29.059490,57.039940 
	C27.896976,57.084839 27.452728,57.165894 27.008478,57.246956 
	C26.230196,57.142349 25.451912,57.037743 24.295551,56.822235 
	C19.960186,46.267776 21.602266,36.401165 27.108051,26.573530 
z"/>
<path fill="#52A24A" opacity="1.000000" stroke="none" 
	d="
M33.071857,57.644302 
	C33.119061,57.183395 33.283886,57.078835 34.087677,56.958374 
	C35.735390,56.879578 36.744137,56.816673 37.752880,56.753769 
	C38.450272,57.274818 39.147663,57.795868 39.997360,58.604912 
	C37.829601,58.595482 35.509544,58.298065 33.071857,57.644302 
z"/>
<path fill="#52A24A" opacity="1.000000" stroke="none" 
	d="
M27.164021,57.438534 
	C27.452728,57.165894 27.896976,57.084839 28.666296,57.115631 
	C28.434099,57.361694 27.876831,57.495903 27.164021,57.438534 
z"/>
<path fill="#DE7547" opacity="1.000000" stroke="none" 
	d="
M37.638382,56.460114 
	C36.744137,56.816673 35.735390,56.879578 34.356224,56.841705 
	C33.329216,51.923294 32.222042,47.107067 32.206997,42.287430 
	C32.199524,39.893669 34.197460,37.493649 35.650879,35.049583 
	C32.176422,42.367043 32.152058,49.459290 37.638382,56.460114 
z"/>
<path fill="#DF7B4C" opacity="1.000000" stroke="none" 
	d="
M39.453838,41.274387 
	C41.124462,38.684227 42.996330,38.187885 44.498554,40.665276 
	C44.973473,41.448483 44.364479,43.821602 43.574516,44.267399 
	C41.022926,45.707325 39.750938,44.105419 39.453838,41.274387 
z"/>
<path fill="#DE7547" opacity="1.000000" stroke="none" 
	d="
M36.293915,34.877735 
	C36.878860,33.786343 37.753239,32.557919 38.998726,31.330097 
	C38.441006,32.467369 37.512180,33.604034 36.293915,34.877735 
z"/>
<path fill="#DE7547" opacity="1.000000" stroke="none" 
	d="
M39.592373,31.306787 
	C39.512527,31.038105 39.661354,30.715570 40.098759,30.467566 
	C40.312988,30.870144 40.124226,31.107090 39.592373,31.306787 
z"/>
</svg>