<svg xmlns="http://www.w3.org/2000/svg" viewBox="0 0 130 30" fill="none"><path d="M35.768 14.184c1.977 0 3.303.893 4.116 2.004V.374c0-.298-.352-.488-.596-.298l-19.523 14.27h.514c2.03 0 3.06 1.3 3.06 2.708 0 1.11-.569 1.923-1.354 2.275a.16.16 0 000 .297c.893.38 1.543 1.327 1.543 2.465 0 1.624-1.056 2.897-3.086 2.897H14.89a.214.214 0 01-.216-.217v-6.715L.133 28.698c-.244.216-.136.595.19.595h39.209c.19 0 .325-.135.325-.325V23.58c-1.056.975-2.438 1.598-4.116 1.598-3.141 0-5.687-2.167-5.687-5.497.027-3.358 2.6-5.497 5.714-5.497zm-7.772 10.614c0 .109-.08.19-.19.19h-1.868a.185.185 0 01-.19-.19V14.536c0-.108.082-.19.19-.19h1.869c.108 0 .19.082.19.19v10.262z" fill="#34313F"></path><path d="M17.165 18.57h2.627c.758 0 1.245-.433 1.245-1.11 0-.65-.487-1.11-1.245-1.11h-2.735a.117.117 0 00-.109.108v1.923c0 .108.109.19.217.19zM17.165 23.011H19.9c.84 0 1.354-.46 1.354-1.218 0-.677-.488-1.219-1.354-1.219h-2.735a.214.214 0 00-.217.217v2.004c0 .108.109.216.217.216zM38.178 17.406c-.515-.677-1.381-1.218-2.41-1.218-1.95 0-3.358 1.489-3.358 3.493 0 2.003 1.408 3.493 3.358 3.493.893 0 1.733-.38 2.193-.758a.207.207 0 00.054-.136v-1.029a.175.175 0 00-.162-.162h-2.41a.214.214 0 01-.217-.217v-1.516c0-.136.109-.217.217-.217h4.468v-2.41l-1.435.785a.3.3 0 01-.298-.108zM41.563 19.68c0-3.276 2.355-5.496 5.388-5.496 1.977 0 3.25 1.002 4.008 2.22.054.081.027.217-.082.244l-1.218.65c-.081.054-.19.027-.217-.054-.514-.813-1.462-1.408-2.49-1.408-2.032 0-3.548 1.597-3.548 3.845 0 2.22 1.516 3.845 3.547 3.845 1.029 0 1.977-.596 2.491-1.408.054-.081.136-.109.217-.054l1.218.622c.109.055.136.163.082.271-.786 1.219-2.058 2.248-4.008 2.248-3.033-.027-5.389-2.275-5.389-5.524zM52.015 19.68c0-2.653 1.516-4.711 3.79-5.307 3.873-1.029 7.42 2.6 6.58 6.635-.514 2.49-2.49 4.197-5.117 4.197-3.087-.027-5.253-2.356-5.253-5.524zm8.638 0c0-2.193-1.354-3.845-3.412-3.845-2.085 0-3.412 1.652-3.412 3.846 0 2.193 1.327 3.845 3.412 3.845s3.412-1.68 3.412-3.845zM73.542 24.853v-8.097l-3.222 8.15c0 .028-.055.055-.082.055h-.677c-.027 0-.08-.027-.08-.054l-3.25-8.15v8.096c0 .08-.054.135-.136.135h-1.624c-.082 0-.136-.054-.136-.135V14.454c0-.08.054-.135.136-.135h2.328c.109 0 .19.054.244.163l2.843 7.31 2.816-7.31c.028-.109.136-.163.244-.163h2.329c.081 0 .135.054.135.135v10.399c0 .08-.054.135-.135.135H73.65c-.027 0-.108-.054-.108-.135zM91.955 24.798V14.536c0-.108.081-.19.19-.19h6.905c.108 0 .19.082.19.19v1.245c0 .109-.082.19-.19.19h-5.037a.185.185 0 00-.19.19v2.355c0 .109.082.19.19.19h4.928c.109 0 .19.081.19.19v1.245c0 .108-.081.19-.19.19h-4.928a.185.185 0 00-.19.19v2.572c0 .108.082.19.19.19h5.037c.108 0 .19.08.19.189v1.245c0 .109-.082.19-.19.19h-6.905c-.109.081-.19 0-.19-.109zM107.904 24.88l-2.247-3.791c-.027-.054-.109-.081-.163-.081h-1.57a.185.185 0 00-.19.189v3.601c0 .109-.081.19-.189.19h-1.463a.185.185 0 01-.189-.19V14.536c0-.108.081-.19.189-.19h4.495c2.112 0 3.493 1.354 3.493 3.33 0 1.761-1.083 2.763-2.274 3.06-.136.028-.19.163-.136.299.434.704 1.788 2.87 2.302 3.655.081.136 0 .298-.162.298h-1.706c-.081 0-.136-.027-.19-.108zm.244-7.23c0-1.03-.758-1.68-1.814-1.68h-2.383a.185.185 0 00-.19.19v3.006c0 .108.081.19.19.19h2.383c1.056 0 1.814-.65 1.814-1.706zM122.689 24.798V14.536c0-.108.081-.19.19-.19h6.932c.108 0 .189.082.189.19v1.273c0 .108-.081.189-.189.189h-5.064a.186.186 0 00-.19.19v2.383c0 .108.082.189.19.189h4.928c.108 0 .19.081.19.19v1.272c0 .108-.082.19-.19.19h-4.928a.186.186 0 00-.19.19V23.2c0 .108.082.19.19.19h5.064c.108 0 .189.08.189.189v1.273c0 .108-.081.19-.189.19h-6.932c-.109-.055-.19-.136-.19-.245zM111.424 19.627c0-3.277 2.356-5.497 5.389-5.497 1.977 0 3.249 1.002 4.007 2.22.055.081.028.217-.081.244l-1.218.65c-.082.054-.19.027-.217-.055-.514-.812-1.462-1.408-2.491-1.408-2.031 0-3.547 1.598-3.547 3.845 0 2.22 1.516 3.846 3.547 3.846 1.029 0 1.977-.596 2.491-1.408.054-.082.135-.109.217-.055l1.218.623c.109.054.136.163.081.271-.785 1.219-2.057 2.248-4.007 2.248-3.033-.028-5.389-2.248-5.389-5.524zM87.352 24.853v-8.097l-3.222 8.15c0 .028-.055.055-.082.055h-.677c-.027 0-.08-.027-.08-.054l-3.25-8.15v8.096c0 .08-.054.135-.136.135h-1.624c-.082 0-.136-.054-.136-.135V14.454c0-.08.054-.135.136-.135h2.328c.109 0 .19.054.244.163l2.843 7.31 2.816-7.31c.028-.109.136-.163.244-.163h2.329c.081 0 .135.054.135.135v10.399c0 .08-.054.135-.135.135H87.46c-.054 0-.108-.054-.108-.135z" fill="#34313F"></path></svg>