<svg version="1.1" id="Layer_1" xmlns="http://www.w3.org/2000/svg" xmlns:xlink="http://www.w3.org/1999/xlink" x="0px" y="0px"
	 width="100%" viewBox="0 0 99 95" enable-background="new 0 0 99 95" xml:space="preserve">
<path fill="#FEFCFC" opacity="1.000000" stroke="none" 
	d="
M51.000000,96.000000 
	C34.000004,96.000000 17.500006,96.000000 1.000007,96.000000 
	C1.000004,64.333344 1.000004,32.666683 1.000002,1.000019 
	C33.999985,1.000013 66.999969,1.000013 99.999969,1.000006 
	C99.999977,32.666645 99.999977,64.333290 99.999985,95.999969 
	C83.833336,96.000000 67.666664,96.000000 51.000000,96.000000 
M51.535179,49.185867 
	C54.968307,49.185867 58.401432,49.185867 61.785847,49.185867 
	C62.317692,39.223633 57.847969,33.053478 49.851891,32.033138 
	C41.069382,30.912441 34.228222,35.522793 32.823338,43.508911 
	C31.232063,52.554516 35.455147,59.974659 43.251331,61.831375 
	C51.410843,63.774620 58.530487,59.954498 61.262203,50.966801 
	C56.960972,52.139961 53.210411,52.740681 49.826862,54.195175 
	C45.809025,55.922329 42.644333,54.246120 42.129642,49.185871 
	C44.958549,49.185871 47.759354,49.185871 51.535179,49.185867 
M35.929390,61.689781 
	C34.907337,60.841515 33.885284,59.993252 32.081661,58.496315 
	C35.479485,67.962379 42.905537,73.821945 49.820656,73.306328 
	C55.974148,72.847504 62.372383,67.515793 63.634979,61.253418 
	C54.557114,68.595711 45.566833,69.840538 35.929390,61.689781 
M64.278534,51.129852 
	C64.311432,55.496239 66.540245,57.925152 69.422729,56.494541 
	C70.572021,55.924137 71.795349,54.434551 71.950706,53.230003 
	C72.106400,52.022846 71.086487,49.626148 70.381493,49.547531 
	C68.533600,49.341465 66.576485,50.114918 64.278534,51.129852 
z"/>
<path fill="#070707" opacity="1.000000" stroke="none" 
	d="
M51.047668,49.185867 
	C47.759354,49.185871 44.958549,49.185871 42.129642,49.185871 
	C42.644333,54.246120 45.809025,55.922329 49.826862,54.195175 
	C53.210411,52.740681 56.960972,52.139961 61.262203,50.966801 
	C58.530487,59.954498 51.410843,63.774620 43.251331,61.831375 
	C35.455147,59.974659 31.232063,52.554516 32.823338,43.508911 
	C34.228222,35.522793 41.069382,30.912441 49.851891,32.033138 
	C57.847969,33.053478 62.317692,39.223633 61.785847,49.185867 
	C58.401432,49.185867 54.968307,49.185867 51.047668,49.185867 
M52.065609,41.581921 
	C47.043545,37.500053 43.204548,38.414196 42.248459,44.162724 
	C45.249622,44.162724 48.215160,44.238491 51.168167,44.080303 
	C51.606571,44.056816 51.985878,42.930222 52.065609,41.581921 
z"/>
<path fill="#FFA218" opacity="1.000000" stroke="none" 
	d="
M36.217102,61.904930 
	C45.566833,69.840538 54.557114,68.595711 63.634979,61.253418 
	C62.372383,67.515793 55.974148,72.847504 49.820656,73.306328 
	C42.905537,73.821945 35.479485,67.962379 32.081661,58.496315 
	C33.885284,59.993252 34.907337,60.841515 36.217102,61.904930 
z"/>
<path fill="#FF9E0D" opacity="1.000000" stroke="none" 
	d="
M64.470718,50.813927 
	C66.576485,50.114918 68.533600,49.341465 70.381493,49.547531 
	C71.086487,49.626148 72.106400,52.022846 71.950706,53.230003 
	C71.795349,54.434551 70.572021,55.924137 69.422729,56.494541 
	C66.540245,57.925152 64.311432,55.496239 64.470718,50.813927 
z"/>
<path fill="#EFEDED" opacity="1.000000" stroke="none" 
	d="
M52.229065,41.947945 
	C51.985878,42.930222 51.606571,44.056816 51.168167,44.080303 
	C48.215160,44.238491 45.249622,44.162724 42.248459,44.162724 
	C43.204548,38.414196 47.043545,37.500053 52.229065,41.947945 
z"/>
</svg>