<svg version="1.1" id="Layer_1" xmlns="http://www.w3.org/2000/svg" xmlns:xlink="http://www.w3.org/1999/xlink" x="0px" y="0px"
	 width="100%" viewBox="0 0 337 354" enable-background="new 0 0 337 354" xml:space="preserve">
<path fill="#1F1F1F" opacity="1.000000" stroke="none" 
	d="
M185.000000,355.000000 
	C123.333344,355.000000 62.166687,355.000000 1.000025,355.000000 
	C1.000016,237.000031 1.000016,119.000061 1.000008,1.000072 
	C113.333282,1.000048 225.666565,1.000048 337.999878,1.000024 
	C337.999939,118.999931 337.999939,236.999863 337.999969,354.999878 
	C287.166656,355.000000 236.333328,355.000000 185.000000,355.000000 
M179.260910,39.880161 
	C174.137222,39.589249 168.932907,38.583130 163.905869,39.149696 
	C151.778122,40.516529 139.408630,41.428185 127.708130,44.619061 
	C56.623131,64.004860 10.833924,138.158310 31.735136,215.055054 
	C49.575722,280.691589 112.706444,322.919617 178.707764,316.221436 
	C210.031357,313.042511 237.052185,300.910553 260.113098,279.658813 
	C305.844727,237.514938 316.522644,170.719330 290.382416,116.863174 
	C279.515411,94.474174 263.235809,76.855110 242.846436,62.895088 
	C230.606049,54.514439 217.376724,48.179340 202.857834,44.816025 
	C195.327408,43.071594 187.740173,41.572350 179.260910,39.880161 
z"/>
<path fill="#203B93" opacity="1.000000" stroke="none" 
	d="
M179.719757,39.921249 
	C187.740173,41.572350 195.327408,43.071594 202.857834,44.816025 
	C217.376724,48.179340 230.606049,54.514439 242.846436,62.895088 
	C263.235809,76.855110 279.515411,94.474174 290.382416,116.863174 
	C316.522644,170.719330 305.844727,237.514938 260.113098,279.658813 
	C237.052185,300.910553 210.031357,313.042511 178.707764,316.221436 
	C112.706444,322.919617 49.575722,280.691589 31.735136,215.055054 
	C10.833924,138.158310 56.623131,64.004860 127.708130,44.619061 
	C139.408630,41.428185 151.778122,40.516529 163.905869,39.149696 
	C168.932907,38.583130 174.137222,39.589249 179.719757,39.921249 
M69.236366,176.042679 
	C71.458748,174.401062 73.681137,172.759430 75.903519,171.117798 
	C75.812332,170.735779 75.721138,170.353775 75.629951,169.971771 
	C71.759087,169.971771 67.888229,169.971771 63.751209,169.269455 
	C62.686382,166.162308 61.621555,163.055176 60.333527,159.296738 
	C58.476665,163.510391 57.868153,168.020248 55.369331,169.674240 
	C52.912125,171.300690 48.536564,170.028931 43.611435,170.028931 
	C47.710430,173.457001 52.013390,175.359818 52.975807,178.341049 
	C53.924145,181.278656 51.488495,185.308701 50.462601,189.139389 
	C54.216381,186.998245 57.578472,185.080521 61.264515,183.756897 
	C63.939892,185.322937 66.615273,186.888992 70.236969,189.008957 
	C68.797569,184.713608 67.839386,181.854279 66.991356,178.500061 
	C66.953033,178.335464 66.914719,178.170883 67.132568,177.424454 
	C67.629845,177.039078 68.127129,176.653717 69.236366,176.042679 
M81.693428,229.795349 
	C84.391731,227.814880 87.090042,225.834412 89.788345,223.853943 
	C80.900970,224.826569 75.265327,222.026154 73.694756,212.687439 
	C72.834587,215.461334 71.974419,218.235229 70.741898,221.744843 
	C66.766983,222.370026 62.792065,222.995224 58.725731,223.634796 
	C61.729908,226.042145 65.931534,227.811920 66.990372,230.724319 
	C67.972183,233.424835 65.596085,237.346176 64.369263,241.971588 
	C67.941147,239.613861 70.686279,236.399582 73.538246,236.301834 
	C76.573471,236.197784 79.709846,239.044678 83.415207,240.912125 
	C82.558449,236.966385 81.804054,233.492111 81.693428,229.795349 
M143.659576,149.845169 
	C143.107254,148.212006 142.149170,146.596161 142.078613,144.942444 
	C141.865799,139.954956 141.856140,134.947449 142.043106,129.958084 
	C142.179367,126.321632 140.805389,125.014175 137.115891,124.939484 
	C112.324341,124.437546 93.841362,139.819717 86.566406,160.881042 
	C78.101814,185.386398 87.560028,213.673218 113.311455,225.555313 
	C118.087410,227.759018 123.221046,229.928574 128.354538,230.432037 
	C135.034088,231.087143 141.382141,231.683640 147.403290,235.115463 
	C162.136261,243.512695 177.380478,243.983521 192.925522,237.231323 
	C196.715210,235.585205 200.548721,233.732422 204.553177,232.938309 
	C230.498566,227.793106 249.822601,204.794861 248.107071,177.327911 
	C246.236877,147.384933 222.774200,127.713257 194.992432,127.003822 
	C190.756012,126.895638 188.908493,128.898819 188.987274,133.062653 
	C189.072342,137.557755 189.182022,142.067673 188.893600,146.546188 
	C188.793930,148.093887 187.531967,149.566727 186.152451,150.702698 
	C184.677689,149.837372 183.202927,148.972031 181.821991,148.161743 
	C181.456161,133.079910 177.386780,127.429802 166.528976,127.217896 
	C154.680206,126.986649 148.214142,130.522522 147.880630,148.460297 
	C146.681244,149.055069 145.554657,149.613754 143.659576,149.845169 
M283.810425,172.677078 
	C284.464417,172.070587 285.118408,171.464096 285.772400,170.857605 
	C276.705933,172.490311 271.358704,169.307205 270.000916,159.007095 
	C269.477448,170.422409 262.789215,171.383377 254.762207,170.386917 
	C254.619965,170.369247 254.420670,170.811066 254.087555,171.249786 
	C255.300400,172.227768 256.378326,173.527145 257.760315,174.133636 
	C262.622986,176.267685 264.146271,179.247849 261.225006,184.121719 
	C260.410278,185.481018 260.473846,187.366730 260.002655,189.649658 
	C263.629211,187.213074 266.512939,183.858078 269.672424,183.574387 
	C272.506592,183.319916 275.644135,186.443649 279.718109,188.659088 
	C278.945801,185.832199 278.781952,184.133163 278.041962,182.740265 
	C276.194580,179.262970 277.032104,176.845734 280.405457,175.040298 
	C281.421692,174.496384 282.313721,173.720291 283.810425,172.677078 
M154.951859,64.137306 
	C153.015274,64.644844 151.078690,65.152382 148.601471,65.801613 
	C152.181870,68.448074 155.242432,70.710289 158.238876,72.925102 
	C157.168121,76.553947 156.153809,79.991539 155.139496,83.429138 
	C157.716675,82.789886 159.311966,82.071144 160.365601,80.875191 
	C163.707047,77.082375 166.689972,78.239662 169.836029,81.087944 
	C171.134491,82.263519 172.695007,83.149658 174.136337,84.167442 
	C174.621857,84.028847 175.107391,83.890251 175.592911,83.751656 
	C169.346741,75.329529 172.570389,69.843269 180.742371,65.767662 
	C176.543915,65.187386 172.197876,66.198723 169.664124,64.502678 
	C167.246124,62.884109 166.716217,58.444870 164.940887,54.268223 
	C161.888733,58.138027 163.739960,66.333733 154.951859,64.137306 
M225.921234,274.608887 
	C223.612534,270.836182 224.219498,267.954132 228.321976,265.845062 
	C230.058502,264.952301 231.544662,263.572510 233.144623,262.414062 
	C233.169632,261.942902 233.194626,261.471710 233.219635,261.000549 
	C223.346832,264.161530 219.041534,259.447357 217.363754,250.140106 
	C216.070770,259.405060 211.649384,263.509247 202.854767,261.709381 
	C202.744049,261.686737 202.534317,262.147949 202.004211,262.911041 
	C211.740219,265.730011 212.097122,272.145264 208.563217,280.191193 
	C211.521301,278.112274 214.479401,276.033356 217.657608,273.799713 
	C220.642929,275.879150 223.582733,277.926910 227.333832,280.539795 
	C226.776611,278.164124 226.445770,276.753662 225.921234,274.608887 
M206.070999,83.575226 
	C214.123917,87.325554 207.566025,92.933304 207.940659,98.683189 
	C214.384506,91.294586 220.708084,90.951584 226.956604,98.840225 
	C226.482864,95.532593 225.859787,92.854469 224.922241,90.291367 
	C223.990341,87.743767 224.659180,86.054939 226.872467,84.596985 
	C229.053680,83.160172 231.063141,81.462662 234.188614,79.089310 
	C229.197983,79.089310 224.976517,80.287445 222.424591,78.737221 
	C220.082764,77.314613 219.553391,72.923233 218.192749,69.854378 
	C217.991653,69.400841 217.610062,69.027336 216.140808,67.003883 
	C216.521896,78.674965 210.519196,80.846375 201.458694,78.884850 
	C201.604645,79.326920 201.750580,79.768990 201.896530,80.211060 
	C203.148727,81.128319 204.400940,82.045578 206.070999,83.575226 
M125.453377,261.553925 
	C116.237511,264.183380 114.786377,257.079712 112.373367,250.378647 
	C111.790802,260.709656 106.173103,263.432129 96.817444,261.697174 
	C103.882576,265.994415 109.434898,270.248444 102.812599,279.227509 
	C106.748634,277.689789 109.737900,274.434265 112.632599,274.516327 
	C115.680107,274.602631 118.637215,277.879364 121.633820,279.762115 
	C117.200607,271.328644 120.249329,265.902496 128.636566,262.539917 
	C127.705727,261.953735 127.457748,261.724365 127.166664,261.634338 
	C126.858086,261.538879 126.508575,261.575836 125.453377,261.553925 
M249.338470,134.939758 
	C254.717880,128.494492 259.645935,132.072693 265.472717,136.983215 
	C264.455200,132.105270 262.336945,128.132721 263.411194,125.428223 
	C264.574524,122.499420 268.714996,120.753143 272.366241,117.847084 
	C269.679749,117.847084 268.160339,117.649925 266.709900,117.882652 
	C261.580139,118.705772 258.463593,117.083397 257.957397,111.495811 
	C257.829742,110.086433 256.865143,108.752869 255.882172,106.433830 
	C254.998398,108.872536 254.420792,110.071495 254.131332,111.336403 
	C253.117569,115.766449 250.712860,117.824493 245.922699,117.078392 
	C244.134277,116.799828 242.167572,117.665688 239.124054,118.221046 
	C240.801071,119.512047 241.393127,120.148941 242.122696,120.500221 
	C247.140823,122.916374 250.909088,125.808411 247.278534,132.098999 
	C246.682419,133.131897 246.503632,134.405655 245.953186,136.127197 
	C247.264984,135.764481 247.992020,135.563461 249.338470,134.939758 
M156.625900,289.735962 
	C156.226959,291.071259 155.828003,292.406555 155.050171,295.010010 
	C158.888184,292.299408 161.584854,288.947693 164.505219,288.739899 
	C167.418503,288.532593 170.555954,291.475891 174.149170,293.322662 
	C173.454468,289.277679 171.582138,285.429138 172.678879,282.836609 
	C173.844055,280.082306 177.824905,278.519135 181.626022,275.640869 
	C178.381500,275.640869 176.266510,275.399841 174.227737,275.691528 
	C170.100281,276.282013 168.094376,274.552185 167.371017,270.564972 
	C167.025040,268.658051 166.013489,266.871826 165.303406,265.030945 
	C164.863480,264.903290 164.423538,264.775635 163.983612,264.647949 
	C164.548523,275.417297 158.068649,276.925537 149.387573,275.545349 
	C152.941071,280.266235 161.593216,281.005646 156.625900,289.735962 
M115.088509,75.484741 
	C114.394371,73.275429 113.700241,71.066124 113.006104,68.856812 
	C112.580872,68.627014 112.155647,68.397217 111.730415,68.167419 
	C111.778900,78.781349 105.802765,80.889519 97.491966,78.995644 
	C97.435600,79.793991 97.353142,80.012817 97.425865,80.096077 
	C97.741760,80.457710 98.053024,80.863174 98.455109,81.103706 
	C103.792480,84.296577 108.759392,87.554222 103.201813,94.642128 
	C102.701714,95.279938 103.135353,96.649879 103.135353,98.860535 
	C109.393158,90.981514 115.490593,91.525795 121.747276,98.387527 
	C121.146866,93.942131 118.877922,89.867188 119.899139,86.940155 
	C120.924416,84.001526 125.228493,82.206848 128.958817,79.219582 
	C124.918365,79.219582 121.939125,79.523628 119.073883,79.084267 
	C117.750336,78.881325 116.649406,77.226662 115.088509,75.484741 
M267.363464,226.990204 
	C268.892334,225.871674 270.421204,224.753143 272.875458,222.957596 
	C270.667145,222.957596 269.709869,222.964432 268.752716,222.956528 
	C260.461426,222.888092 260.471802,222.883133 257.443634,215.345840 
	C257.119171,214.538239 256.585541,213.814667 255.581085,212.060394 
	C253.980820,216.359848 252.749725,219.667450 251.425842,223.224365 
	C247.512817,223.224365 243.809036,223.224365 240.105255,223.224365 
	C248.442245,227.116699 251.717972,232.527084 246.114273,241.828384 
	C252.672775,235.767380 258.670502,233.846176 265.028168,241.576904 
	C264.982758,239.120438 264.775391,237.380722 264.074677,235.869797 
	C262.338013,232.125092 262.778442,229.238495 267.363464,226.990204 
M72.760620,110.421448 
	C72.218712,119.949272 64.726974,117.638680 58.383701,118.404701 
	C67.301186,122.153015 69.529472,127.858345 64.367363,136.269363 
	C68.041100,134.414642 70.774452,131.242096 73.764191,130.978607 
	C76.517143,130.735992 79.545700,133.620621 82.885094,135.351746 
	C82.348206,131.398895 80.680626,127.597794 81.795227,124.982384 
	C82.947433,122.278748 86.802063,120.726799 89.474533,118.671051 
	C80.237709,120.460480 75.806541,116.086830 73.969528,107.579559 
	C73.653969,108.302399 73.338409,109.025246 72.760620,110.421448 
z"/>
<path fill="#233F92" opacity="1.000000" stroke="none" 
	d="
M186.800919,151.073776 
	C187.531967,149.566727 188.793930,148.093887 188.893600,146.546188 
	C189.182022,142.067673 189.072342,137.557755 188.987274,133.062653 
	C188.908493,128.898819 190.756012,126.895638 194.992432,127.003822 
	C222.774200,127.713257 246.236877,147.384933 248.107071,177.327911 
	C249.822601,204.794861 230.498566,227.793106 204.553177,232.938309 
	C200.548721,233.732422 196.715210,235.585205 192.925522,237.231323 
	C177.380478,243.983521 162.136261,243.512695 147.403290,235.115463 
	C141.382141,231.683640 135.034088,231.087143 128.354538,230.432037 
	C123.221046,229.928574 118.087410,227.759018 113.311455,225.555313 
	C87.560028,213.673218 78.101814,185.386398 86.566406,160.881042 
	C93.841362,139.819717 112.324341,124.437546 137.115891,124.939484 
	C140.805389,125.014175 142.179367,126.321632 142.043106,129.958084 
	C141.856140,134.947449 141.865799,139.954956 142.078613,144.942444 
	C142.149170,146.596161 143.107254,148.212006 143.811829,150.366882 
	C143.787415,151.780792 143.467911,152.671066 143.455917,153.565491 
	C143.319992,163.693665 143.231171,173.822449 142.918854,184.168701 
	C142.468307,184.934464 142.228668,185.482605 141.996964,186.397644 
	C142.465271,187.882309 142.925659,189.000107 143.386047,190.117889 
	C143.997162,189.540283 144.608276,188.962677 145.529785,188.458298 
	C146.226929,188.707977 146.613647,188.884445 147.058502,189.447601 
	C148.761200,190.555725 150.392029,191.861801 152.052643,191.900864 
	C160.858231,192.107880 169.672699,192.083191 178.480972,191.942871 
	C181.109192,191.901031 183.794968,191.471451 186.330582,190.771271 
	C188.740219,190.105896 190.191162,188.743256 186.952454,186.501877 
	C186.942810,174.383575 186.871872,162.728683 186.800919,151.073776 
M181.881821,216.093781 
	C183.504440,215.980576 185.784042,216.494522 186.614212,215.624847 
	C188.395432,213.758820 190.179947,211.269058 190.469513,208.855469 
	C190.627808,207.536179 187.888397,204.775330 186.195206,204.540131 
	C181.744583,203.921921 177.151260,204.331253 171.948944,204.331253 
	C175.902542,208.158691 176.046524,223.393967 172.865753,226.805176 
	C176.191315,226.805176 179.532578,226.805176 183.745346,226.805176 
	C178.237701,224.379379 180.280746,220.355484 180.454193,216.666779 
	C180.659027,216.396805 180.863861,216.126816 181.881821,216.093781 
M201.870819,218.014801 
	C202.505020,218.020569 203.139221,218.026321 204.212265,218.585663 
	C205.177765,220.136276 206.340790,221.599960 207.069031,223.254974 
	C208.757751,227.092819 211.452911,228.004852 215.174088,226.737473 
	C212.634583,222.963364 210.198334,219.342743 207.852615,215.856628 
	C209.333282,214.342026 210.562439,213.407547 211.372711,212.193497 
	C213.544525,208.939423 212.224564,204.877258 208.475891,204.487854 
	C203.524017,203.973511 198.478439,204.361313 192.475677,204.361313 
	C196.977631,207.880630 197.356415,222.805191 194.123581,226.874054 
	C197.109070,226.874054 200.135712,226.874054 201.844498,226.874054 
	C201.631760,223.780029 201.434052,220.904678 201.870819,218.014801 
M146.925659,223.565857 
	C146.631607,224.606110 146.337570,225.646362 145.964340,226.966751 
	C150.499832,226.966751 154.980942,227.353760 159.365784,226.869247 
	C164.902496,226.257462 168.994736,221.119843 169.291245,215.357956 
	C169.583450,209.679459 167.291367,205.498703 162.252121,204.902649 
	C156.450302,204.216400 150.504990,204.743256 145.290375,204.743256 
	C145.841614,206.981598 146.679611,209.099533 146.826569,211.264359 
	C147.085403,215.077881 146.922272,218.920059 146.925659,223.565857 
M132.989655,225.633652 
	C127.914772,226.743927 124.248589,224.550644 122.802773,219.952744 
	C121.923470,217.156448 121.924004,213.477020 123.042572,210.834961 
	C124.094421,208.350479 127.133049,206.707108 129.252930,204.735168 
	C123.528915,203.684235 118.000404,207.250549 117.088066,212.988342 
	C115.687439,221.797104 118.595741,226.064392 127.562782,227.599548 
	C131.051712,228.196854 135.299683,227.530609 138.406174,225.912369 
	C140.067886,225.046768 140.037506,220.932846 140.766632,218.299713 
	C137.449692,218.299713 134.591522,218.299713 131.733353,218.299713 
	C135.235306,220.025467 136.227600,222.125992 132.989655,225.633652 
M139.364349,206.391739 
	C136.921524,205.680954 134.478699,204.970169 132.035873,204.259399 
	C133.773315,206.352371 135.671448,207.679611 137.679947,208.810928 
	C137.858002,208.911255 138.755127,207.735001 139.364349,206.391739 
z"/>
<path fill="#F7F8FB" opacity="1.000000" stroke="none" 
	d="
M186.476685,150.888245 
	C186.871872,162.728683 186.942810,174.383575 186.678894,186.647186 
	C184.362610,187.815491 182.389175,188.824860 180.398468,188.860107 
	C169.268082,189.057190 158.133514,189.018829 147.000381,189.060913 
	C146.613647,188.884445 146.226929,188.707977 145.398590,188.231094 
	C144.424194,187.250488 143.891388,186.570328 143.378845,185.561493 
	C143.309311,184.805588 143.219513,184.378342 143.129730,183.951080 
	C143.231171,173.822449 143.319992,163.693665 143.455917,153.565491 
	C143.467911,152.671066 143.787415,151.780792 144.196075,150.530518 
	C145.554657,149.613754 146.681244,149.055069 147.880630,148.460297 
	C148.214142,130.522522 154.680206,126.986649 166.528976,127.217896 
	C177.386780,127.429802 181.456161,133.079910 181.821991,148.161743 
	C183.202927,148.972031 184.677689,149.837372 186.476685,150.888245 
M165.490143,130.933670 
	C154.716660,131.043442 150.704025,136.680710 152.908325,148.744583 
	C161.266083,148.744583 169.639816,148.744583 177.983582,148.744583 
	C178.944000,135.642029 176.035843,131.275162 165.490143,130.933670 
M169.753311,168.472244 
	C169.369324,166.052994 169.505219,163.337799 168.371170,161.345490 
	C167.843399,160.418304 164.371826,160.132843 163.101654,160.932907 
	C161.627899,161.861237 160.405151,164.267593 160.319046,166.091202 
	C160.147919,169.715225 160.830246,173.379517 161.190475,177.365143 
	C163.739166,177.365143 166.880112,177.365143 170.232590,177.365143 
	C169.911011,174.347809 169.633957,171.748245 169.753311,168.472244 
z"/>
<path fill="#EEC60D" opacity="1.000000" stroke="none" 
	d="
M283.536530,172.863815 
	C282.313721,173.720291 281.421692,174.496384 280.405457,175.040298 
	C277.032104,176.845734 276.194580,179.262970 278.041962,182.740265 
	C278.781952,184.133163 278.945801,185.832199 279.718109,188.659088 
	C275.644135,186.443649 272.506592,183.319916 269.672424,183.574387 
	C266.512939,183.858078 263.629211,187.213074 260.002655,189.649658 
	C260.473846,187.366730 260.410278,185.481018 261.225006,184.121719 
	C264.146271,179.247849 262.622986,176.267685 257.760315,174.133636 
	C256.378326,173.527145 255.300400,172.227768 254.087555,171.249786 
	C254.420670,170.811066 254.619965,170.369247 254.762207,170.386917 
	C262.789215,171.383377 269.477448,170.422409 270.000916,159.007095 
	C271.358704,169.307205 276.705933,172.490311 285.772400,170.857605 
	C285.118408,171.464096 284.464417,172.070587 283.536530,172.863815 
z"/>
<path fill="#EFC60C" opacity="1.000000" stroke="none" 
	d="
M155.375427,64.134033 
	C163.739960,66.333733 161.888733,58.138027 164.940887,54.268223 
	C166.716217,58.444870 167.246124,62.884109 169.664124,64.502678 
	C172.197876,66.198723 176.543915,65.187386 180.742371,65.767662 
	C172.570389,69.843269 169.346741,75.329529 175.592911,83.751656 
	C175.107391,83.890251 174.621857,84.028847 174.136337,84.167442 
	C172.695007,83.149658 171.134491,82.263519 169.836029,81.087944 
	C166.689972,78.239662 163.707047,77.082375 160.365601,80.875191 
	C159.311966,82.071144 157.716675,82.789886 155.139496,83.429138 
	C156.153809,79.991539 157.168121,76.553947 158.238876,72.925102 
	C155.242432,70.710289 152.181870,68.448074 148.601471,65.801613 
	C151.078690,65.152382 153.015274,64.644844 155.375427,64.134033 
z"/>
<path fill="#F5CA08" opacity="1.000000" stroke="none" 
	d="
M226.018097,274.976044 
	C226.445770,276.753662 226.776611,278.164124 227.333832,280.539795 
	C223.582733,277.926910 220.642929,275.879150 217.657608,273.799713 
	C214.479401,276.033356 211.521301,278.112274 208.563217,280.191193 
	C212.097122,272.145264 211.740219,265.730011 202.004211,262.911041 
	C202.534317,262.147949 202.744049,261.686737 202.854767,261.709381 
	C211.649384,263.509247 216.070770,259.405060 217.363754,250.140106 
	C219.041534,259.447357 223.346832,264.161530 233.219635,261.000549 
	C233.194626,261.471710 233.169632,261.942902 233.144623,262.414062 
	C231.544662,263.572510 230.058502,264.952301 228.321976,265.845062 
	C224.219498,267.954132 223.612534,270.836182 226.018097,274.976044 
z"/>
<path fill="#F0C60D" opacity="1.000000" stroke="none" 
	d="
M205.862061,83.269028 
	C204.400940,82.045578 203.148727,81.128319 201.896530,80.211060 
	C201.750580,79.768990 201.604645,79.326920 201.458694,78.884850 
	C210.519196,80.846375 216.521896,78.674965 216.140808,67.003883 
	C217.610062,69.027336 217.991653,69.400841 218.192749,69.854378 
	C219.553391,72.923233 220.082764,77.314613 222.424591,78.737221 
	C224.976517,80.287445 229.197983,79.089310 234.188614,79.089310 
	C231.063141,81.462662 229.053680,83.160172 226.872467,84.596985 
	C224.659180,86.054939 223.990341,87.743767 224.922241,90.291367 
	C225.859787,92.854469 226.482864,95.532593 226.956604,98.840225 
	C220.708084,90.951584 214.384506,91.294586 207.940659,98.683189 
	C207.566025,92.933304 214.123917,87.325554 205.862061,83.269028 
z"/>
<path fill="#F5CA07" opacity="1.000000" stroke="none" 
	d="
M125.815155,261.554443 
	C126.508575,261.575836 126.858086,261.538879 127.166664,261.634338 
	C127.457748,261.724365 127.705727,261.953735 128.636566,262.539917 
	C120.249329,265.902496 117.200607,271.328644 121.633820,279.762115 
	C118.637215,277.879364 115.680107,274.602631 112.632599,274.516327 
	C109.737900,274.434265 106.748634,277.689789 102.812599,279.227509 
	C109.434898,270.248444 103.882576,265.994415 96.817444,261.697174 
	C106.173103,263.432129 111.790802,260.709656 112.373367,250.378647 
	C114.786377,257.079712 116.237511,264.183380 125.815155,261.554443 
z"/>
<path fill="#F4CA08" opacity="1.000000" stroke="none" 
	d="
M249.028763,135.151093 
	C247.992020,135.563461 247.264984,135.764481 245.953186,136.127197 
	C246.503632,134.405655 246.682419,133.131897 247.278534,132.098999 
	C250.909088,125.808411 247.140823,122.916374 242.122696,120.500221 
	C241.393127,120.148941 240.801071,119.512047 239.124054,118.221046 
	C242.167572,117.665688 244.134277,116.799828 245.922699,117.078392 
	C250.712860,117.824493 253.117569,115.766449 254.131332,111.336403 
	C254.420792,110.071495 254.998398,108.872536 255.882172,106.433830 
	C256.865143,108.752869 257.829742,110.086433 257.957397,111.495811 
	C258.463593,117.083397 261.580139,118.705772 266.709900,117.882652 
	C268.160339,117.649925 269.679749,117.847084 272.366241,117.847084 
	C268.714996,120.753143 264.574524,122.499420 263.411194,125.428223 
	C262.336945,128.132721 264.455200,132.105270 265.472717,136.983215 
	C259.645935,132.072693 254.717880,128.494492 249.028763,135.151093 
z"/>
<path fill="#F5CA08" opacity="1.000000" stroke="none" 
	d="
M156.758545,289.369385 
	C161.593216,281.005646 152.941071,280.266235 149.387573,275.545349 
	C158.068649,276.925537 164.548523,275.417297 163.983612,264.647949 
	C164.423538,264.775635 164.863480,264.903290 165.303406,265.030945 
	C166.013489,266.871826 167.025040,268.658051 167.371017,270.564972 
	C168.094376,274.552185 170.100281,276.282013 174.227737,275.691528 
	C176.266510,275.399841 178.381500,275.640869 181.626022,275.640869 
	C177.824905,278.519135 173.844055,280.082306 172.678879,282.836609 
	C171.582138,285.429138 173.454468,289.277679 174.149170,293.322662 
	C170.555954,291.475891 167.418503,288.532593 164.505219,288.739899 
	C161.584854,288.947693 158.888184,292.299408 155.050171,295.010010 
	C155.828003,292.406555 156.226959,291.071259 156.758545,289.369385 
z"/>
<path fill="#F0C60C" opacity="1.000000" stroke="none" 
	d="
M115.268021,75.857468 
	C116.649406,77.226662 117.750336,78.881325 119.073883,79.084267 
	C121.939125,79.523628 124.918365,79.219582 128.958817,79.219582 
	C125.228493,82.206848 120.924416,84.001526 119.899139,86.940155 
	C118.877922,89.867188 121.146866,93.942131 121.747276,98.387527 
	C115.490593,91.525795 109.393158,90.981514 103.135353,98.860535 
	C103.135353,96.649879 102.701714,95.279938 103.201813,94.642128 
	C108.759392,87.554222 103.792480,84.296577 98.455109,81.103706 
	C98.053024,80.863174 97.741760,80.457710 97.425865,80.096077 
	C97.353142,80.012817 97.435600,79.793991 97.491966,78.995644 
	C105.802765,80.889519 111.778900,78.781349 111.730415,68.167419 
	C112.155647,68.397217 112.580872,68.627014 113.006104,68.856812 
	C113.700241,71.066124 114.394371,73.275429 115.268021,75.857468 
z"/>
<path fill="#F5CB08" opacity="1.000000" stroke="none" 
	d="
M267.066956,227.192810 
	C262.778442,229.238495 262.338013,232.125092 264.074677,235.869797 
	C264.775391,237.380722 264.982758,239.120438 265.028168,241.576904 
	C258.670502,233.846176 252.672775,235.767380 246.114273,241.828384 
	C251.717972,232.527084 248.442245,227.116699 240.105255,223.224365 
	C243.809036,223.224365 247.512817,223.224365 251.425842,223.224365 
	C252.749725,219.667450 253.980820,216.359848 255.581085,212.060394 
	C256.585541,213.814667 257.119171,214.538239 257.443634,215.345840 
	C260.471802,222.883133 260.461426,222.888092 268.752716,222.956528 
	C269.709869,222.964432 270.667145,222.957596 272.875458,222.957596 
	C270.421204,224.753143 268.892334,225.871674 267.066956,227.192810 
z"/>
<path fill="#F2C808" opacity="1.000000" stroke="none" 
	d="
M72.891739,110.084770 
	C73.338409,109.025246 73.653969,108.302399 73.969528,107.579559 
	C75.806541,116.086830 80.237709,120.460480 89.474533,118.671051 
	C86.802063,120.726799 82.947433,122.278748 81.795227,124.982384 
	C80.680626,127.597794 82.348206,131.398895 82.885094,135.351746 
	C79.545700,133.620621 76.517143,130.735992 73.764191,130.978607 
	C70.774452,131.242096 68.041100,134.414642 64.367363,136.269363 
	C69.529472,127.858345 67.301186,122.153015 58.383701,118.404701 
	C64.726974,117.638680 72.218712,119.949272 72.891739,110.084770 
z"/>
<path fill="#E9C00A" opacity="1.000000" stroke="none" 
	d="
M60.940559,183.162781 
	C57.578472,185.080521 54.216381,186.998245 50.462601,189.139389 
	C51.488495,185.308701 53.924145,181.278656 52.975807,178.341049 
	C52.013390,175.359818 47.710430,173.457001 43.611435,170.028931 
	C48.536564,170.028931 52.912125,171.300690 55.369331,169.674240 
	C57.868153,168.020248 58.476665,163.510391 60.333527,159.296738 
	C61.621555,163.055176 62.686382,166.162308 64.141998,169.868896 
	C66.147804,170.796448 67.762833,171.124573 70.571205,171.695160 
	C68.652550,171.980850 67.915962,172.090530 66.771019,172.171799 
	C63.173214,171.882889 62.122787,173.587967 61.980701,176.528870 
	C61.873302,178.751740 61.304184,180.952301 60.940559,183.162781 
z"/>
<path fill="#F1C607" opacity="1.000000" stroke="none" 
	d="
M81.049667,230.017822 
	C81.804054,233.492111 82.558449,236.966385 83.415207,240.912125 
	C79.709846,239.044678 76.573471,236.197784 73.538246,236.301834 
	C70.686279,236.399582 67.941147,239.613861 64.369263,241.971588 
	C65.596085,237.346176 67.972183,233.424835 66.990372,230.724319 
	C65.931534,227.811920 61.729908,226.042145 58.725731,223.634796 
	C62.792065,222.995224 66.766983,222.370026 71.237480,221.496429 
	C74.574318,224.452026 75.431595,229.763733 81.049667,230.017822 
z"/>
<path fill="#E6BE0D" opacity="1.000000" stroke="none" 
	d="
M81.371552,229.906586 
	C75.431595,229.763733 74.574318,224.452026 71.423660,221.128571 
	C71.974419,218.235229 72.834587,215.461334 73.694756,212.687439 
	C75.265327,222.026154 80.900970,224.826569 89.788345,223.853943 
	C87.090042,225.834412 84.391731,227.814880 81.371552,229.906586 
z"/>
<path fill="#E1BA0D" opacity="1.000000" stroke="none" 
	d="
M61.102539,183.459839 
	C61.304184,180.952301 61.873302,178.751740 61.980701,176.528870 
	C62.122787,173.587967 63.173214,171.882889 66.752045,172.545441 
	C67.635750,174.054443 68.130081,175.161392 68.624413,176.268356 
	C68.127129,176.653717 67.629845,177.039078 66.828796,177.748566 
	C66.643745,178.380096 66.762474,178.687531 66.881203,178.994949 
	C67.839386,181.854279 68.797569,184.713608 70.236969,189.008957 
	C66.615273,186.888992 63.939892,185.322937 61.102539,183.459839 
z"/>
<path fill="#CFAD1A" opacity="1.000000" stroke="none" 
	d="
M68.930389,176.155518 
	C68.130081,175.161392 67.635750,174.054443 67.160400,172.573853 
	C67.915962,172.090530 68.652550,171.980850 70.571205,171.695160 
	C67.762833,171.124573 66.147804,170.796448 64.275070,170.220062 
	C67.888229,169.971771 71.759087,169.971771 75.629951,169.971771 
	C75.721138,170.353775 75.812332,170.735779 75.903519,171.117798 
	C73.681137,172.759430 71.458748,174.401062 68.930389,176.155518 
z"/>
<path fill="#E9C00A" opacity="1.000000" stroke="none" 
	d="
M66.936279,178.747498 
	C66.762474,178.687531 66.643745,178.380096 66.700714,178.039490 
	C66.914719,178.170883 66.953033,178.335464 66.936279,178.747498 
z"/>
<path fill="#E6E9F2" opacity="1.000000" stroke="none" 
	d="
M146.930740,223.158051 
	C146.922272,218.920059 147.085403,215.077881 146.826569,211.264359 
	C146.679611,209.099533 145.841614,206.981598 145.290375,204.743256 
	C150.504990,204.743256 156.450302,204.216400 162.252121,204.902649 
	C167.291367,205.498703 169.583450,209.679459 169.291245,215.357956 
	C168.994736,221.119843 164.902496,226.257462 159.365784,226.869247 
	C154.980942,227.353760 150.499832,226.966751 145.964340,226.966751 
	C146.337570,225.646362 146.631607,224.606110 146.930740,223.158051 
M151.773727,213.619476 
	C151.773727,217.381989 151.773727,221.144516 151.773727,224.811264 
	C161.614822,225.832321 166.330673,219.889801 163.444687,211.357285 
	C161.887695,206.754059 158.296478,205.902649 154.289124,206.324295 
	C149.938049,206.782074 152.497208,210.486862 151.773727,213.619476 
z"/>
<path fill="#ECEEF5" opacity="1.000000" stroke="none" 
	d="
M201.236343,218.029343 
	C201.434052,220.904678 201.631760,223.780029 201.844498,226.874054 
	C200.135712,226.874054 197.109070,226.874054 194.123581,226.874054 
	C197.356415,222.805191 196.977631,207.880630 192.475677,204.361313 
	C198.478439,204.361313 203.524017,203.973511 208.475891,204.487854 
	C212.224564,204.877258 213.544525,208.939423 211.372711,212.193497 
	C210.562439,213.407547 209.333282,214.342026 207.852615,215.856628 
	C210.198334,219.342743 212.634583,222.963364 215.174088,226.737473 
	C211.452911,228.004852 208.757751,227.092819 207.069031,223.254974 
	C206.340790,221.599960 205.177765,220.136276 203.928848,218.022324 
	C203.947220,216.619949 204.177536,215.746155 204.565079,214.948792 
	C205.493713,213.038101 207.526901,210.936615 207.175369,209.338638 
	C206.832611,207.780472 204.082352,206.751892 202.389038,205.490799 
	C202.004807,205.878616 201.620575,206.266418 201.236343,206.654221 
	C201.236343,210.445938 201.236343,214.237640 201.236343,218.029343 
z"/>
<path fill="#E7EAF3" opacity="1.000000" stroke="none" 
	d="
M180.067810,217.000137 
	C180.280746,220.355484 178.237701,224.379379 183.745346,226.805176 
	C179.532578,226.805176 176.191315,226.805176 172.865753,226.805176 
	C176.046524,223.393967 175.902542,208.158691 171.948944,204.331253 
	C177.151260,204.331253 181.744583,203.921921 186.195206,204.540131 
	C187.888397,204.775330 190.627808,207.536179 190.469513,208.855469 
	C190.179947,211.269058 188.395432,213.758820 186.614212,215.624847 
	C185.784042,216.494522 183.504440,215.980576 181.675781,215.688385 
	C185.132172,214.644791 186.819260,212.306732 185.558533,208.951599 
	C185.004547,207.477295 182.600906,206.698029 180.067810,204.924576 
	C180.067810,210.138657 180.067810,213.569397 180.067810,217.000137 
z"/>
<path fill="#E8EAF3" opacity="1.000000" stroke="none" 
	d="
M133.346176,225.446564 
	C136.227600,222.125992 135.235306,220.025467 131.733353,218.299713 
	C134.591522,218.299713 137.449692,218.299713 140.766632,218.299713 
	C140.037506,220.932846 140.067886,225.046768 138.406174,225.912369 
	C135.299683,227.530609 131.051712,228.196854 127.562782,227.599548 
	C118.595741,226.064392 115.687439,221.797104 117.088066,212.988342 
	C118.000404,207.250549 123.528915,203.684235 129.252930,204.735168 
	C127.133049,206.707108 124.094421,208.350479 123.042572,210.834961 
	C121.924004,213.477020 121.923470,217.156448 122.802773,219.952744 
	C124.248589,224.550644 127.914772,226.743927 133.346176,225.446564 
z"/>
<path fill="#203B93" opacity="1.000000" stroke="none" 
	d="
M147.058502,189.447601 
	C158.133514,189.018829 169.268082,189.057190 180.398468,188.860107 
	C182.389175,188.824860 184.362610,187.815491 186.617584,187.110596 
	C190.191162,188.743256 188.740219,190.105896 186.330582,190.771271 
	C183.794968,191.471451 181.109192,191.901031 178.480972,191.942871 
	C169.672699,192.083191 160.858231,192.107880 152.052643,191.900864 
	C150.392029,191.861801 148.761200,190.555725 147.058502,189.447601 
z"/>
<path fill="#38519C" opacity="1.000000" stroke="none" 
	d="
M201.553589,218.022064 
	C201.236343,214.237640 201.236343,210.445938 201.236343,206.654221 
	C201.620575,206.266418 202.004807,205.878616 202.389038,205.490799 
	C204.082352,206.751892 206.832611,207.780472 207.175369,209.338638 
	C207.526901,210.936615 205.493713,213.038101 204.565079,214.948792 
	C204.177536,215.746155 203.947220,216.619949 203.709427,217.745529 
	C203.139221,218.026321 202.505020,218.020569 201.553589,218.022064 
z"/>
<path fill="#344D9A" opacity="1.000000" stroke="none" 
	d="
M180.261002,216.833466 
	C180.067810,213.569397 180.067810,210.138657 180.067810,204.924576 
	C182.600906,206.698029 185.004547,207.477295 185.558533,208.951599 
	C186.819260,212.306732 185.132172,214.644791 181.269226,215.569916 
	C180.863861,216.126816 180.659027,216.396805 180.261002,216.833466 
z"/>
<path fill="#E1E4EF" opacity="1.000000" stroke="none" 
	d="
M139.341324,206.771698 
	C138.755127,207.735001 137.858002,208.911255 137.679947,208.810928 
	C135.671448,207.679611 133.773315,206.352371 132.035873,204.259399 
	C134.478699,204.970169 136.921524,205.680954 139.341324,206.771698 
z"/>
<path fill="#203B93" opacity="1.000000" stroke="none" 
	d="
M143.358597,185.890152 
	C143.891388,186.570328 144.424194,187.250488 145.088196,188.157867 
	C144.608276,188.962677 143.997162,189.540283 143.386047,190.117889 
	C142.925659,189.000107 142.465271,187.882309 142.338821,186.356415 
	C142.901367,185.928909 143.129974,185.909531 143.358597,185.890152 
z"/>
<path fill="#0D2989" opacity="1.000000" stroke="none" 
	d="
M143.378845,185.561493 
	C143.129974,185.909531 142.901367,185.928909 142.330887,185.989517 
	C142.228668,185.482605 142.468307,184.934464 142.918854,184.168701 
	C143.219513,184.378342 143.309311,184.805588 143.378845,185.561493 
z"/>
<path fill="#233E95" opacity="1.000000" stroke="none" 
	d="
M165.928650,130.934296 
	C176.035843,131.275162 178.944000,135.642029 177.983582,148.744583 
	C169.639816,148.744583 161.266083,148.744583 152.908325,148.744583 
	C150.704025,136.680710 154.716660,131.043442 165.928650,130.934296 
z"/>
<path fill="#2C4599" opacity="1.000000" stroke="none" 
	d="
M169.555099,168.810455 
	C169.633957,171.748245 169.911011,174.347809 170.232590,177.365143 
	C166.880112,177.365143 163.739166,177.365143 161.190475,177.365143 
	C160.830246,173.379517 160.147919,169.715225 160.319046,166.091202 
	C160.405151,164.267593 161.627899,161.861237 163.101654,160.932907 
	C164.371826,160.132843 167.843399,160.418304 168.371170,161.345490 
	C169.505219,163.337799 169.369324,166.052994 169.555099,168.810455 
z"/>
<path fill="#284395" opacity="1.000000" stroke="none" 
	d="
M151.773849,213.145065 
	C152.497208,210.486862 149.938049,206.782074 154.289124,206.324295 
	C158.296478,205.902649 161.887695,206.754059 163.444687,211.357285 
	C166.330673,219.889801 161.614822,225.832321 151.773727,224.811264 
	C151.773727,221.144516 151.773727,217.381989 151.773849,213.145065 
z"/>
</svg>