<svg version="1.1" id="Layer_1" xmlns="http://www.w3.org/2000/svg" xmlns:xlink="http://www.w3.org/1999/xlink" x="0px" y="0px"
	 width="100%" viewBox="0 0 230 150" enable-background="new 0 0 230 150" xml:space="preserve">
<path fill="#000000" opacity="1.000000" stroke="none" 
	d="
M145.000000,151.000000 
	C96.698151,151.000000 48.896309,151.000000 1.047231,151.000000 
	C1.047231,101.064438 1.047231,51.128822 1.047231,1.096602 
	C77.551689,1.096602 154.103546,1.096602 230.827698,1.096602 
	C230.827698,50.999523 230.827698,100.999710 230.827698,151.000000 
	C202.462448,151.000000 173.981232,151.000000 145.000000,151.000000 
M44.560810,58.159546 
	C44.378952,58.195938 44.197098,58.232330 43.177631,58.156948 
	C41.770145,58.156387 40.362663,58.155827 38.266731,58.619003 
	C38.266731,63.220783 38.266731,67.822563 38.266731,73.128113 
	C33.640667,73.128113 29.863100,73.128113 25.533945,72.610374 
	C25.729885,69.830544 26.066986,67.052101 26.094488,64.270607 
	C26.168013,56.834087 25.998293,56.750072 18.295708,58.931202 
	C18.295708,71.102020 18.295708,83.343323 18.295708,95.543671 
	C26.049528,96.722168 27.193520,94.507622 25.737333,81.330269 
	C29.680727,81.330269 33.596512,81.330269 37.976044,81.330269 
	C37.976044,83.953293 38.206852,86.607140 37.926098,89.205711 
	C37.405178,94.027168 39.602192,95.583679 44.710876,95.229828 
	C44.982780,95.311050 45.336845,95.535713 45.506542,95.438515 
	C45.737514,95.306221 45.958721,94.928490 45.959408,94.655441 
	C45.986916,83.698967 46.016327,72.742279 45.955776,61.786121 
	C45.949085,60.575142 45.409588,59.367107 44.560810,58.159546 
M134.787643,103.941566 
	C144.025955,105.984787 139.584839,97.747032 141.256287,94.987770 
	C144.306580,94.987770 146.755829,95.109711 149.188812,94.962593 
	C154.390762,94.648041 160.125809,89.536888 160.947144,84.633087 
	C162.316635,76.456413 157.478134,68.928436 149.297485,66.507957 
	C142.804642,64.586868 137.077377,68.496841 133.225784,77.395157 
	C133.150635,82.552116 132.944672,87.711601 133.044495,92.865173 
	C133.115692,96.540787 133.597900,100.208427 134.787643,103.941566 
M156.005432,96.873253 
	C155.264069,100.492294 157.129715,103.080627 160.290268,103.413956 
	C162.036301,103.598114 164.451874,101.525398 165.852234,99.867493 
	C167.631500,97.760979 168.687531,95.043587 170.023209,92.647316 
	C180.307404,97.858101 189.050827,93.831062 192.135529,87.534157 
	C196.183990,79.269875 193.793259,73.091354 184.274155,67.752312 
	C180.509033,65.640541 181.822693,62.664665 182.834473,59.786552 
	C183.203934,58.735550 184.682312,57.630596 184.466324,56.903042 
	C183.881546,54.933014 183.095642,52.296623 181.575272,51.521412 
	C179.829559,50.631294 176.872543,50.827339 175.097504,51.777157 
	C174.064972,52.329674 173.465302,55.695969 174.136200,57.092010 
	C177.695145,64.497795 177.338989,65.803276 169.546326,68.892502 
	C168.596313,68.018417 167.659241,67.076294 166.640747,66.232445 
	C161.223495,61.744118 154.586197,58.692780 152.217285,50.951370 
	C151.085220,47.251888 146.545822,48.043945 143.782562,49.308258 
	C142.301422,49.985947 140.730408,53.568676 141.314651,54.938568 
	C142.211060,57.040390 144.751984,58.674564 146.927765,59.930851 
	C149.075790,61.171093 151.920059,61.270786 153.955307,62.626701 
	C157.609314,65.061066 160.984848,67.951836 164.256500,70.896591 
	C165.156174,71.706375 166.017303,73.702332 165.628113,74.610725 
	C163.488358,79.604958 164.361954,84.261909 167.070572,89.398994 
	C163.325195,91.745537 159.821930,93.940399 156.005432,96.873253 
M96.252220,94.317780 
	C104.012253,89.907669 106.919479,84.517952 104.557297,77.493919 
	C103.539955,74.468803 101.817245,70.508965 99.334305,69.405556 
	C94.890289,67.430649 89.627831,67.297440 84.189980,66.299408 
	C84.049263,64.408798 83.831230,61.479397 83.621956,58.667614 
	C79.262306,57.087189 77.771141,58.586018 77.986008,62.678200 
	C78.177849,66.332039 78.139603,70.008781 77.988586,73.666565 
	C77.853966,76.927116 76.731697,80.292534 77.256569,83.407585 
	C78.885902,93.077560 85.373650,96.833664 96.252220,94.317780 
M127.715462,76.997345 
	C124.586914,75.358513 121.607300,73.225029 118.286362,72.225204 
	C115.197746,71.295326 114.254280,69.345222 115.370850,67.183723 
	C115.992989,65.979340 118.823380,65.469475 120.654083,65.479431 
	C122.070381,65.487129 123.479645,66.788536 124.962273,67.550926 
	C126.486961,65.905235 127.810333,64.476845 130.100708,62.004704 
	C126.338760,60.383087 123.454468,58.512688 120.329834,57.929089 
	C114.590225,56.857075 108.734398,60.252243 107.976624,64.377441 
	C106.329567,73.343727 108.292641,76.944771 115.810303,79.235291 
	C117.318550,79.694832 118.912354,80.589127 119.926117,81.753593 
	C120.927689,82.904053 121.244621,84.650536 121.861893,86.135559 
	C119.527504,86.732391 117.177956,87.818420 114.864296,87.746689 
	C113.424980,87.702065 112.040001,85.905342 110.469795,84.779686 
	C109.151985,86.814140 108.095047,88.445862 107.086334,90.003120 
	C111.752678,96.327309 117.980316,97.428238 125.512184,93.434258 
	C130.223877,90.935753 131.216431,85.159637 127.715462,76.997345 
M67.081123,68.925713 
	C67.046097,73.748787 67.067451,78.573135 66.958107,83.394524 
	C66.871552,87.210915 64.077484,87.773560 61.099129,87.971489 
	C57.711399,88.196632 56.869553,86.314423 56.992554,83.290024 
	C57.154648,79.304489 57.080276,75.307159 57.032269,71.315796 
	C56.967594,65.938690 56.436184,65.571129 50.061520,66.791939 
	C50.061520,68.941612 50.069187,71.223999 50.059456,73.506325 
	C50.048820,76.001007 50.271496,78.527603 49.956524,80.984398 
	C48.931446,88.980026 52.344917,93.989281 60.272915,95.760223 
	C65.475449,96.922356 73.732643,91.033043 73.695023,85.940758 
	C73.654747,80.489227 73.301392,75.035416 72.913712,69.594780 
	C72.832306,68.452415 71.860924,66.371658 71.548347,66.417542 
	C70.034500,66.639771 68.605438,67.439606 67.081123,68.925713 
M203.688187,62.193645 
	C201.165451,62.402252 198.642731,62.610863 195.899490,62.837704 
	C195.899490,70.693283 195.646988,77.835236 195.977005,84.950172 
	C196.255997,90.965073 200.233215,95.043701 205.482010,95.915382 
	C209.099838,96.516205 209.887222,93.743179 210.583649,91.461075 
	C210.844498,90.606377 209.128006,88.128693 208.377029,88.155922 
	C204.503128,88.296356 203.226028,85.838928 203.111084,82.922310 
	C202.970932,79.365852 201.516357,75.222427 206.282303,72.892853 
	C207.806763,72.147697 208.701218,70.113632 210.408478,68.028702 
	C207.544708,67.843285 205.972916,67.741516 204.210663,67.627411 
	C204.066284,65.914146 203.942368,64.443756 203.688187,62.193645 
z"/>
<path fill="#FF7453" opacity="1.000000" stroke="none" 
	d="
M156.162048,96.504257 
	C159.821930,93.940399 163.325195,91.745537 167.070572,89.398994 
	C164.361954,84.261909 163.488358,79.604958 165.628113,74.610725 
	C166.017303,73.702332 165.156174,71.706375 164.256500,70.896591 
	C160.984848,67.951836 157.609314,65.061066 153.955307,62.626701 
	C151.920059,61.270786 149.075790,61.171093 146.927765,59.930851 
	C144.751984,58.674564 142.211060,57.040390 141.314651,54.938568 
	C140.730408,53.568676 142.301422,49.985947 143.782562,49.308258 
	C146.545822,48.043945 151.085220,47.251888 152.217285,50.951370 
	C154.586197,58.692780 161.223495,61.744118 166.640747,66.232445 
	C167.659241,67.076294 168.596313,68.018417 169.546326,68.892502 
	C177.338989,65.803276 177.695145,64.497795 174.136200,57.092010 
	C173.465302,55.695969 174.064972,52.329674 175.097504,51.777157 
	C176.872543,50.827339 179.829559,50.631294 181.575272,51.521412 
	C183.095642,52.296623 183.881546,54.933014 184.466324,56.903042 
	C184.682312,57.630596 183.203934,58.735550 182.834473,59.786552 
	C181.822693,62.664665 180.509033,65.640541 184.274155,67.752312 
	C193.793259,73.091354 196.183990,79.269875 192.135529,87.534157 
	C189.050827,93.831062 180.307404,97.858101 170.023209,92.647316 
	C168.687531,95.043587 167.631500,97.760979 165.852234,99.867493 
	C164.451874,101.525398 162.036301,103.598114 160.290268,103.413956 
	C157.129715,103.080627 155.264069,100.492294 156.162048,96.504257 
M182.286987,74.850853 
	C180.733246,74.581177 178.747910,73.587120 177.719818,74.199677 
	C175.848419,75.314682 173.767792,77.150375 173.181244,79.107056 
	C172.221863,82.307465 172.737061,86.077141 176.310883,87.501823 
	C178.055817,88.197433 181.126221,87.670303 182.625519,86.476738 
	C186.745239,83.197052 186.581268,79.767380 182.286987,74.850853 
z"/>
<path fill="#334D62" opacity="1.000000" stroke="none" 
	d="
M38.955177,58.155266 
	C40.362663,58.155827 41.770145,58.156387 43.735977,58.355606 
	C44.500252,58.727184 44.725391,58.869789 45.003685,59.450871 
	C45.007034,70.959991 44.976425,82.000328 44.764309,93.191498 
	C44.361343,93.568779 44.168083,93.817177 44.006134,94.285416 
	C44.009239,94.483315 44.047886,94.877266 44.047886,94.877266 
	C39.602192,95.583679 37.405178,94.027168 37.926098,89.205711 
	C38.206852,86.607140 37.976044,83.953293 37.976044,81.330269 
	C33.596512,81.330269 29.680727,81.330269 25.737333,81.330269 
	C27.193520,94.507622 26.049528,96.722168 18.295708,95.543671 
	C18.295708,83.343323 18.295708,71.102020 18.295708,58.931202 
	C25.998293,56.750072 26.168013,56.834087 26.094488,64.270607 
	C26.066986,67.052101 25.729885,69.830544 26.161869,73.059975 
	C29.247997,73.658211 31.710958,73.752731 34.163292,73.968201 
	C37.811756,74.288742 39.260952,72.662460 39.065525,69.046791 
	C38.869759,65.424873 38.979401,61.786457 38.955177,58.155266 
z"/>
<path fill="#304B5F" opacity="1.000000" stroke="none" 
	d="
M133.985641,76.961258 
	C137.077377,68.496841 142.804642,64.586868 149.297485,66.507957 
	C157.478134,68.928436 162.316635,76.456413 160.947144,84.633087 
	C160.125809,89.536888 154.390762,94.648041 149.188812,94.962593 
	C146.755829,95.109711 144.306580,94.987770 141.256287,94.987770 
	C139.584839,97.747032 144.025955,105.984787 134.374313,103.451035 
	C133.969208,94.294090 133.977417,85.627678 133.985641,76.961258 
M142.152481,76.835442 
	C141.816513,77.588203 141.036606,78.479614 141.220947,79.069878 
	C142.044891,81.708107 142.451752,85.573669 144.299637,86.547592 
	C147.360214,88.160637 150.998825,87.661308 153.666931,83.874329 
	C156.162659,80.332069 153.827896,78.039871 152.211533,76.153023 
	C149.383286,72.851494 145.785324,73.419167 142.152481,76.835442 
z"/>
<path fill="#324C61" opacity="1.000000" stroke="none" 
	d="
M95.955215,94.485046 
	C85.373650,96.833664 78.885902,93.077560 77.256569,83.407585 
	C76.731697,80.292534 77.853966,76.927116 77.988586,73.666565 
	C78.139603,70.008781 78.177849,66.332039 77.986008,62.678200 
	C77.771141,58.586018 79.262306,57.087189 83.621956,58.667614 
	C83.831230,61.479397 84.049263,64.408798 84.189980,66.299408 
	C89.627831,67.297440 94.890289,67.430649 99.334305,69.405556 
	C101.817245,70.508965 103.539955,74.468803 104.557297,77.493919 
	C106.919479,84.517952 104.012253,89.907669 95.955215,94.485046 
M86.453362,77.227333 
	C84.381401,80.656738 83.968765,84.247643 87.389122,86.786140 
	C90.762230,89.289558 94.331726,88.285805 97.074493,85.236404 
	C99.314323,82.746178 99.523293,80.159744 96.954971,77.528313 
	C93.808647,74.304657 90.701958,72.629883 86.453362,77.227333 
z"/>
<path fill="#324C61" opacity="1.000000" stroke="none" 
	d="
M127.975677,77.290588 
	C131.216431,85.159637 130.223877,90.935753 125.512184,93.434258 
	C117.980316,97.428238 111.752678,96.327309 107.086334,90.003120 
	C108.095047,88.445862 109.151985,86.814140 110.469795,84.779686 
	C112.040001,85.905342 113.424980,87.702065 114.864296,87.746689 
	C117.177956,87.818420 119.527504,86.732391 121.861893,86.135559 
	C121.244621,84.650536 120.927689,82.904053 119.926117,81.753593 
	C118.912354,80.589127 117.318550,79.694832 115.810303,79.235291 
	C108.292641,76.944771 106.329567,73.343727 107.976624,64.377441 
	C108.734398,60.252243 114.590225,56.857075 120.329834,57.929089 
	C123.454468,58.512688 126.338760,60.383087 130.100708,62.004704 
	C127.810333,64.476845 126.486961,65.905235 124.962273,67.550926 
	C123.479645,66.788536 122.070381,65.487129 120.654083,65.479431 
	C118.823380,65.469475 115.992989,65.979340 115.370850,67.183723 
	C114.254280,69.345222 115.197746,71.295326 118.286362,72.225204 
	C121.607300,73.225029 124.586914,75.358513 127.975677,77.290588 
z"/>
<path fill="#304A5F" opacity="1.000000" stroke="none" 
	d="
M67.113724,68.480225 
	C68.605438,67.439606 70.034500,66.639771 71.548347,66.417542 
	C71.860924,66.371658 72.832306,68.452415 72.913712,69.594780 
	C73.301392,75.035416 73.654747,80.489227 73.695023,85.940758 
	C73.732643,91.033043 65.475449,96.922356 60.272915,95.760223 
	C52.344917,93.989281 48.931446,88.980026 49.956524,80.984398 
	C50.271496,78.527603 50.048820,76.001007 50.059456,73.506325 
	C50.069187,71.223999 50.061520,68.941612 50.061520,66.791939 
	C56.436184,65.571129 56.967594,65.938690 57.032269,71.315796 
	C57.080276,75.307159 57.154648,79.304489 56.992554,83.290024 
	C56.869553,86.314423 57.711399,88.196632 61.099129,87.971489 
	C64.077484,87.773560 66.871552,87.210915 66.958107,83.394524 
	C67.067451,78.573135 67.046097,73.748787 67.113724,68.480225 
z"/>
<path fill="#364F64" opacity="1.000000" stroke="none" 
	d="
M203.753326,62.583504 
	C203.942368,64.443756 204.066284,65.914146 204.210663,67.627411 
	C205.972916,67.741516 207.544708,67.843285 210.408478,68.028702 
	C208.701218,70.113632 207.806763,72.147697 206.282303,72.892853 
	C201.516357,75.222427 202.970932,79.365852 203.111084,82.922310 
	C203.226028,85.838928 204.503128,88.296356 208.377029,88.155922 
	C209.128006,88.128693 210.844498,90.606377 210.583649,91.461075 
	C209.887222,93.743179 209.099838,96.516205 205.482010,95.915382 
	C200.233215,95.043701 196.255997,90.965073 195.977005,84.950172 
	C195.646988,77.835236 195.899490,70.693283 195.899490,62.837704 
	C198.642731,62.610863 201.165451,62.402252 203.753326,62.583504 
z"/>
<path fill="#6A7E8D" opacity="1.000000" stroke="none" 
	d="
M44.945820,93.040665 
	C44.976425,82.000328 45.007034,70.959991 45.047543,59.246056 
	C45.057446,58.572456 45.117195,58.157707 45.117195,58.157707 
	C45.409588,59.367107 45.949085,60.575142 45.955776,61.786121 
	C46.016327,72.742279 45.986916,83.698967 45.959408,94.655441 
	C45.958721,94.928490 45.737514,95.306221 45.506542,95.438515 
	C45.336845,95.535713 44.982780,95.311050 44.379379,95.053543 
	C44.047886,94.877266 44.009239,94.483315 44.214462,94.157913 
	C44.713951,93.647537 44.889328,93.383591 44.945820,93.040665 
z"/>
<path fill="#4D6375" opacity="1.000000" stroke="none" 
	d="
M38.610954,58.387138 
	C38.979401,61.786457 38.869759,65.424873 39.065525,69.046791 
	C39.260952,72.662460 37.811756,74.288742 34.163292,73.968201 
	C31.710958,73.752731 29.247997,73.658211 26.437660,73.318848 
	C29.863100,73.128113 33.640667,73.128113 38.266731,73.128113 
	C38.266731,67.822563 38.266731,63.220783 38.610954,58.387138 
z"/>
<path fill="#B0BAC2" opacity="1.000000" stroke="none" 
	d="
M133.605713,77.178207 
	C133.977417,85.627678 133.969208,94.294090 133.928833,103.420074 
	C133.597900,100.208427 133.115692,96.540787 133.044495,92.865173 
	C132.944672,87.711601 133.150635,82.552116 133.605713,77.178207 
z"/>
<path fill="#244056" opacity="1.000000" stroke="none" 
	d="
M44.839005,58.158627 
	C45.117195,58.157707 45.057446,58.572456 45.013588,58.777271 
	C44.725391,58.869789 44.500252,58.727184 44.154778,58.411495 
	C44.197098,58.232330 44.378952,58.195938 44.839005,58.158627 
z"/>
<path fill="#000000" opacity="1.000000" stroke="none" 
	d="
M182.579285,75.111740 
	C186.581268,79.767380 186.745239,83.197052 182.625519,86.476738 
	C181.126221,87.670303 178.055817,88.197433 176.310883,87.501823 
	C172.737061,86.077141 172.221863,82.307465 173.181244,79.107056 
	C173.767792,77.150375 175.848419,75.314682 177.719818,74.199677 
	C178.747910,73.587120 180.733246,74.581177 182.579285,75.111740 
z"/>
<path fill="#244056" opacity="1.000000" stroke="none" 
	d="
M44.764309,93.191498 
	C44.889328,93.383591 44.713951,93.647537 44.211357,93.960007 
	C44.168083,93.817177 44.361343,93.568779 44.764309,93.191498 
z"/>
<path fill="#000000" opacity="1.000000" stroke="none" 
	d="
M142.352219,76.492798 
	C145.785324,73.419167 149.383286,72.851494 152.211533,76.153023 
	C153.827896,78.039871 156.162659,80.332069 153.666931,83.874329 
	C150.998825,87.661308 147.360214,88.160637 144.299637,86.547592 
	C142.451752,85.573669 142.044891,81.708107 141.220947,79.069878 
	C141.036606,78.479614 141.816513,77.588203 142.352219,76.492798 
z"/>
<path fill="#000000" opacity="1.000000" stroke="none" 
	d="
M86.743271,76.970673 
	C90.701958,72.629883 93.808647,74.304657 96.954971,77.528313 
	C99.523293,80.159744 99.314323,82.746178 97.074493,85.236404 
	C94.331726,88.285805 90.762230,89.289558 87.389122,86.786140 
	C83.968765,84.247643 84.381401,80.656738 86.743271,76.970673 
z"/>
</svg>