<svg version="1.1" id="Layer_1" xmlns="http://www.w3.org/2000/svg" xmlns:xlink="http://www.w3.org/1999/xlink" x="0px" y="0px"
	 width="100%" viewBox="0 0 121 117" enable-background="new 0 0 121 117" xml:space="preserve">
<path fill="#FFFFFF" opacity="1.000000" stroke="none" 
	d="
M89.000000,118.000000 
	C59.333332,118.000000 30.166666,118.000000 1.000000,118.000000 
	C1.000000,79.000000 1.000000,40.000000 1.000000,1.000000 
	C41.333332,1.000000 81.666664,1.000000 122.000000,1.000000 
	C122.000000,40.000000 122.000000,79.000000 122.000000,118.000000 
	C111.166664,118.000000 100.333336,118.000000 89.000000,118.000000 
M78.393234,79.888664 
	C79.059448,79.888672 79.725670,79.889275 80.391884,79.888573 
	C87.603081,79.880966 87.606094,79.880913 87.607925,72.744804 
	C87.610611,62.251869 87.484146,51.756699 87.672348,41.267143 
	C87.743210,37.317680 86.261650,36.020554 82.399498,36.053181 
	C66.078323,36.191059 49.754536,36.197941 33.433479,36.052830 
	C29.195414,36.015148 27.980846,37.779072 28.048473,41.770164 
	C28.231859,52.593105 28.275106,63.424858 28.032953,74.245483 
	C27.932304,78.742973 29.743021,79.998322 33.949657,79.951126 
	C48.438080,79.788597 62.929447,79.888626 78.393234,79.888664 
z"/>
<path fill="#432C7C" opacity="1.000000" stroke="none" 
	d="
M77.906464,79.888657 
	C62.929447,79.888626 48.438080,79.788597 33.949657,79.951126 
	C29.743021,79.998322 27.932304,78.742973 28.032953,74.245483 
	C28.275106,63.424858 28.231859,52.593105 28.048473,41.770164 
	C27.980846,37.779072 29.195414,36.015148 33.433479,36.052830 
	C49.754536,36.197941 66.078323,36.191059 82.399498,36.053181 
	C86.261650,36.020554 87.743210,37.317680 87.672348,41.267143 
	C87.484146,51.756699 87.610611,62.251869 87.607925,72.744804 
	C87.606094,79.880913 87.603081,79.880966 80.391884,79.888573 
	C79.725670,79.889275 79.059448,79.888672 77.906464,79.888657 
M81.284760,40.903542 
	C65.347427,40.903542 49.410095,40.903542 33.258026,40.903542 
	C33.258026,52.407494 33.258026,63.472836 33.258026,74.706749 
	C49.866962,74.706749 66.254478,74.706749 82.602829,74.706749 
	C82.602829,72.558159 82.602829,70.673027 82.602829,68.772751 
	C81.585442,68.701538 80.922882,68.615303 80.260246,68.614708 
	C68.769707,68.604355 57.277340,68.701958 45.790741,68.487915 
	C44.228611,68.458801 42.695320,66.882095 41.148678,66.021942 
	C42.635677,65.335594 44.104954,64.105782 45.612728,64.056625 
	C52.266846,63.839672 58.932049,63.962727 65.593239,63.962688 
	C71.344315,63.962654 77.095390,63.962685 83.326385,63.962685 
	C82.941551,55.823086 82.591644,48.422062 81.284760,40.903542 
z"/>
<path fill="#FEFEFE" opacity="1.000000" stroke="none" 
	d="
M81.763245,40.962292 
	C82.591644,48.422062 82.941551,55.823086 83.326385,63.962685 
	C77.095390,63.962685 71.344315,63.962654 65.593239,63.962688 
	C58.932049,63.962727 52.266846,63.839672 45.612728,64.056625 
	C44.104954,64.105782 42.635677,65.335594 41.148678,66.021942 
	C42.695320,66.882095 44.228611,68.458801 45.790741,68.487915 
	C57.277340,68.701958 68.769707,68.604355 80.260246,68.614708 
	C80.922882,68.615303 81.585442,68.701538 82.602829,68.772751 
	C82.602829,70.673027 82.602829,72.558159 82.602829,74.706749 
	C66.254478,74.706749 49.866962,74.706749 33.258026,74.706749 
	C33.258026,63.472836 33.258026,52.407494 33.258026,40.903542 
	C49.410095,40.903542 65.347427,40.903542 81.763245,40.962292 
M59.632195,46.823589 
	C57.246380,46.480804 54.865158,46.099880 52.472748,45.811882 
	C51.335682,45.675007 50.155075,45.554050 49.033157,45.708649 
	C46.648968,46.037189 43.711124,45.870998 42.122265,47.224621 
	C41.041019,48.145790 40.982861,52.238182 42.043385,53.234093 
	C43.575493,54.672867 46.516945,54.698112 48.894543,55.110535 
	C49.996277,55.301643 51.187626,54.996925 52.336174,54.892979 
	C54.626431,54.685703 57.662518,55.260025 58.990711,54.016441 
	C60.274231,52.814686 59.797203,49.732597 59.632195,46.823589 
z"/>
<path fill="#392174" opacity="1.000000" stroke="none" 
	d="
M59.862862,47.150032 
	C59.797203,49.732597 60.274231,52.814686 58.990711,54.016441 
	C57.662518,55.260025 54.626431,54.685703 52.336174,54.892979 
	C51.187626,54.996925 49.996277,55.301643 48.894543,55.110535 
	C46.516945,54.698112 43.575493,54.672867 42.043385,53.234093 
	C40.982861,52.238182 41.041019,48.145790 42.122265,47.224621 
	C43.711124,45.870998 46.648968,46.037189 49.033157,45.708649 
	C50.155075,45.554050 51.335682,45.675007 52.472748,45.811882 
	C54.865158,46.099880 57.246380,46.480804 59.862862,47.150032 
z"/>
</svg>