<svg version="1.1" id="Layer_1" xmlns="http://www.w3.org/2000/svg" xmlns:xlink="http://www.w3.org/1999/xlink" x="0px" y="0px"
	 width="100%" viewBox="0 0 656 369" enable-background="new 0 0 656 369" xml:space="preserve">
<path fill="#000000" opacity="1.000000" stroke="none" 
	d="
M378.000000,370.000000 
	C252.030594,370.000000 126.561172,370.000000 1.045881,370.000000 
	C1.045881,247.060577 1.045881,124.121140 1.045881,1.090848 
	C219.552780,1.090848 438.105621,1.090848 656.829224,1.090848 
	C656.829224,123.999817 656.829224,246.999878 656.829224,370.000000 
	C564.121094,370.000000 471.310547,370.000000 378.000000,370.000000 
M515.011597,222.989227 
	C515.011597,222.989227 515.077820,222.972275 515.016968,222.295364 
	C514.022644,221.163315 513.028381,220.031265 511.757629,218.246338 
	C510.477448,215.711700 509.197266,213.177048 507.703430,210.219345 
	C510.870331,210.071503 513.450745,209.951050 516.958069,209.969025 
	C539.295166,209.922791 561.632202,209.876541 584.817932,209.970078 
	C589.116150,210.881256 591.451172,208.937637 591.605042,204.756027 
	C591.799194,199.479782 592.180481,194.106125 591.449646,188.919846 
	C589.322510,173.824890 584.523926,160.013916 573.127014,148.851685 
	C560.513550,136.497894 544.894104,133.106857 528.503662,133.554703 
	C520.414307,133.775726 511.955688,136.925476 504.540527,140.545349 
	C497.725128,143.872467 491.342010,148.903824 486.096985,154.442490 
	C477.644684,163.367981 473.358887,174.480286 471.785828,186.893295 
	C469.930450,201.534027 470.940186,215.623734 477.074341,229.070190 
	C482.213287,240.335159 489.953033,249.442062 500.952209,255.553009 
	C518.537598,265.323090 537.261963,266.895630 556.573669,262.908630 
	C568.622192,260.421143 579.297363,254.709259 589.212463,247.315140 
	C585.757141,240.498856 582.520935,233.963669 579.140198,227.504059 
	C577.209961,223.815857 575.226379,221.353699 570.345459,224.628998 
	C566.125732,227.460648 561.139587,229.798752 556.185730,230.737091 
	C548.584717,232.176865 540.720825,232.228699 532.662231,232.221100 
	C531.332581,231.851425 530.002930,231.481735 528.514038,230.993774 
	C528.514038,230.993774 528.322815,231.046356 527.903931,230.413010 
	C526.932556,230.249634 525.961121,230.086258 525.010986,229.990768 
	C525.010986,229.990768 525.077271,229.965012 524.826416,229.300003 
	C522.557983,228.173111 520.289551,227.046219 518.012207,225.987610 
	C518.012207,225.987610 518.079773,225.973999 518.009827,225.268021 
	C517.015747,224.486267 516.021606,223.704514 515.011597,222.989227 
M314.981903,259.070648 
	C314.933350,246.712753 314.884796,234.354874 314.969025,221.068436 
	C314.924133,200.047287 314.879272,179.026154 314.986847,157.078079 
	C314.991669,131.387543 315.025970,105.696877 314.918549,80.006805 
	C314.912872,78.651855 313.706787,77.301910 313.014160,76.012955 
	C313.014160,76.012955 313.089294,75.990585 312.690399,75.196907 
	C301.742889,75.132698 290.795380,75.050774 279.847870,75.047707 
	C279.181702,75.047523 278.515320,75.672981 277.526520,75.979141 
	C277.526520,75.979141 277.234314,76.118629 276.605713,76.073273 
	C276.454895,76.414780 276.304077,76.756287 276.015076,77.732368 
	C276.065826,78.159760 276.116577,78.587151 276.031982,79.942734 
	C276.021729,135.663681 276.007141,191.384613 276.009125,247.105560 
	C276.009308,251.758774 276.121216,256.411987 276.049194,261.849915 
	C276.631592,262.577759 277.167786,263.882935 277.804321,263.933807 
	C280.600403,264.157379 283.425476,264.012756 286.240021,264.011963 
	C295.787659,264.009247 305.335327,264.010925 315.017151,264.010925 
	C314.940491,262.294769 314.889160,261.145752 314.981903,259.070648 
M240.671005,75.178879 
	C229.075668,75.120468 217.480316,75.045738 205.884979,75.046539 
	C205.229248,75.046585 204.573547,75.666702 203.995804,75.998665 
	C203.995804,75.998665 203.935547,75.949181 203.066467,76.010445 
	C202.710663,77.642586 202.045395,79.274422 202.043777,80.906914 
	C201.984909,140.367538 201.987747,199.828247 201.982101,259.288940 
	C201.981964,260.744232 201.982086,262.199554 201.982086,263.881775 
	C205.036255,263.881775 207.655151,263.881775 210.544922,264.021515 
	C210.544922,264.021515 210.845993,263.973938 211.265945,264.767365 
	C220.274353,264.842468 229.282730,264.940125 238.291183,264.945862 
	C238.946762,264.946289 239.602768,264.279602 240.436279,264.037354 
	C240.436279,264.037354 240.604675,263.909729 241.324829,263.954987 
	C241.500275,263.571838 241.675720,263.188721 241.982864,262.193024 
	C241.931168,261.781006 241.879456,261.368988 241.958450,260.033691 
	C241.974075,199.854568 241.994919,139.675430 241.967361,79.496323 
	C241.966812,78.315125 241.398285,77.134186 240.671005,75.178879 
M332.877319,220.961411 
	C333.089966,221.737503 333.152893,222.598404 333.537292,223.277252 
	C341.902557,238.049088 354.129425,248.300003 369.879364,254.544907 
	C371.738312,255.281998 374.275879,256.955597 374.564117,258.545746 
	C375.788513,265.300812 376.283752,272.188080 377.109161,279.600647 
	C379.696106,278.914093 381.773193,278.796997 383.378876,277.866516 
	C394.059357,271.677185 404.746948,265.486786 415.218048,258.953491 
	C423.941467,253.510635 432.372406,247.599014 441.596008,241.771698 
	C446.439911,235.820648 451.991943,230.304138 455.969818,223.821671 
	C462.767761,212.743546 464.358429,200.282974 464.120422,187.305511 
	C463.719910,165.469620 454.042755,148.654770 437.550751,135.300079 
	C433.483276,132.006363 428.785004,129.413879 424.156311,126.905838 
	C411.754395,120.185936 398.179840,120.463196 384.703522,121.160294 
	C381.387543,121.331818 378.177795,123.557152 374.253052,124.681282 
	C369.864471,126.441429 365.263031,127.806129 361.125580,130.032867 
	C346.309967,138.006409 336.015472,149.865814 329.726868,165.663345 
	C325.796692,175.536285 326.017731,185.522858 325.962189,195.671844 
	C325.913757,204.517822 328.613190,212.577698 332.877319,220.961411 
M57.962303,195.764328 
	C58.032711,200.472748 58.103115,205.181168 58.041161,210.644669 
	C58.654572,212.307709 59.567589,213.924545 59.832314,215.641357 
	C61.439461,226.064041 64.406509,236.065536 71.122047,244.303467 
	C77.470604,252.091248 85.031372,258.812225 94.333336,262.976837 
	C108.178818,269.175629 122.978661,268.337830 137.613632,267.857605 
	C141.586609,267.727264 145.697525,266.601105 149.421738,265.119232 
	C158.520752,261.498718 167.430679,257.403015 177.329880,253.101852 
	C171.319794,243.326324 168.904785,233.040588 162.319641,226.590805 
	C158.413300,228.188965 155.337845,228.765121 153.134125,230.468826 
	C144.377975,237.238190 133.765549,236.745895 124.043518,236.598007 
	C110.584328,236.393265 100.877167,228.354813 95.092278,215.119415 
	C96.707779,214.746490 98.322403,214.053101 99.938896,214.048706 
	C123.993195,213.983185 148.047791,214.028854 172.102127,213.969910 
	C173.788712,213.965775 175.473770,213.347290 177.865128,212.634949 
	C178.249161,211.768875 179.014542,210.877182 178.958313,210.040680 
	C178.386230,201.527283 178.234543,192.933960 176.887573,184.535858 
	C174.622528,170.413605 167.491104,158.606583 156.318115,149.856552 
	C137.965286,135.483673 116.949425,134.292191 95.994720,141.824280 
	C77.397629,148.508942 65.811348,163.018402 60.471729,182.139542 
	C59.321472,186.258606 58.899200,190.580978 57.962303,195.764328 
z"/>
<path fill="#F26727" opacity="1.000000" stroke="none" 
	d="
M528.322815,231.046356 
	C528.322815,231.046356 528.514038,230.993774 528.806458,231.342407 
	C530.388733,232.083893 531.678650,232.476730 532.968506,232.869568 
	C540.720825,232.228699 548.584717,232.176865 556.185730,230.737091 
	C561.139587,229.798752 566.125732,227.460648 570.345459,224.628998 
	C575.226379,221.353699 577.209961,223.815857 579.140198,227.504059 
	C582.520935,233.963669 585.757141,240.498856 589.212463,247.315140 
	C579.297363,254.709259 568.622192,260.421143 556.573669,262.908630 
	C537.261963,266.895630 518.537598,265.323090 500.952209,255.553009 
	C489.953033,249.442062 482.213287,240.335159 477.074341,229.070190 
	C470.940186,215.623734 469.930450,201.534027 471.785828,186.893295 
	C473.358887,174.480286 477.644684,163.367981 486.096985,154.442490 
	C491.342010,148.903824 497.725128,143.872467 504.540527,140.545349 
	C511.955688,136.925476 520.414307,133.775726 528.503662,133.554703 
	C544.894104,133.106857 560.513550,136.497894 573.127014,148.851685 
	C584.523926,160.013916 589.322510,173.824890 591.449646,188.919846 
	C592.180481,194.106125 591.799194,199.479782 591.605042,204.756027 
	C591.451172,208.937637 589.116150,210.881256 584.088867,209.616699 
	C561.497559,209.190125 539.635376,209.110794 517.773132,209.076874 
	C517.192871,209.075974 516.611877,209.568268 516.031189,209.830566 
	C513.450745,209.951050 510.870331,210.071503 507.703430,210.219345 
	C509.197266,213.177048 510.477448,215.711700 511.889404,218.943405 
	C513.040039,220.751068 514.058960,221.861679 515.077820,222.972275 
	C515.077820,222.972275 515.011597,222.989227 515.025940,223.306152 
	C516.053467,224.406708 517.066589,225.190353 518.079773,225.973999 
	C518.079773,225.973999 518.012207,225.987610 518.048706,226.305801 
	C520.415955,227.737656 522.746582,228.851334 525.077271,229.965012 
	C525.077271,229.965012 525.010986,229.990768 525.204590,230.269562 
	C526.373047,230.714340 527.347900,230.880341 528.322815,231.046356 
M547.992798,167.016052 
	C547.992798,167.016052 547.973511,167.081421 547.970459,166.350266 
	C546.623047,165.578720 545.275635,164.807175 543.988892,164.006393 
	C543.988892,164.006393 544.001709,164.072510 543.704834,163.507889 
	C543.106873,163.355835 542.508850,163.203766 541.054260,163.008835 
	C540.226013,163.003967 539.350525,163.175034 538.576660,162.967499 
	C529.167603,160.443848 521.215088,163.226135 515.269226,170.496536 
	C512.117432,174.350433 510.369659,179.352524 508.238098,184.701660 
	C524.019775,184.821213 539.801453,184.950165 555.583374,185.012344 
	C556.030273,185.014114 556.479858,184.304184 556.771362,183.297241 
	C555.866760,180.641327 554.962158,177.985428 554.135071,174.533447 
	C552.728821,172.698563 551.322510,170.863678 549.982605,169.009277 
	C549.982605,169.009277 549.971497,169.077576 549.953674,168.395676 
	C549.277527,167.938675 548.601379,167.481659 547.992798,167.016052 
z"/>
<path fill="#F26727" opacity="1.000000" stroke="none" 
	d="
M95.158051,215.980545 
	C100.877167,228.354813 110.584328,236.393265 124.043518,236.598007 
	C133.765549,236.745895 144.377975,237.238190 153.134125,230.468826 
	C155.337845,228.765121 158.413300,228.188965 162.319641,226.590805 
	C168.904785,233.040588 171.319794,243.326324 177.329880,253.101852 
	C167.430679,257.403015 158.520752,261.498718 149.421738,265.119232 
	C145.697525,266.601105 141.586609,267.727264 137.613632,267.857605 
	C122.978661,268.337830 108.178818,269.175629 94.333336,262.976837 
	C85.031372,258.812225 77.470604,252.091248 71.122047,244.303467 
	C64.406509,236.065536 61.439461,226.064041 59.832314,215.641357 
	C59.567589,213.924545 58.654572,212.307709 58.477337,210.162277 
	C60.314323,204.637085 61.395969,199.610840 58.141594,194.809692 
	C58.899200,190.580978 59.321472,186.258606 60.471729,182.139542 
	C65.811348,163.018402 77.397629,148.508942 95.994720,141.824280 
	C116.949425,134.292191 137.965286,135.483673 156.318115,149.856552 
	C167.491104,158.606583 174.622528,170.413605 176.887573,184.535858 
	C178.234543,192.933960 178.386230,201.527283 178.958313,210.040680 
	C179.014542,210.877182 178.249161,211.768875 177.078720,212.802002 
	C173.171570,212.651947 170.046616,212.027405 166.930801,212.070114 
	C152.228638,212.271576 137.530106,212.729660 122.828064,212.948212 
	C113.339493,213.089279 103.847115,212.974731 93.757111,212.974731 
	C94.293831,214.126297 94.725945,215.053421 95.158051,215.980545 
M142.213379,183.635895 
	C137.919678,168.007767 124.494087,164.590897 112.632629,167.309555 
	C102.325264,169.672012 99.337868,179.316284 95.106331,187.442581 
	C94.962082,187.719589 95.639099,188.424240 96.707657,189.264832 
	C111.439415,189.375809 126.171127,189.520828 140.902985,189.537262 
	C142.169876,189.538681 143.437729,188.687485 144.705124,188.232361 
	C144.081207,186.820602 143.457275,185.408859 142.213379,183.635895 
z"/>
<path fill="#F36523" opacity="1.000000" stroke="none" 
	d="
M210.845993,263.973938 
	C210.845993,263.973938 210.544922,264.021515 210.083588,263.685608 
	C207.878418,263.024231 206.134598,262.698792 203.970413,262.294891 
	C203.970413,260.089355 203.970734,258.124878 203.970352,256.160431 
	C203.958786,196.090012 203.947174,136.019592 203.935547,75.949181 
	C203.935547,75.949181 203.995804,75.998665 204.427658,76.057686 
	C216.557556,76.176781 228.255600,76.236855 240.037872,76.689224 
	C240.409943,79.366859 240.947403,81.652008 240.949158,83.937576 
	C240.993179,140.843018 240.971542,197.748505 241.013947,254.653961 
	C241.015503,256.755157 241.544525,258.855988 241.827744,260.956970 
	C241.879456,261.368988 241.931168,261.781006 241.670074,262.636353 
	C241.106415,263.356354 240.855545,263.633057 240.604675,263.909729 
	C240.604675,263.909729 240.436279,264.037354 239.865021,263.901886 
	C229.811172,263.835602 220.328583,263.904785 210.845993,263.973938 
z"/>
<path fill="#F36524" opacity="1.000000" stroke="none" 
	d="
M276.167358,79.014534 
	C276.116577,78.587151 276.065826,78.159760 276.296631,77.290092 
	C276.855286,76.657265 277.073975,76.414200 277.234314,76.118629 
	C277.234314,76.118629 277.526520,75.979141 278.161316,76.067757 
	C290.227203,76.101112 301.658234,76.045853 313.089294,75.990585 
	C313.089294,75.990585 313.014160,76.012955 313.053009,76.401642 
	C313.383728,78.911926 313.923584,81.032829 313.929626,83.155251 
	C314.000793,108.104492 313.991974,133.053970 313.991760,158.471573 
	C313.985474,179.959854 313.991638,200.979919 313.976257,222.468277 
	C313.966827,235.289810 313.978882,247.643082 313.952209,260.402069 
	C312.838837,261.511108 311.773804,262.807831 310.688080,262.825409 
	C300.445892,262.991394 290.199524,262.991516 279.956451,262.868561 
	C278.940765,262.856384 277.938660,261.708466 276.949677,260.613892 
	C276.977356,201.197723 276.991455,142.255356 276.959290,83.312996 
	C276.958496,81.880035 276.442871,80.447350 276.167358,79.014534 
z"/>
<path fill="#663191" opacity="1.000000" stroke="none" 
	d="
M374.919189,124.838303 
	C378.177795,123.557152 381.387543,121.331818 384.703522,121.160294 
	C398.179840,120.463196 411.754395,120.185936 424.156311,126.905838 
	C428.785004,129.413879 433.483276,132.006363 437.550751,135.300079 
	C454.042755,148.654770 463.719910,165.469620 464.120422,187.305511 
	C464.358429,200.282974 462.767761,212.743546 455.969818,223.821671 
	C451.991943,230.304138 446.439911,235.820648 441.122009,241.518921 
	C439.878601,239.650116 438.950531,238.089249 438.366089,236.408875 
	C435.184479,227.261185 432.087555,218.084045 428.948914,208.600433 
	C428.302582,207.890732 427.668793,207.497604 427.081482,206.731003 
	C431.315430,198.089340 432.630066,189.244919 429.744507,180.554031 
	C425.364838,167.363190 418.027466,156.665436 402.874329,153.864334 
	C393.495514,152.130615 384.637207,153.017426 375.957092,156.890320 
	C375.550476,154.538147 375.123596,152.593704 375.096039,150.643631 
	C374.974304,142.042740 374.967590,133.440231 374.919189,124.838303 
z"/>
<path fill="#25B24F" opacity="1.000000" stroke="none" 
	d="
M428.961456,208.917053 
	C432.087555,218.084045 435.184479,227.261185 438.366089,236.408875 
	C438.950531,238.089249 439.878601,239.650116 440.790466,241.580566 
	C432.372406,247.599014 423.941467,253.510635 415.218048,258.953491 
	C404.746948,265.486786 394.059357,271.677185 383.378876,277.866516 
	C381.773193,278.796997 379.696106,278.914093 377.109161,279.600647 
	C376.283752,272.188080 375.788513,265.300812 374.564117,258.545746 
	C374.275879,256.955597 371.738312,255.281998 369.879364,254.544907 
	C354.129425,248.300003 341.902557,238.049088 333.537292,223.277252 
	C333.152893,222.598404 333.089966,221.737503 333.327698,220.524139 
	C340.579193,220.010849 347.392365,220.154953 354.177277,219.783112 
	C358.868378,219.526031 363.520416,218.556534 368.498413,218.063263 
	C372.467102,220.503815 376.127258,222.786469 379.957581,225.339401 
	C380.523743,225.744980 380.919708,225.880295 381.460144,225.998199 
	C381.604645,225.980820 381.870483,226.099274 382.128601,226.369049 
	C383.363129,226.764008 384.339600,226.889175 385.445862,226.991302 
	C385.575714,226.968246 385.814575,227.080063 386.085571,227.371674 
	C387.450562,227.990875 388.527008,228.515045 389.641296,228.614136 
	C396.959717,229.264999 404.163116,229.269089 410.323944,224.025391 
	C410.443237,223.969864 410.703247,224.010361 411.001343,223.940735 
	C411.597198,223.606995 411.894958,223.342850 412.300415,223.021393 
	C412.408142,222.964050 412.646759,223.015350 412.955750,222.949417 
	C413.504608,222.568146 413.744476,222.252792 413.989258,221.967987 
	C413.994202,221.998550 413.937347,221.974106 414.203430,221.933655 
	C414.698792,221.625626 414.928131,221.358047 415.283081,221.032532 
	C415.408722,220.974594 415.682617,221.013931 415.987122,220.950058 
	C416.518646,220.569992 416.745667,220.253799 416.981262,219.969147 
	C416.989868,220.000671 416.938599,219.960068 417.234253,219.951141 
	C417.675415,219.605347 417.820862,219.268448 417.984192,218.960754 
	C418.002075,218.989975 417.941437,218.958221 418.312012,218.999023 
	C422.742737,217.854492 424.567596,214.940674 424.973450,210.952911 
	C424.985718,210.985687 424.916321,210.976456 425.248627,210.944031 
	C426.707794,210.246765 427.834625,209.581909 428.961456,208.917053 
z"/>
<path fill="#2070C1" opacity="1.000000" stroke="none" 
	d="
M368.189911,217.905396 
	C363.520416,218.556534 358.868378,219.526031 354.177277,219.783112 
	C347.392365,220.154953 340.579193,220.010849 333.304443,220.154053 
	C328.613190,212.577698 325.913757,204.517822 325.962189,195.671844 
	C326.017731,185.522858 325.796692,175.536285 329.726868,165.663345 
	C336.015472,149.865814 346.309967,138.006409 361.125580,130.032867 
	C365.263031,127.806129 369.864471,126.441429 374.586121,124.759796 
	C374.967590,133.440231 374.974304,142.042740 375.096039,150.643631 
	C375.123596,152.593704 375.550476,154.538147 375.753571,157.160278 
	C368.623596,161.897095 362.233887,166.701797 359.206604,174.677109 
	C358.299683,177.066345 357.992554,179.691452 357.488403,182.223984 
	C355.378082,192.824890 356.616974,202.679367 363.791473,211.308929 
	C365.471619,213.329819 366.734863,215.697342 368.189911,217.905396 
z"/>
<path fill="#EC8D5E" opacity="1.000000" stroke="none" 
	d="
M203.501007,75.979813 
	C203.947174,136.019592 203.958786,196.090012 203.970352,256.160431 
	C203.970734,258.124878 203.970413,260.089355 203.970413,262.294891 
	C206.134598,262.698792 207.878418,263.024231 209.948151,263.615723 
	C207.655151,263.881775 205.036255,263.881775 201.982086,263.881775 
	C201.982086,262.199554 201.981964,260.744232 201.982101,259.288940 
	C201.987747,199.828247 201.984909,140.367538 202.043777,80.906914 
	C202.045395,79.274422 202.710663,77.642586 203.501007,75.979813 
z"/>
<path fill="#ED7B4A" opacity="1.000000" stroke="none" 
	d="
M241.893097,260.495331 
	C241.544525,258.855988 241.015503,256.755157 241.013947,254.653961 
	C240.971542,197.748505 240.993179,140.843018 240.949158,83.937576 
	C240.947403,81.652008 240.409943,79.366859 240.318848,76.588913 
	C240.708649,76.048584 240.901703,76.000854 241.094757,75.953125 
	C241.398285,77.134186 241.966812,78.315125 241.967361,79.496323 
	C241.994919,139.675430 241.974075,199.854568 241.893097,260.495331 
z"/>
<path fill="#EE753D" opacity="1.000000" stroke="none" 
	d="
M276.099670,79.478638 
	C276.442871,80.447350 276.958496,81.880035 276.959290,83.312996 
	C276.991455,142.255356 276.977356,201.197723 276.762817,260.604126 
	C276.556549,261.068146 276.181213,261.065216 276.181213,261.065216 
	C276.121216,256.411987 276.009308,251.758774 276.009125,247.105560 
	C276.007141,191.384613 276.021729,135.663681 276.099670,79.478638 
z"/>
<path fill="#E97A45" opacity="1.000000" stroke="none" 
	d="
M95.125168,215.549988 
	C94.725945,215.053421 94.293831,214.126297 93.757111,212.974731 
	C103.847115,212.974731 113.339493,213.089279 122.828064,212.948212 
	C137.530106,212.729660 152.228638,212.271576 166.930801,212.070114 
	C170.046616,212.027405 173.171570,212.651947 176.725922,212.991760 
	C175.473770,213.347290 173.788712,213.965775 172.102127,213.969910 
	C148.047791,214.028854 123.993195,213.983185 99.938896,214.048706 
	C98.322403,214.053101 96.707779,214.746490 95.125168,215.549988 
z"/>
<path fill="#ED8655" opacity="1.000000" stroke="none" 
	d="
M314.004211,158.003372 
	C313.991974,133.053970 314.000793,108.104492 313.929626,83.155251 
	C313.923584,81.032829 313.383728,78.911926 313.075684,76.369980 
	C313.706787,77.301910 314.912872,78.651855 314.918549,80.006805 
	C315.025970,105.696877 314.991669,131.387543 314.703064,157.541733 
	C314.419312,158.005386 314.004211,158.003372 314.004211,158.003372 
z"/>
<path fill="#F7BAA0" opacity="1.000000" stroke="none" 
	d="
M516.494629,209.899796 
	C516.611877,209.568268 517.192871,209.075974 517.773132,209.076874 
	C539.635376,209.110794 561.497559,209.190125 583.664551,209.546814 
	C561.632202,209.876541 539.295166,209.922791 516.494629,209.899796 
z"/>
<path fill="#EF956A" opacity="1.000000" stroke="none" 
	d="
M313.991760,158.471573 
	C314.004211,158.003372 314.419312,158.005386 314.626862,158.005188 
	C314.879272,179.026154 314.924133,200.047287 314.693024,221.532700 
	C314.417023,221.996964 313.997803,222.000000 313.997803,222.000000 
	C313.991638,200.979919 313.985474,179.959854 313.991760,158.471573 
z"/>
<path fill="#EF956A" opacity="1.000000" stroke="none" 
	d="
M276.115204,261.457581 
	C276.181213,261.065216 276.556549,261.068146 276.743408,261.077911 
	C277.938660,261.708466 278.940765,262.856384 279.956451,262.868561 
	C290.199524,262.991516 300.445892,262.991394 310.688080,262.825409 
	C311.773804,262.807831 312.838837,261.511108 314.164001,260.403137 
	C314.414490,259.998474 314.837830,259.996735 314.837830,259.996735 
	C314.889160,261.145752 314.940491,262.294769 315.017151,264.010925 
	C305.335327,264.010925 295.787659,264.009247 286.240021,264.011963 
	C283.425476,264.012756 280.600403,264.157379 277.804321,263.933807 
	C277.167786,263.882935 276.631592,262.577759 276.115204,261.457581 
z"/>
<path fill="#ED8655" opacity="1.000000" stroke="none" 
	d="
M314.909851,259.533691 
	C314.837830,259.996735 314.414490,259.998474 314.202728,259.997406 
	C313.978882,247.643082 313.966827,235.289810 313.976257,222.468277 
	C313.997803,222.000000 314.417023,221.996964 314.626648,221.996979 
	C314.884796,234.354874 314.933350,246.712753 314.909851,259.533691 
z"/>
<path fill="#FFFFFF" opacity="1.000000" stroke="none" 
	d="
M240.882874,75.566002 
	C240.901703,76.000854 240.708649,76.048584 240.234619,76.196625 
	C228.255600,76.236855 216.557556,76.176781 204.388672,76.057465 
	C204.573547,75.666702 205.229248,75.046585 205.884979,75.046539 
	C217.480316,75.045738 229.075668,75.120468 240.882874,75.566002 
z"/>
<path fill="#FFFFFF" opacity="1.000000" stroke="none" 
	d="
M312.889832,75.593750 
	C301.658234,76.045853 290.227203,76.101112 278.322601,76.081848 
	C278.515320,75.672981 279.181702,75.047523 279.847870,75.047707 
	C290.795380,75.050774 301.742889,75.132698 312.889832,75.593750 
z"/>
<path fill="#EC8D5E" opacity="1.000000" stroke="none" 
	d="
M58.051949,195.287018 
	C61.395969,199.610840 60.314323,204.637085 58.543518,209.784729 
	C58.103115,205.181168 58.032711,200.472748 58.051949,195.287018 
z"/>
<path fill="#FFFFFF" opacity="1.000000" stroke="none" 
	d="
M211.055969,264.370667 
	C220.328583,263.904785 229.811172,263.835602 239.776169,263.844727 
	C239.602768,264.279602 238.946762,264.946289 238.291183,264.945862 
	C229.282730,264.940125 220.274353,264.842468 211.055969,264.370667 
z"/>
<path fill="#EF956A" opacity="1.000000" stroke="none" 
	d="
M524.951843,229.632507 
	C522.746582,228.851334 520.415955,227.737656 518.053223,226.271667 
	C520.289551,227.046219 522.557983,228.173111 524.951843,229.632507 
z"/>
<path fill="#EF956A" opacity="1.000000" stroke="none" 
	d="
M515.047363,222.633820 
	C514.058960,221.861679 513.040039,220.751068 512.027588,219.269836 
	C513.028381,220.031265 514.022644,221.163315 515.047363,222.633820 
z"/>
<path fill="#EF956A" opacity="1.000000" stroke="none" 
	d="
M518.044800,225.621002 
	C517.066589,225.190353 516.053467,224.406708 515.033936,223.272919 
	C516.021606,223.704514 517.015747,224.486267 518.044800,225.621002 
z"/>
<path fill="#EF956A" opacity="1.000000" stroke="none" 
	d="
M532.815369,232.545334 
	C531.678650,232.476730 530.388733,232.083893 528.886108,231.401550 
	C530.002930,231.481735 531.332581,231.851425 532.815369,232.545334 
z"/>
<path fill="#EF956A" opacity="1.000000" stroke="none" 
	d="
M528.113403,230.729675 
	C527.347900,230.880341 526.373047,230.714340 525.193970,230.235626 
	C525.961121,230.086258 526.932556,230.249634 528.113403,230.729675 
z"/>
<path fill="#ED8655" opacity="1.000000" stroke="none" 
	d="
M276.920013,76.095947 
	C277.073975,76.414200 276.855286,76.657265 276.365723,76.972809 
	C276.304077,76.756287 276.454895,76.414780 276.920013,76.095947 
z"/>
<path fill="#EC8D5E" opacity="1.000000" stroke="none" 
	d="
M240.964752,263.932373 
	C240.855545,263.633057 241.106415,263.356354 241.604218,262.942627 
	C241.675720,263.188721 241.500275,263.571838 240.964752,263.932373 
z"/>
<path fill="#000000" opacity="1.000000" stroke="none" 
	d="
M554.057495,175.329529 
	C554.962158,177.985428 555.866760,180.641327 556.387451,183.624969 
	C539.998352,183.913895 523.993225,183.875092 507.988068,183.836288 
	C510.369659,179.352524 512.117432,174.350433 515.269226,170.496536 
	C521.215088,163.226135 529.167603,160.443848 538.576660,162.967499 
	C539.350525,163.175034 540.226013,163.003967 541.607422,163.325653 
	C542.774231,163.785812 543.388000,163.929153 544.001709,164.072510 
	C544.001709,164.072510 543.988892,164.006393 544.062805,164.343079 
	C545.415649,165.480331 546.694580,166.280869 547.973511,167.081421 
	C547.973511,167.081421 547.992798,167.016052 548.057617,167.306717 
	C548.738831,168.090775 549.355164,168.584167 549.971497,169.077576 
	C549.971497,169.077576 549.982605,169.009277 549.979187,169.375519 
	C551.336304,171.604340 552.696899,173.466934 554.057495,175.329529 
z"/>
<path fill="#F7DED4" opacity="1.000000" stroke="none" 
	d="
M508.113098,184.268982 
	C523.993225,183.875092 539.998352,183.913895 556.465820,183.939392 
	C556.479858,184.304184 556.030273,185.014114 555.583374,185.012344 
	C539.801453,184.950165 524.019775,184.821213 508.113098,184.268982 
z"/>
<path fill="#EF956A" opacity="1.000000" stroke="none" 
	d="
M554.096313,174.931488 
	C552.696899,173.466934 551.336304,171.604340 549.946045,169.385254 
	C551.322510,170.863678 552.728821,172.698563 554.096313,174.931488 
z"/>
<path fill="#EF956A" opacity="1.000000" stroke="none" 
	d="
M547.971985,166.715851 
	C546.694580,166.280869 545.415649,165.480331 544.032471,164.357697 
	C545.275635,164.807175 546.623047,165.578720 547.971985,166.715851 
z"/>
<path fill="#EF956A" opacity="1.000000" stroke="none" 
	d="
M549.962585,168.736618 
	C549.355164,168.584167 548.738831,168.090775 548.023865,167.311020 
	C548.601379,167.481659 549.277527,167.938675 549.962585,168.736618 
z"/>
<path fill="#EF956A" opacity="1.000000" stroke="none" 
	d="
M543.853271,163.790192 
	C543.388000,163.929153 542.774231,163.785812 542.035706,163.347092 
	C542.508850,163.203766 543.106873,163.355835 543.853271,163.790192 
z"/>
<path fill="#000000" opacity="1.000000" stroke="none" 
	d="
M95.933311,188.929565 
	C95.639099,188.424240 94.962082,187.719589 95.106331,187.442581 
	C99.337868,179.316284 102.325264,169.672012 112.632629,167.309555 
	C124.494087,164.590897 137.919678,168.007767 142.590363,184.255447 
	C143.598190,188.255295 141.435577,188.028366 139.141037,188.017548 
	C126.418022,187.957520 113.694374,187.954346 100.971535,188.030701 
	C99.290382,188.040771 97.612633,188.616043 95.933311,188.929565 
z"/>
<path fill="#EC8D5E" opacity="1.000000" stroke="none" 
	d="
M96.320480,189.097198 
	C97.612633,188.616043 99.290382,188.040771 100.971535,188.030701 
	C113.694374,187.954346 126.418022,187.957520 139.141037,188.017548 
	C141.435577,188.028366 143.598190,188.255295 142.900360,184.436050 
	C143.457275,185.408859 144.081207,186.820602 144.705124,188.232361 
	C143.437729,188.687485 142.169876,189.538681 140.902985,189.537262 
	C126.171127,189.520828 111.439415,189.375809 96.320480,189.097198 
z"/>
<path fill="#000000" opacity="1.000000" stroke="none" 
	d="
M368.498413,218.063263 
	C366.734863,215.697342 365.471619,213.329819 363.791473,211.308929 
	C356.616974,202.679367 355.378082,192.824890 357.488403,182.223984 
	C357.992554,179.691452 358.299683,177.066345 359.206604,174.677109 
	C362.233887,166.701797 368.623596,161.897095 375.917084,157.565430 
	C384.637207,153.017426 393.495514,152.130615 402.874329,153.864334 
	C418.027466,156.665436 425.364838,167.363190 429.744507,180.554031 
	C432.630066,189.244919 431.315430,198.089340 426.956299,207.026276 
	C426.161896,208.788849 425.539093,209.882645 424.916321,210.976456 
	C424.916321,210.976456 424.985718,210.985687 424.652954,211.073257 
	C422.193970,213.759964 420.067688,216.359085 417.941437,218.958221 
	C417.941437,218.958221 418.002075,218.989975 417.707947,219.001678 
	C417.255402,219.328949 417.097015,219.644516 416.938599,219.960068 
	C416.938599,219.960068 416.989868,220.000671 416.689087,220.031250 
	C416.153046,220.379211 415.917816,220.696564 415.682617,221.013916 
	C415.682617,221.013931 415.408722,220.974594 414.985382,221.010468 
	C414.353821,221.355591 414.145599,221.664856 413.937347,221.974121 
	C413.937347,221.974106 413.994202,221.998550 413.691956,222.030304 
	C413.142059,222.379837 412.894409,222.697586 412.646759,223.015350 
	C412.646759,223.015350 412.408142,222.964050 411.973999,223.008148 
	C411.260986,223.371628 410.982117,223.690994 410.703247,224.010361 
	C410.703247,224.010361 410.443237,223.969864 409.915680,223.977295 
	C401.812836,227.168411 394.020721,228.700836 385.814575,227.080063 
	C385.814575,227.080063 385.575714,226.968246 385.223938,226.675980 
	C383.871613,226.288895 382.871033,226.194077 381.870483,226.099274 
	C381.870483,226.099274 381.604645,225.980820 381.297028,225.704681 
	C380.588745,225.308746 380.188049,225.188934 379.787384,225.069122 
	C376.127258,222.786469 372.467102,220.503815 368.498413,218.063263 
M398.012512,185.996674 
	C398.012512,185.996674 398.063354,185.951172 397.762695,185.263519 
	C396.531372,185.235687 395.300018,185.207840 393.281799,185.028946 
	C390.757050,185.555740 387.908783,185.698746 388.004639,189.388519 
	C388.086761,192.549927 387.106384,196.257111 392.183472,197.699478 
	C395.280518,200.481201 397.154846,198.183716 399.006897,196.001343 
	C399.006897,196.001343 399.041779,196.065033 399.754730,195.770355 
	C401.995605,192.626160 401.532898,189.699432 399.004669,186.990448 
	C399.004669,186.990448 399.071198,186.979080 398.953369,186.437958 
	C398.642395,186.268280 398.331421,186.098587 398.012512,185.996674 
M413.492676,192.898682 
	C409.440613,190.595673 406.684540,192.808624 405.145386,196.071121 
	C403.496094,199.567001 405.801483,204.296860 409.012421,205.569504 
	C412.623718,207.000854 416.667603,205.629868 418.175659,202.462921 
	C420.079681,198.464462 418.934662,195.700577 413.492676,192.898682 
M375.401123,178.004868 
	C370.889435,177.375168 368.199768,179.684311 368.127533,183.864273 
	C368.065155,187.471680 370.232574,190.329636 374.233673,191.003296 
	C378.655701,191.747803 381.288605,189.642654 381.909607,185.428223 
	C382.520416,181.282990 381.016449,178.279037 375.401123,178.004868 
z"/>
<path fill="#61C17E" opacity="1.000000" stroke="none" 
	d="
M425.248627,210.944031 
	C425.539093,209.882645 426.161896,208.788849 426.909851,207.399750 
	C427.668793,207.497604 428.302582,207.890732 428.948914,208.600449 
	C427.834625,209.581909 426.707794,210.246765 425.248627,210.944031 
z"/>
<path fill="#61C17E" opacity="1.000000" stroke="none" 
	d="
M386.085571,227.371674 
	C394.020721,228.700836 401.812836,227.168411 409.796387,224.032822 
	C404.163116,229.269089 396.959717,229.264999 389.641296,228.614136 
	C388.527008,228.515045 387.450562,227.990875 386.085571,227.371674 
z"/>
<path fill="#61C17E" opacity="1.000000" stroke="none" 
	d="
M418.312012,218.999023 
	C420.067688,216.359085 422.193970,213.759964 424.640717,211.040466 
	C424.567596,214.940674 422.742737,217.854492 418.312012,218.999023 
z"/>
<path fill="#61C17E" opacity="1.000000" stroke="none" 
	d="
M382.128601,226.369049 
	C382.871033,226.194077 383.871613,226.288895 385.094116,226.699036 
	C384.339600,226.889175 383.363129,226.764008 382.128601,226.369049 
z"/>
<path fill="#61C17E" opacity="1.000000" stroke="none" 
	d="
M379.957581,225.339417 
	C380.188049,225.188934 380.588745,225.308746 381.152527,225.722076 
	C380.919708,225.880295 380.523743,225.744980 379.957581,225.339417 
z"/>
<path fill="#61C17E" opacity="1.000000" stroke="none" 
	d="
M411.001343,223.940735 
	C410.982117,223.690994 411.260986,223.371628 411.866272,223.065491 
	C411.894958,223.342850 411.597198,223.606995 411.001343,223.940735 
z"/>
<path fill="#61C17E" opacity="1.000000" stroke="none" 
	d="
M412.955750,222.949402 
	C412.894409,222.697586 413.142059,222.379837 413.687012,221.999756 
	C413.744476,222.252792 413.504608,222.568146 412.955750,222.949402 
z"/>
<path fill="#61C17E" opacity="1.000000" stroke="none" 
	d="
M414.203430,221.933655 
	C414.145599,221.664856 414.353821,221.355591 414.859741,221.068390 
	C414.928131,221.358047 414.698792,221.625626 414.203430,221.933655 
z"/>
<path fill="#61C17E" opacity="1.000000" stroke="none" 
	d="
M415.987122,220.950043 
	C415.917816,220.696564 416.153046,220.379211 416.680481,219.999725 
	C416.745667,220.253799 416.518646,220.569992 415.987122,220.950043 
z"/>
<path fill="#61C17E" opacity="1.000000" stroke="none" 
	d="
M417.234253,219.951141 
	C417.097015,219.644516 417.255402,219.328949 417.690063,218.972473 
	C417.820862,219.268448 417.675415,219.605347 417.234253,219.951141 
z"/>
<path fill="#F27339" opacity="1.000000" stroke="none" 
	d="
M413.881897,192.968536 
	C418.934662,195.700577 420.079681,198.464462 418.175659,202.462921 
	C416.667603,205.629868 412.623718,207.000854 409.012421,205.569504 
	C405.801483,204.296860 403.496094,199.567001 405.145386,196.071121 
	C406.684540,192.808624 409.440613,190.595673 413.881897,192.968536 
z"/>
<path fill="#F27339" opacity="1.000000" stroke="none" 
	d="
M375.824432,178.004700 
	C381.016449,178.279037 382.520416,181.282990 381.909607,185.428223 
	C381.288605,189.642654 378.655701,191.747803 374.233673,191.003296 
	C370.232574,190.329636 368.065155,187.471680 368.127533,183.864273 
	C368.199768,179.684311 370.889435,177.375168 375.824432,178.004700 
z"/>
<path fill="#F26727" opacity="1.000000" stroke="none" 
	d="
M391.879364,197.049210 
	C387.106384,196.257111 388.086761,192.549927 388.004639,189.388519 
	C387.908783,185.698746 390.757050,185.555740 393.945801,185.325439 
	C395.760956,185.731689 396.912170,185.841431 398.063354,185.951172 
	C398.063354,185.951172 398.012512,185.996674 398.089355,186.223770 
	C398.467865,186.626938 398.769531,186.803009 399.071198,186.979080 
	C399.071198,186.979080 399.004669,186.990448 398.981964,187.418182 
	C398.986755,190.585617 399.014252,193.325333 399.041779,196.065033 
	C399.041779,196.065033 399.006897,196.001343 398.633942,195.983704 
	C396.133789,196.327103 394.006561,196.688156 391.879364,197.049210 
z"/>
<path fill="#EC8D5E" opacity="1.000000" stroke="none" 
	d="
M399.398254,195.917694 
	C399.014252,193.325333 398.986755,190.585617 399.001678,187.390793 
	C401.532898,189.699432 401.995605,192.626160 399.398254,195.917694 
z"/>
<path fill="#EC8D5E" opacity="1.000000" stroke="none" 
	d="
M392.031433,197.374344 
	C394.006561,196.688156 396.133789,196.327103 398.663879,196.004242 
	C397.154846,198.183716 395.280518,200.481201 392.031433,197.374344 
z"/>
<path fill="#EC8D5E" opacity="1.000000" stroke="none" 
	d="
M397.913025,185.607346 
	C396.912170,185.841431 395.760956,185.731689 394.339233,185.400970 
	C395.300018,185.207840 396.531372,185.235687 397.913025,185.607346 
z"/>
<path fill="#EC8D5E" opacity="1.000000" stroke="none" 
	d="
M399.012268,186.708527 
	C398.769531,186.803009 398.467865,186.626938 398.093323,186.189880 
	C398.331421,186.098587 398.642395,186.268280 399.012268,186.708527 
z"/>
</svg>