<svg version="1.1" id="Layer_1" xmlns="http://www.w3.org/2000/svg" xmlns:xlink="http://www.w3.org/1999/xlink" x="0px" y="0px"
	 width="100%" viewBox="0 0 133 104" enable-background="new 0 0 133 104" xml:space="preserve">
<path fill="#FEFEFF" opacity="1.000000" stroke="none" 
	d="
M4.000000,1.000000 
	C47.281208,1.000000 90.562416,1.000000 133.921814,1.000000 
	C133.921814,35.572697 133.921814,70.145607 133.921814,105.000000 
	C90.979515,105.000000 47.958416,105.000000 4.468376,104.531342 
	C3.999625,69.708458 3.999812,35.354229 4.000000,1.000000 
M51.375179,38.962662 
	C47.042042,25.620489 49.532970,27.164660 39.959354,27.246683 
	C38.085266,27.262739 36.224873,28.877508 34.358162,29.754915 
	C36.164406,30.513805 38.016850,31.992329 39.767155,31.879953 
	C43.279064,31.654476 44.731659,32.932632 45.620159,36.214211 
	C47.614456,43.579960 49.793076,50.912113 52.345913,58.098343 
	C52.949295,59.796856 55.271461,61.955219 56.898323,62.038460 
	C64.865898,62.446144 72.869743,62.353657 80.850349,62.104313 
	C82.279259,62.059669 84.344612,60.770901 84.945419,59.502182 
	C87.857239,53.353374 90.385902,47.022251 93.017014,40.741772 
	C94.263130,37.767265 93.061272,36.285175 89.995132,36.143742 
	C88.334518,36.067142 86.583923,35.820454 85.029930,36.235126 
	C83.822716,36.557262 82.857048,37.784584 81.784019,38.609573 
	C82.686005,39.410484 83.495529,40.374599 84.521843,40.956070 
	C85.229614,41.357071 86.237419,41.228512 87.434761,41.376656 
	C86.622612,43.391861 86.031258,44.926342 85.389984,46.439671 
	C80.741348,57.409920 80.738167,57.408573 68.883278,57.408573 
	C57.153435,57.408573 57.152821,57.408764 53.735878,46.360428 
	C53.049759,44.141933 52.370255,41.921391 51.375179,38.962662 
M64.018448,44.351372 
	C64.019119,44.848572 63.833958,45.457581 64.053772,45.822941 
	C64.856453,47.157089 65.794205,48.409969 66.681068,49.693470 
	C67.412933,48.389835 68.447556,47.161171 68.793983,45.762096 
	C69.161812,44.276638 68.876656,42.629486 68.876656,40.888554 
	C71.251526,40.888554 72.952202,41.131763 74.534836,40.804356 
	C75.617607,40.580357 76.535889,39.561176 77.527702,38.897491 
	C76.575493,37.975471 75.759598,36.555664 74.638931,36.248768 
	C72.981453,35.794868 71.107498,36.131432 68.870872,36.131432 
	C68.870872,34.068974 69.214203,32.351902 68.768364,30.872688 
	C68.371414,29.555714 67.100723,28.502092 66.215645,27.332245 
	C65.485115,28.471535 64.386574,29.530043 64.114403,30.769949 
	C63.749535,32.432129 64.024048,34.234657 64.024048,35.971977 
	C62.643906,36.038937 61.920616,35.907867 61.333439,36.132534 
	C59.270306,36.921951 57.253975,37.833694 55.219879,38.699009 
	C57.154411,39.431282 59.160564,40.021561 60.997162,40.947987 
	C62.136604,41.522747 63.018833,42.607422 64.018448,44.351372 
M49.557812,73.810921 
	C51.353390,74.555725 53.142368,75.794930 54.947567,75.819031 
	C55.748215,75.829712 57.270416,73.350113 57.205956,72.064034 
	C57.141834,70.784798 55.697166,68.797173 54.510433,68.497910 
	C50.979645,67.607513 49.248840,69.555122 49.557812,73.810921 
M87.533524,72.395699 
	C86.029449,70.991272 84.698639,69.194656 82.921051,68.409370 
	C82.350311,68.157234 79.797401,70.467911 79.619270,71.802078 
	C79.447395,73.089386 81.383698,75.921387 82.018631,75.815918 
	C83.910187,75.501694 85.617363,74.077553 87.533524,72.395699 
z"/>
<path fill="#FBFBFB" opacity="1.000000" stroke="none" 
	d="
M3.000000,105.000000 
	C-0.053348,105.611305 1.037972,103.292656 1.033289,102.023132 
	C0.980656,87.756653 1.000000,73.489914 1.000000,59.223248 
	C1.000000,40.975182 0.981769,22.727058 1.042864,4.479198 
	C1.046751,3.318410 1.666667,2.159685 2.500368,1.468657 
	C3.000490,36.291542 3.000245,70.645775 3.000000,105.000000 
z"/>
<path fill="#EBEBEB" opacity="1.000000" stroke="none" 
	d="
M3.250000,105.000000 
	C3.000245,70.645775 3.000490,36.291542 3.000368,1.468657 
	C3.000000,1.000000 3.500000,1.000000 3.750000,1.000000 
	C3.999812,35.354229 3.999625,69.708458 3.999719,104.531342 
	C4.000000,105.000000 3.500000,105.000000 3.250000,105.000000 
z"/>
<path fill="#412979" opacity="1.000000" stroke="none" 
	d="
M51.531441,39.332230 
	C52.370255,41.921391 53.049759,44.141933 53.735878,46.360428 
	C57.152821,57.408764 57.153435,57.408573 68.883278,57.408573 
	C80.738167,57.408573 80.741348,57.409920 85.389984,46.439671 
	C86.031258,44.926342 86.622612,43.391861 87.434761,41.376656 
	C86.237419,41.228512 85.229614,41.357071 84.521843,40.956070 
	C83.495529,40.374599 82.686005,39.410484 81.784019,38.609573 
	C82.857048,37.784584 83.822716,36.557262 85.029930,36.235126 
	C86.583923,35.820454 88.334518,36.067142 89.995132,36.143742 
	C93.061272,36.285175 94.263130,37.767265 93.017014,40.741772 
	C90.385902,47.022251 87.857239,53.353374 84.945419,59.502182 
	C84.344612,60.770901 82.279259,62.059669 80.850349,62.104313 
	C72.869743,62.353657 64.865898,62.446144 56.898323,62.038460 
	C55.271461,61.955219 52.949295,59.796856 52.345913,58.098343 
	C49.793076,50.912113 47.614456,43.579960 45.620159,36.214211 
	C44.731659,32.932632 43.279064,31.654476 39.767155,31.879953 
	C38.016850,31.992329 36.164406,30.513805 34.358162,29.754915 
	C36.224873,28.877508 38.085266,27.262739 39.959354,27.246683 
	C49.532970,27.164660 47.042042,25.620489 51.531441,39.332230 
z"/>
<path fill="#452E7D" opacity="1.000000" stroke="none" 
	d="
M64.017487,43.907295 
	C63.018833,42.607422 62.136604,41.522747 60.997162,40.947987 
	C59.160564,40.021561 57.154411,39.431282 55.219879,38.699013 
	C57.253975,37.833694 59.270306,36.921951 61.333439,36.132534 
	C61.920616,35.907867 62.643906,36.038937 64.024048,35.971977 
	C64.024048,34.234657 63.749535,32.432129 64.114403,30.769949 
	C64.386574,29.530043 65.485115,28.471535 66.215645,27.332245 
	C67.100723,28.502092 68.371414,29.555714 68.768364,30.872688 
	C69.214203,32.351902 68.870872,34.068974 68.870872,36.131432 
	C71.107498,36.131432 72.981453,35.794868 74.638931,36.248768 
	C75.759598,36.555664 76.575493,37.975471 77.527702,38.897491 
	C76.535889,39.561176 75.617607,40.580357 74.534836,40.804356 
	C72.952202,41.131763 71.251526,40.888554 68.876656,40.888554 
	C68.876656,42.629486 69.161812,44.276638 68.793983,45.762096 
	C68.447556,47.161171 67.412933,48.389835 66.681068,49.693470 
	C65.794205,48.409969 64.856453,47.157089 64.053772,45.822941 
	C63.833958,45.457581 64.019119,44.848572 64.017487,43.907295 
z"/>
<path fill="#422B7B" opacity="1.000000" stroke="none" 
	d="
M49.433441,73.469650 
	C49.248840,69.555122 50.979645,67.607513 54.510433,68.497910 
	C55.697166,68.797173 57.141834,70.784798 57.205956,72.064034 
	C57.270416,73.350113 55.748215,75.829712 54.947567,75.819031 
	C53.142368,75.794930 51.353390,74.555725 49.433441,73.469650 
z"/>
<path fill="#412A7A" opacity="1.000000" stroke="none" 
	d="
M87.465050,72.741371 
	C85.617363,74.077553 83.910187,75.501694 82.018631,75.815918 
	C81.383698,75.921387 79.447395,73.089386 79.619270,71.802078 
	C79.797401,70.467911 82.350311,68.157234 82.921051,68.409370 
	C84.698639,69.194656 86.029449,70.991272 87.465050,72.741371 
z"/>
</svg>