<svg version="1.1" id="Layer_1" xmlns="http://www.w3.org/2000/svg" xmlns:xlink="http://www.w3.org/1999/xlink" x="0px" y="0px"
	 width="100%" viewBox="0 0 376 120" enable-background="new 0 0 376 120" xml:space="preserve">
<path fill="#EDEEED" opacity="1.000000" stroke="none" 
	d="
M240.000000,121.000000 
	C160.000015,121.000000 80.500038,121.000000 1.000043,121.000000 
	C1.000028,81.000031 1.000028,41.000057 1.000014,1.000064 
	C126.333275,1.000043 251.666550,1.000043 376.999878,1.000021 
	C376.999908,40.999931 376.999908,80.999863 376.999939,120.999893 
	C331.500000,121.000000 286.000000,121.000000 240.000000,121.000000 
M294.462372,106.895073 
	C297.503418,102.290047 296.252930,95.988197 291.600098,93.943573 
	C292.024353,95.434906 292.387421,96.711128 291.938416,97.985809 
	C290.252747,98.753998 288.567078,99.522186 286.155945,100.156631 
	C285.539124,101.543083 284.165039,103.171127 284.509491,104.250893 
	C284.885559,105.429543 286.758240,106.605537 288.150513,106.867043 
	C289.961914,107.207260 291.942749,106.645378 294.462372,106.895073 
M359.041260,93.850395 
	C359.041260,93.850395 358.729370,93.736794 358.729370,93.736794 
	C358.729370,93.736794 359.036743,93.982529 358.908844,94.684158 
	C363.455688,99.234459 357.660767,100.715149 356.001343,104.095589 
	C358.173370,105.098976 360.330933,106.095680 363.258453,107.448074 
	C363.258453,103.531120 363.696777,100.357201 363.062592,97.414398 
	C362.771332,96.062820 360.375427,95.164803 359.041260,93.850395 
M324.241730,94.922905 
	C321.223602,99.159714 321.158844,103.057594 324.390656,105.463623 
	C327.697388,107.925423 330.956207,107.694038 334.399994,104.322075 
	C326.727264,104.886063 326.727264,104.886063 324.934692,101.060249 
	C328.363770,101.060249 331.574402,101.060249 335.460083,101.060249 
	C334.822937,99.286652 334.410583,98.138855 333.744354,96.311844 
	C331.757294,92.478981 329.271240,92.004662 324.241730,94.922905 
M212.328110,82.839363 
	C215.411331,82.839363 218.494568,82.839363 222.229462,82.839363 
	C222.229462,77.185158 222.229462,71.615822 222.791382,65.582069 
	C226.011414,64.301888 229.231445,63.021702 232.877396,61.572186 
	C232.877396,59.883366 232.877396,57.148621 232.877396,53.048218 
	C228.678436,54.447208 225.160767,55.619217 223.105103,56.304119 
	C218.753784,55.971432 215.506409,55.723148 212.077515,55.460987 
	C212.077515,64.829872 212.077515,73.415474 212.328110,82.839363 
M116.858742,26.718866 
	C118.564537,27.500584 120.270325,28.282301 122.327614,29.728230 
	C126.635735,34.639450 122.562897,39.326584 121.786087,44.384777 
	C122.914810,44.232540 124.332176,44.454807 124.719208,43.924747 
	C128.295090,39.027458 132.694885,34.399178 134.881973,28.906948 
	C137.452393,22.452152 134.388535,18.698788 127.359673,18.215797 
	C123.618652,17.958733 119.796516,18.882086 115.241127,19.303707 
	C105.567482,22.464149 95.893837,25.624590 86.220200,28.785032 
	C86.406548,29.380301 86.592896,29.975571 86.779243,30.570841 
	C93.859116,29.064173 100.938988,27.557505 108.862282,26.191252 
	C111.367012,26.194744 113.871742,26.198235 116.858742,26.718866 
M155.026352,62.958771 
	C155.026352,69.560905 155.026352,76.163040 155.026352,82.763840 
	C158.677841,82.763840 161.877930,82.763840 165.014191,82.763840 
	C165.014191,75.940727 165.014191,69.471825 165.615845,62.448864 
	C167.342484,62.185818 169.069122,61.922768 170.551834,61.696884 
	C172.576706,56.343781 169.863693,54.288200 164.845642,53.778053 
	C164.826889,53.280399 164.808151,52.782745 164.789398,52.285091 
	C167.121246,51.100723 169.453079,49.916355 172.016907,48.614166 
	C172.016907,46.878952 172.016907,44.589287 172.016907,42.353386 
	C161.654251,39.605236 155.270477,43.855064 155.010681,53.566559 
	C154.935242,56.386082 155.107132,59.212219 155.026352,62.958771 
M139.907349,83.100784 
	C142.524048,83.100784 145.140732,83.100784 147.990921,83.100784 
	C147.990921,73.511169 147.990921,64.303299 147.990921,54.585632 
	C144.831665,54.727013 141.907471,54.857872 138.336227,55.246006 
	C137.656738,55.486900 136.651154,56.143715 136.347321,55.905491 
	C132.579742,52.951488 128.294235,53.536182 124.509071,54.975346 
	C119.154991,57.011021 117.196472,61.834755 116.898712,67.333145 
	C116.578140,73.252647 117.463585,78.999588 123.221313,81.918037 
	C127.899223,84.289154 133.023438,84.086708 137.548630,80.708443 
	C138.031891,81.435974 138.515152,82.163506 139.907349,83.100784 
M327.550049,64.461067 
	C329.113281,63.528229 330.676514,62.595390 332.239746,61.662563 
	C333.124329,63.282768 334.671326,64.863129 334.771667,66.530510 
	C335.097443,71.946556 334.893494,77.394478 334.893494,83.136047 
	C336.603455,83.136047 337.761414,83.000885 338.877533,83.159576 
	C343.585602,83.828934 345.661743,82.121323 345.110809,77.137856 
	C344.747223,73.849281 344.517059,70.355804 345.266632,67.201050 
	C345.768188,65.090286 348.094025,63.412998 349.603546,61.541740 
	C350.736267,63.440884 352.663818,65.267029 352.846191,67.253441 
	C353.312561,72.332039 353.001709,77.482018 353.001709,82.703415 
	C356.631744,82.703415 359.807739,82.703415 363.069366,82.703415 
	C363.069366,76.113747 363.513885,69.909531 362.871613,63.819950 
	C362.574890,61.006500 360.780121,57.630535 358.575928,55.881725 
	C353.212280,51.626205 348.163757,54.279655 343.853546,58.311783 
	C337.896729,52.826038 335.749878,52.625683 327.959198,56.558495 
	C327.436554,56.822338 326.766388,57.086193 326.232422,56.986851 
	C323.253967,56.432755 320.296356,55.766674 317.072418,55.083992 
	C317.072418,64.783661 317.072418,73.394295 317.330048,82.840027 
	C320.416718,82.840027 323.503387,82.840027 327.051025,82.840027 
	C327.051025,76.835815 327.051025,70.922234 327.550049,64.461067 
M90.087006,66.559731 
	C92.504929,67.136978 95.092903,67.356934 97.288239,68.401833 
	C99.123154,69.275177 100.498619,71.113831 102.077545,72.525009 
	C100.222862,73.608803 98.293114,75.710892 96.527939,75.580750 
	C91.710335,75.225563 86.962158,73.928520 81.860382,72.941483 
	C81.123985,74.668617 80.169731,76.906693 79.031670,79.575859 
	C87.815750,84.028191 96.390823,85.336594 105.304939,81.906227 
	C110.099579,80.061127 112.582542,76.291656 112.586952,71.048027 
	C112.591362,65.808014 109.655518,62.685631 105.011810,61.094021 
	C101.091263,59.750271 96.983612,58.943817 93.088745,57.539139 
	C91.953728,57.129795 90.544411,55.465843 90.569672,54.408241 
	C90.596146,53.299828 92.003250,51.662727 93.152107,51.272240 
	C94.950783,50.660877 97.121925,50.497341 98.987213,50.875179 
	C102.132835,51.512363 105.162483,52.722080 108.424416,53.748768 
	C109.401047,51.453869 110.357651,49.206043 111.431465,46.682800 
	C105.559555,43.307812 100.054398,42.239635 93.552361,43.237469 
	C85.963348,44.402107 80.877914,47.511414 80.045479,53.655834 
	C79.177071,60.065857 81.690041,63.472858 90.087006,66.559731 
M61.651882,85.066124 
	C64.051819,83.935646 66.451752,82.805168 68.851685,81.674690 
	C66.925392,80.945976 65.170380,80.951477 63.432983,81.129150 
	C57.276981,81.758705 51.094837,83.193390 44.982624,82.930023 
	C36.780247,82.576584 33.292027,76.369911 37.450275,69.286766 
	C40.842827,63.507900 45.684151,58.538498 50.174694,53.468441 
	C51.664764,51.786072 54.061008,50.906296 56.042965,49.659584 
	C55.491035,49.077049 54.939106,48.494514 54.387177,47.911980 
	C53.743919,47.973412 52.934452,47.803963 52.481655,48.129940 
	C40.361046,56.855968 27.991272,65.339722 19.024769,77.606194 
	C16.081142,81.633186 12.697230,86.241623 15.784895,91.304161 
	C18.721031,96.118263 24.437735,95.845947 28.994467,94.736206 
	C39.776043,92.110451 50.345181,88.612396 61.651882,85.066124 
M191.051102,82.922012 
	C192.526611,82.319183 194.104691,81.041672 195.457321,81.247269 
	C198.759888,81.749237 201.958099,82.937622 205.641708,83.974480 
	C205.641708,73.437668 205.641708,64.228020 205.641708,54.172329 
	C201.809738,54.709797 198.318268,55.199509 193.530762,55.870998 
	C184.236343,50.344151 174.582230,56.476547 174.051361,67.924698 
	C173.571045,78.282745 178.605652,83.059868 191.051102,82.922012 
M305.904602,56.369186 
	C301.905823,53.954624 297.943176,53.816566 293.201477,54.685322 
	C285.868622,56.028824 281.538116,59.082336 280.791779,65.973724 
	C280.149170,71.907204 280.943970,77.549118 286.466217,80.943275 
	C292.393188,84.586212 299.034241,84.515167 305.003174,81.458801 
	C313.833282,76.937378 314.371735,64.276001 305.904602,56.369186 
M263.776764,63.103901 
	C267.898193,59.816998 271.815796,62.063316 275.923431,63.861305 
	C276.763458,61.515083 277.520538,59.400471 278.231903,57.413612 
	C270.664917,52.022934 259.896454,52.833965 254.753357,58.871750 
	C250.065399,64.375198 250.072891,74.100517 254.768906,79.111732 
	C260.001251,84.695251 271.339447,85.195488 278.248535,79.923241 
	C276.594635,78.045631 278.335754,73.230659 272.574127,74.956284 
	C269.848297,75.772690 264.796112,75.441048 263.775604,73.789551 
	C262.221832,71.275070 263.255371,67.161789 263.776764,63.103901 
M243.684326,55.598019 
	C241.243393,55.598019 238.802460,55.598019 236.430466,55.598019 
	C236.430466,64.670189 236.430466,73.763756 236.430466,82.952599 
	C237.697662,83.024918 238.682098,83.118614 239.667587,83.131287 
	C246.314575,83.216820 246.404419,83.127914 246.410629,76.589134 
	C246.416000,70.928444 246.520676,65.264053 246.330551,59.609741 
	C246.285446,58.268597 245.236649,56.961208 243.684326,55.598019 
M238.061188,40.454781 
	C233.292114,42.497627 236.867264,46.255489 235.802536,49.311386 
	C239.616806,49.311386 242.955322,49.311386 246.416153,49.311386 
	C246.416153,46.385971 246.416153,43.822983 246.416153,40.445740 
	C243.739594,40.445740 241.313278,40.445740 238.061188,40.454781 
M253.245392,105.091713 
	C253.245392,100.641342 253.245392,96.190971 253.245392,91.886543 
	C255.574432,91.265434 257.359802,90.789314 259.145172,90.313187 
	C259.046021,90.076912 258.946899,89.840637 258.847748,89.604362 
	C254.387909,89.604362 249.928040,89.604362 245.468185,89.604362 
	C245.466431,89.936455 245.464661,90.268555 245.462906,90.600647 
	C247.151047,90.942574 248.839172,91.284500 250.986313,91.719398 
	C250.986313,95.956932 250.895416,100.084381 251.082642,104.199173 
	C251.111298,104.828575 252.424713,105.399513 253.245392,105.091713 
z"/>
<path fill="#079B40" opacity="1.000000" stroke="none" 
	d="
M317.072418,82.004929 
	C317.072418,73.394295 317.072418,64.783661 317.072418,55.083992 
	C320.296356,55.766674 323.253967,56.432755 326.232422,56.986851 
	C326.766388,57.086193 327.436554,56.822338 327.959198,56.558495 
	C335.749878,52.625683 337.896729,52.826038 343.853546,58.311783 
	C348.163757,54.279655 353.212280,51.626205 358.575928,55.881725 
	C360.780121,57.630535 362.574890,61.006500 362.871613,63.819950 
	C363.513885,69.909531 363.069366,76.113747 363.069366,82.703415 
	C359.807739,82.703415 356.631744,82.703415 353.001709,82.703415 
	C353.001709,77.482018 353.312561,72.332039 352.846191,67.253441 
	C352.663818,65.267029 350.736267,63.440884 349.603546,61.541740 
	C348.094025,63.412998 345.768188,65.090286 345.266632,67.201050 
	C344.517059,70.355804 344.747223,73.849281 345.110809,77.137856 
	C345.661743,82.121323 343.585602,83.828934 338.877533,83.159576 
	C337.761414,83.000885 336.603455,83.136047 334.893494,83.136047 
	C334.893494,77.394478 335.097443,71.946556 334.771667,66.530510 
	C334.671326,64.863129 333.124329,63.282768 332.239746,61.662560 
	C330.676514,62.595390 329.113281,63.528229 327.005280,65.029526 
	C326.307007,68.060616 326.058685,70.521622 326.016449,72.986153 
	C325.836426,83.488396 327.303955,81.797882 317.072418,82.004929 
z"/>
<path fill="#099B41" opacity="1.000000" stroke="none" 
	d="
M89.720634,66.418030 
	C81.690041,63.472858 79.177071,60.065857 80.045479,53.655834 
	C80.877914,47.511414 85.963348,44.402107 93.552361,43.237469 
	C100.054398,42.239635 105.559555,43.307812 111.431465,46.682800 
	C110.357651,49.206043 109.401047,51.453869 108.424416,53.748768 
	C105.162483,52.722080 102.132835,51.512363 98.987213,50.875179 
	C97.121925,50.497341 94.950783,50.660877 93.152107,51.272240 
	C92.003250,51.662727 90.596146,53.299828 90.569672,54.408241 
	C90.544411,55.465843 91.953728,57.129795 93.088745,57.539139 
	C96.983612,58.943817 101.091263,59.750271 105.011810,61.094021 
	C109.655518,62.685631 112.591362,65.808014 112.586952,71.048027 
	C112.582542,76.291656 110.099579,80.061127 105.304939,81.906227 
	C96.390823,85.336594 87.815750,84.028191 79.031670,79.575859 
	C80.169731,76.906693 81.123985,74.668617 81.860382,72.941483 
	C86.962158,73.928520 91.710335,75.225563 96.527939,75.580750 
	C98.293114,75.710892 100.222862,73.608803 102.077545,72.525009 
	C100.498619,71.113831 99.123154,69.275177 97.288239,68.401833 
	C95.092903,67.356934 92.504929,67.136978 89.720634,66.418030 
z"/>
<path fill="#E3151D" opacity="1.000000" stroke="none" 
	d="
M61.326042,85.266571 
	C50.345181,88.612396 39.776043,92.110451 28.994467,94.736206 
	C24.437735,95.845947 18.721031,96.118263 15.784895,91.304161 
	C12.697230,86.241623 16.081142,81.633186 19.024769,77.606194 
	C27.991272,65.339722 40.361046,56.855968 52.481655,48.129940 
	C52.934452,47.803963 53.743919,47.973412 54.387177,47.911980 
	C54.939106,48.494514 55.491035,49.077049 56.042965,49.659584 
	C54.061008,50.906296 51.664764,51.786072 50.174694,53.468441 
	C45.684151,58.538498 40.842827,63.507900 37.450275,69.286766 
	C33.292027,76.369911 36.780247,82.576584 44.982624,82.930023 
	C51.094837,83.193390 57.276981,81.758705 63.432983,81.129150 
	C65.170380,80.951477 66.925392,80.945976 68.851685,81.674690 
	C66.451752,82.805168 64.051819,83.935646 61.326042,85.266571 
z"/>
<path fill="#079B41" opacity="1.000000" stroke="none" 
	d="
M190.654938,83.013451 
	C178.605652,83.059868 173.571045,78.282745 174.051361,67.924698 
	C174.582230,56.476547 184.236343,50.344151 193.530762,55.870998 
	C198.318268,55.199509 201.809738,54.709797 205.641708,54.172329 
	C205.641708,64.228020 205.641708,73.437668 205.641708,83.974480 
	C201.958099,82.937622 198.759888,81.749237 195.457321,81.247269 
	C194.104691,81.041672 192.526611,82.319183 190.654938,83.013451 
M191.096344,61.453690 
	C187.136826,60.819309 184.670273,63.129566 184.536926,66.467812 
	C184.419525,69.406807 185.661316,72.705742 187.265549,75.235176 
	C187.797104,76.073318 191.929108,75.786118 193.354065,74.664993 
	C196.592865,72.116783 196.414124,68.254601 194.844894,64.710510 
	C194.306396,63.494316 192.851074,62.684059 191.096344,61.453690 
z"/>
<path fill="#079B40" opacity="1.000000" stroke="none" 
	d="
M138.998398,82.891037 
	C138.515152,82.163506 138.031891,81.435974 137.548431,80.708588 
	C133.023438,84.086708 127.899223,84.289154 123.221313,81.918037 
	C117.463585,78.999588 116.578140,73.252647 116.898712,67.333145 
	C117.196472,61.834755 119.154991,57.011021 124.509071,54.975346 
	C128.294235,53.536182 132.579742,52.951488 136.347321,55.905491 
	C136.651154,56.143715 137.656738,55.486900 138.951019,55.399624 
	C146.999847,56.649979 146.999863,56.649979 146.999985,64.404755 
	C147.000031,67.054695 147.070251,69.707001 146.981232,72.353943 
	C146.882202,75.298233 147.400970,78.634926 146.157288,81.023033 
	C145.464493,82.353355 141.732101,82.096970 139.372986,82.572716 
	C139.232437,82.601067 139.122543,82.781418 138.998398,82.891037 
M128.530106,63.266106 
	C128.142517,66.280159 127.088387,69.397919 127.537140,72.281837 
	C128.090164,75.835899 132.476669,77.219833 135.444778,75.391869 
	C138.098038,73.757805 139.246017,67.875298 137.385559,64.476982 
	C135.364532,60.785366 132.464859,60.397690 128.530106,63.266106 
z"/>
<path fill="#079B40" opacity="1.000000" stroke="none" 
	d="
M306.204010,56.603142 
	C314.371735,64.276001 313.833282,76.937378 305.003174,81.458801 
	C299.034241,84.515167 292.393188,84.586212 286.466217,80.943275 
	C280.943970,77.549118 280.149170,71.907204 280.791779,65.973724 
	C281.538116,59.082336 285.868622,56.028824 293.201477,54.685322 
	C297.943176,53.816566 301.905823,53.954624 306.204010,56.603142 
M290.890411,71.117523 
	C291.392029,75.084793 293.854523,76.691933 297.529083,75.921387 
	C301.811279,75.023415 301.839417,71.379349 301.756561,67.989143 
	C301.672974,64.570076 300.664276,61.219307 296.587067,61.538105 
	C294.653717,61.689274 292.510345,63.693573 291.183807,65.414597 
	C290.348145,66.498749 290.848969,68.613052 290.890411,71.117523 
z"/>
<path fill="#0A9C41" opacity="1.000000" stroke="none" 
	d="
M263.483459,63.415695 
	C263.255371,67.161789 262.221832,71.275070 263.775604,73.789551 
	C264.796112,75.441048 269.848297,75.772690 272.574127,74.956284 
	C278.335754,73.230659 276.594635,78.045631 278.248535,79.923241 
	C271.339447,85.195488 260.001251,84.695251 254.768906,79.111732 
	C250.072891,74.100517 250.065399,64.375198 254.753357,58.871750 
	C259.896454,52.833965 270.664917,52.022934 278.231903,57.413612 
	C277.520538,59.400471 276.763458,61.515083 275.923431,63.861305 
	C271.815796,62.063316 267.898193,59.816998 263.483459,63.415695 
z"/>
<path fill="#059B3F" opacity="1.000000" stroke="none" 
	d="
M155.165634,62.035324 
	C155.107132,59.212219 154.935242,56.386082 155.010681,53.566559 
	C155.270477,43.855064 161.654251,39.605236 172.016907,42.353386 
	C172.016907,44.589287 172.016907,46.878952 172.016907,48.614166 
	C169.453079,49.916355 167.121246,51.100723 164.789398,52.285091 
	C164.808151,52.782745 164.826889,53.280399 164.845642,53.778053 
	C169.863693,54.288200 172.576706,56.343781 170.551834,61.696884 
	C169.069122,61.922768 167.342484,62.185818 165.028748,63.028595 
	C164.295502,67.879532 164.142471,72.150520 164.005692,76.422020 
	C163.919205,79.122963 164.807495,82.047455 160.136673,82.112839 
	C155.186096,82.182144 156.115036,79.078697 155.984726,76.192413 
	C155.771530,71.470680 155.444595,66.754089 155.165634,62.035324 
z"/>
<path fill="#E3131A" opacity="1.000000" stroke="none" 
	d="
M116.010994,19.272633 
	C119.796516,18.882086 123.618652,17.958733 127.359673,18.215797 
	C134.388535,18.698788 137.452393,22.452152 134.881973,28.906948 
	C132.694885,34.399178 128.295090,39.027458 124.719208,43.924747 
	C124.332176,44.454807 122.914810,44.232540 121.786087,44.384777 
	C122.562897,39.326584 126.635735,34.639450 122.088623,29.026007 
	C120.025253,27.616430 118.200859,26.909079 116.376472,26.201725 
	C113.871742,26.198235 111.367012,26.194744 108.212540,25.868889 
	C106.381905,25.221302 105.201019,24.896080 104.104752,24.594162 
	C108.101608,22.807755 112.056297,21.040194 116.010994,19.272633 
z"/>
<path fill="#039A3E" opacity="1.000000" stroke="none" 
	d="
M212.077515,82.001076 
	C212.077515,73.415474 212.077515,64.829872 212.077515,55.460987 
	C215.506409,55.723148 218.753784,55.971432 223.105103,56.304119 
	C225.160767,55.619217 228.678436,54.447208 232.877396,53.048218 
	C232.877396,57.148621 232.877396,59.883366 232.877396,61.572186 
	C229.231445,63.021702 226.011414,64.301888 222.175476,66.068932 
	C221.373672,68.682053 221.063187,70.805946 221.022903,72.934959 
	C220.824326,83.430161 222.368973,81.833298 212.077515,82.001076 
z"/>
<path fill="#089B40" opacity="1.000000" stroke="none" 
	d="
M244.166931,55.618156 
	C245.236649,56.961208 246.285446,58.268597 246.330551,59.609741 
	C246.520676,65.264053 246.416000,70.928444 246.410629,76.589134 
	C246.404419,83.127914 246.314575,83.216820 239.667587,83.131287 
	C238.682098,83.118614 237.697662,83.024918 236.430466,82.952599 
	C236.430466,73.763756 236.430466,64.670189 236.430466,55.598019 
	C238.802460,55.598019 241.243393,55.598019 244.166931,55.618156 
z"/>
<path fill="#1BA04D" opacity="1.000000" stroke="none" 
	d="
M238.474091,40.450260 
	C241.313278,40.445740 243.739594,40.445740 246.416153,40.445740 
	C246.416153,43.822983 246.416153,46.385971 246.416153,49.311386 
	C242.955322,49.311386 239.616806,49.311386 235.802536,49.311386 
	C236.867264,46.255489 233.292114,42.497627 238.474091,40.450260 
z"/>
<path fill="#E31D20" opacity="1.000000" stroke="none" 
	d="
M115.626060,19.288170 
	C112.056297,21.040194 108.101608,22.807755 104.104752,24.594162 
	C105.201019,24.896080 106.381905,25.221302 107.790825,25.798679 
	C100.938988,27.557505 93.859116,29.064173 86.779243,30.570841 
	C86.592896,29.975571 86.406548,29.380301 86.220200,28.785032 
	C95.893837,25.624590 105.567482,22.464149 115.626060,19.288170 
z"/>
<path fill="#259E46" opacity="1.000000" stroke="none" 
	d="
M333.998230,96.991058 
	C334.410583,98.138855 334.822937,99.286652 335.460083,101.060249 
	C331.574402,101.060249 328.363770,101.060249 324.934692,101.060249 
	C326.727264,104.886063 326.727264,104.886063 334.399994,104.322075 
	C330.956207,107.694038 327.697388,107.925423 324.390656,105.463623 
	C321.158844,103.057594 321.223602,99.159714 324.919128,95.002266 
	C325.355591,96.296722 325.114655,97.511810 324.549225,100.363670 
	C328.340271,99.010536 331.169250,98.000793 333.998230,96.991058 
z"/>
<path fill="#219B3C" opacity="1.000000" stroke="none" 
	d="
M253.194641,105.544601 
	C252.424713,105.399513 251.111298,104.828575 251.082642,104.199173 
	C250.895416,100.084381 250.986313,95.956932 250.986313,91.719398 
	C248.839172,91.284500 247.151047,90.942574 245.462906,90.600647 
	C245.464661,90.268555 245.466431,89.936455 245.468185,89.604362 
	C249.928040,89.604362 254.387909,89.604362 258.847748,89.604362 
	C258.946899,89.840637 259.046021,90.076912 259.145172,90.313187 
	C257.359802,90.789314 255.574432,91.265434 253.245392,91.886543 
	C253.245392,96.190971 253.245392,100.641342 253.194641,105.544601 
z"/>
<path fill="#239F47" opacity="1.000000" stroke="none" 
	d="
M358.933899,94.061111 
	C360.375427,95.164803 362.771332,96.062820 363.062592,97.414398 
	C363.696777,100.357201 363.258453,103.531120 363.258453,107.448074 
	C360.330933,106.095680 358.173370,105.098976 356.001343,104.095589 
	C357.660767,100.715149 363.455688,99.234459 358.946777,94.352577 
	C358.984680,94.020996 358.933899,94.061111 358.933899,94.061111 
z"/>
<path fill="#009327" opacity="1.000000" stroke="none" 
	d="
M155.095993,62.497047 
	C155.444595,66.754089 155.771530,71.470680 155.984726,76.192413 
	C156.115036,79.078697 155.186096,82.182144 160.136673,82.112839 
	C164.807495,82.047455 163.919205,79.122963 164.005692,76.422020 
	C164.142471,72.150520 164.295502,67.879532 164.727921,63.305630 
	C165.014191,69.471825 165.014191,75.940727 165.014191,82.763840 
	C161.877930,82.763840 158.677841,82.763840 155.026352,82.763840 
	C155.026352,76.163040 155.026352,69.560905 155.095993,62.497047 
z"/>
<path fill="#CADFD1" opacity="1.000000" stroke="none" 
	d="
M333.871277,96.651443 
	C331.169250,98.000793 328.340271,99.010536 324.549225,100.363670 
	C325.114655,97.511810 325.355591,96.296722 325.269897,94.857162 
	C329.271240,92.004662 331.757294,92.478981 333.871277,96.651443 
z"/>
<path fill="#009326" opacity="1.000000" stroke="none" 
	d="
M139.452881,82.995911 
	C139.122543,82.781418 139.232437,82.601067 139.372986,82.572716 
	C141.732101,82.096970 145.464493,82.353355 146.157288,81.023033 
	C147.400970,78.634926 146.882202,75.298233 146.981232,72.353943 
	C147.070251,69.707001 147.000031,67.054695 146.999985,64.404755 
	C146.999863,56.649979 146.999847,56.649979 139.274536,55.270988 
	C141.907471,54.857872 144.831665,54.727013 147.990921,54.585632 
	C147.990921,64.303299 147.990921,73.511169 147.990921,83.100784 
	C145.140732,83.100784 142.524048,83.100784 139.452881,82.995911 
z"/>
<path fill="#E2EAE5" opacity="1.000000" stroke="none" 
	d="
M286.881409,100.290367 
	C288.567078,99.522186 290.252747,98.753998 292.379089,98.406395 
	C292.838501,100.473946 292.857208,102.120903 292.543732,103.930214 
	C286.886383,105.618965 286.144958,105.090065 286.881409,100.290367 
z"/>
<path fill="#239E45" opacity="1.000000" stroke="none" 
	d="
M292.875916,103.767868 
	C292.857208,102.120903 292.838501,100.473946 292.785126,98.407166 
	C292.387421,96.711128 292.024353,95.434906 291.600098,93.943573 
	C296.252930,95.988197 297.503418,102.290047 294.114380,106.321510 
	C293.469543,105.087921 293.172729,104.427895 292.875916,103.767868 
z"/>
<path fill="#34A351" opacity="1.000000" stroke="none" 
	d="
M292.543762,103.930214 
	C293.172729,104.427895 293.469543,105.087921 293.808502,106.109840 
	C291.942749,106.645378 289.961914,107.207260 288.150513,106.867043 
	C286.758240,106.605537 284.885559,105.429543 284.509491,104.250893 
	C284.165039,103.171127 285.539124,101.543083 286.518677,100.223495 
	C286.144958,105.090065 286.886383,105.618965 292.543762,103.930214 
z"/>
<path fill="#00942A" opacity="1.000000" stroke="none" 
	d="
M317.201233,82.422478 
	C327.303955,81.797882 325.836426,83.488396 326.016449,72.986153 
	C326.058685,70.521622 326.307007,68.060616 326.755768,65.303322 
	C327.051025,70.922234 327.051025,76.835815 327.051025,82.840027 
	C323.503387,82.840027 320.416718,82.840027 317.201233,82.422478 
z"/>
<path fill="#009223" opacity="1.000000" stroke="none" 
	d="
M212.202820,82.420219 
	C222.368973,81.833298 220.824326,83.430161 221.022903,72.934959 
	C221.063187,70.805946 221.373672,68.682053 221.894531,66.301147 
	C222.229462,71.615822 222.229462,77.185158 222.229462,82.839363 
	C218.494568,82.839363 215.411331,82.839363 212.202820,82.420219 
z"/>
<path fill="#E31D20" opacity="1.000000" stroke="none" 
	d="
M116.617607,26.460297 
	C118.200859,26.909079 120.025253,27.616430 121.912880,28.693901 
	C120.270325,28.282301 118.564537,27.500584 116.617607,26.460297 
z"/>
<path fill="#239F47" opacity="1.000000" stroke="none" 
	d="
M359.010712,94.001762 
	C359.036743,93.982529 358.729370,93.736794 358.729370,93.736794 
	C358.729370,93.736794 359.041260,93.850395 358.987579,93.955750 
	C358.933899,94.061111 358.984680,94.020996 359.010712,94.001762 
z"/>
<path fill="#E2E9E4" opacity="1.000000" stroke="none" 
	d="
M191.455475,61.571018 
	C192.851074,62.684059 194.306396,63.494316 194.844894,64.710510 
	C196.414124,68.254601 196.592865,72.116783 193.354065,74.664993 
	C191.929108,75.786118 187.797104,76.073318 187.265549,75.235176 
	C185.661316,72.705742 184.419525,69.406807 184.536926,66.467812 
	C184.670273,63.129566 187.136826,60.819309 191.455475,61.571018 
z"/>
<path fill="#E5EBE7" opacity="1.000000" stroke="none" 
	d="
M128.804092,62.988762 
	C132.464859,60.397690 135.364532,60.785366 137.385559,64.476982 
	C139.246017,67.875298 138.098038,73.757805 135.444778,75.391869 
	C132.476669,77.219833 128.090164,75.835899 127.537140,72.281837 
	C127.088387,69.397919 128.142517,66.280159 128.804092,62.988762 
z"/>
<path fill="#E4EBE6" opacity="1.000000" stroke="none" 
	d="
M290.820312,70.691376 
	C290.848969,68.613052 290.348145,66.498749 291.183807,65.414597 
	C292.510345,63.693573 294.653717,61.689274 296.587067,61.538105 
	C300.664276,61.219307 301.672974,64.570076 301.756561,67.989143 
	C301.839417,71.379349 301.811279,75.023415 297.529083,75.921387 
	C293.854523,76.691933 291.392029,75.084793 290.820312,70.691376 
z"/>
</svg>