<svg xmlns="http://www.w3.org/2000/svg" viewBox="0 0 116 81"><path d="M48.1 9c3.7-3.9 8.9-6.3 14.6-6.3 7.6 0 14.2 4.2 17.7 10.5 3.1-1.4 6.5-2.1 10-2.1 13.7 0 24.8 11.2 24.8 25s-11.1 25-24.8 25c-1.6 0-3.3-.2-4.9-.5-3.1 5.5-9 9.3-15.8 9.3-2.8 0-5.5-.7-7.9-1.8-3.1 7.4-10.5 12.6-19 12.6-8.9 0-16.5-5.6-19.4-13.5-1.3.3-2.6.4-3.9.4C8.9 67.6.3 58.9.3 48.2c0-7.2 3.9-13.4 9.6-16.8-1.2-2.7-1.8-5.7-1.8-8.9C8.1 10.2 18.1.2 30.4.2 37.6.2 44 3.6 48.1 9" fill="#00a1e0"></path><path d="M16.9 41.9c-.1.2 0 .2 0 .3.2.2.4.3.7.4 1.2.6 2.3.8 3.4.8 2.4 0 3.8-1.3 3.8-3.3 0-1.9-1.7-2.5-3.2-3l-.1-.1c-1.2-.4-2.2-.7-2.2-1.5 0-.7.6-1.1 1.5-1.1 1 0 2.2.3 3 .8 0 0 .2.1.3-.1 0-.1.4-1.2.5-1.3 0-.1 0-.2-.1-.3a7.13 7.13 0 00-3.4-.9h-.2c-2.2 0-3.7 1.3-3.7 3.2 0 2 1.7 2.6 3.2 3.1l.3.1c1.1.3 2.1.6 2.1 1.4 0 .7-.6 1.3-1.7 1.3-.4 0-1.7 0-3-.9-.2-.1-.3-.2-.4-.2s-.2-.1-.3.1l-.5 1.2zm34.6 0c-.1.2 0 .2 0 .3.2.2.4.3.7.4 1.2.6 2.3.8 3.4.8 2.4 0 3.8-1.3 3.8-3.3 0-1.9-1.7-2.5-3.2-3L56 37c-1.2-.4-2.2-.7-2.2-1.5 0-.7.6-1.1 1.5-1.1 1 0 2.2.3 3 .8 0 0 .2.1.3-.1 0-.1.4-1.2.5-1.3 0-.1 0-.2-.1-.3a7.13 7.13 0 00-3.4-.9h-.2c-2.2 0-3.7 1.3-3.7 3.2 0 2 1.7 2.6 3.2 3.1l.3.1c1.1.3 2.1.6 2.1 1.4 0 .7-.6 1.3-1.7 1.3-.4 0-1.7 0-3-.9-.2-.1-.3-.2-.4-.2 0 0-.2-.1-.3.1l-.4 1.2zM75 38c0 1.1-.2 2-.6 2.7-.4.6-1 .9-1.9.9s-1.5-.3-1.9-.9c-.4-.7-.6-1.6-.6-2.7s.2-2 .6-2.7c.4-.6 1-.9 1.9-.9s1.5.3 1.9.9.6 1.5.6 2.7zm2-2.1c-.2-.7-.5-1.2-.9-1.7s-.9-.9-1.5-1.1c-.6-.3-1.3-.4-2.1-.4s-1.5.1-2.1.4-1.1.7-1.5 1.1c-.4.5-.7 1.1-.9 1.7-.2.7-.3 1.4-.3 2.1 0 .8.1 1.5.3 2.1.2.7.5 1.2.9 1.7s.9.9 1.5 1.1c.6.3 1.3.4 2.1.4s1.5-.1 2.1-.4 1.1-.7 1.5-1.1c.4-.5.7-1.1.9-1.7.2-.7.3-1.4.3-2.1 0-.8-.1-1.5-.3-2.1zm16.2 5.4c-.1-.2-.3-.1-.3-.1l-.9.3c-.3.1-.7.1-1.1.1-1 0-1.7-.3-2.3-.8-.5-.6-.8-1.5-.8-2.7 0-1.1.3-2 .8-2.6s1.2-1 2.2-1c.8 0 1.4.1 2.1.3 0 0 .2.1.2-.1l.5-1.3c.1-.1-.1-.2-.1-.2-.3-.1-.9-.3-1.3-.3-.4-.1-.9-.1-1.5-.1-.8 0-1.6.1-2.2.4s-1.2.7-1.6 1.1c-.4.5-.7 1.1-1 1.7-.2.7-.3 1.4-.3 2.1 0 1.6.4 3 1.3 3.9.9 1 2.2 1.5 3.9 1.5a8.21 8.21 0 002.8-.5s.1-.1.1-.2l-.5-1.5zm3.4-4.4c.1-.6.3-1.2.5-1.6.4-.6 1-1 1.9-1s1.5.3 1.9 1c.3.4.4 1 .4 1.6h-4.7zm6.6-1.4c-.2-.6-.6-1.3-.9-1.6-.4-.5-.8-.8-1.3-1s-1.2-.4-1.9-.4c-.8 0-1.6.1-2.2.4s-1.1.7-1.5 1.2-.7 1.1-.9 1.7c-.2.7-.3 1.4-.3 2.1 0 .8.1 1.5.3 2.1s.5 1.2 1 1.7c.4.5 1 .9 1.7 1.1.7.3 1.5.4 2.4.4 1.9 0 2.9-.4 3.4-.7.1 0 .1-.1.1-.3l-.4-1.2c-.1-.2-.3-.1-.3-.1-.5.2-1.2.5-2.7.5-1 0-1.8-.3-2.3-.8s-.7-1.2-.8-2.2h6.7s.2 0 .2-.2c0 .1.2-1.2-.3-2.7zm-60 1.4c.1-.6.3-1.2.5-1.6.4-.6 1-1 1.9-1s1.5.3 1.9 1c.3.4.4 1 .4 1.6h-4.7zm6.7-1.4c-.2-.6-.6-1.3-.9-1.6-.4-.5-.8-.8-1.3-1s-1.2-.4-1.9-.4c-.8 0-1.6.1-2.2.4s-1.1.7-1.5 1.2-.7 1.1-.9 1.7c-.2.7-.3 1.4-.3 2.1 0 .8.1 1.5.3 2.1s.5 1.2 1 1.7c.4.5 1 .9 1.7 1.1.7.3 1.5.4 2.4.4 1.9 0 2.9-.4 3.4-.7.1 0 .1-.1.1-.3l-.4-1.2H49c-.5.2-1.2.5-2.7.5-1 0-1.8-.3-2.3-.8s-.7-1.2-.8-2.2h6.7s.2 0 .2-.2c0 0 .2-1.3-.2-2.8zm-21.1 5.7c-.3-.2-.3-.3-.4-.4-.1-.2-.2-.5-.2-.9 0-.6.2-1 .6-1.3 0 0 .6-.5 1.9-.5 1 0 1.8.2 1.8.2v3s-.8.2-1.8.2c-1.3.2-1.9-.3-1.9-.3zm2.7-4.6h-1c-.6 0-1.1.1-1.6.2s-1 .4-1.4.6c-.4.3-.7.7-1 1.1-.2.4-.4 1-.4 1.5 0 .6.1 1.1.3 1.5s.5.8.9 1c.4.3.8.5 1.4.6.5.1 1.1.2 1.8.2s1.4-.1 2-.2l1.7-.3c.2 0 .3-.1.5-.1s.2-.2.2-.2v-6.1c0-1.3-.4-2.3-1.1-2.9s-1.7-.9-3.1-.9a11.02 11.02 0 00-1.8.2s-1.5.3-2.1.8c0 0-.1.1-.1.3l.5 1.3c.1.2.2.1.2.1s.1 0 .1-.1c1.3-.7 2.9-.7 2.9-.7.7 0 1.3.1 1.6.4.4.3.5.7.5 1.6v.3c-.5-.2-1-.2-1-.2zm53.7-3.5c.1-.2-.1-.2-.1-.2-.1 0-.7-.2-1.1-.2a2.73 2.73 0 00-1.7.3c-.4.2-.9.5-1.1.8V33c0-.1-.1-.2-.2-.2h-1.7c-.1 0-.2.1-.2.2v9.9c0 .1.1.2.2.2H81c.1 0 .2-.1.2-.2v-5a7.18 7.18 0 01.2-1.7c.1-.4.3-.7.6-1 .2-.2.5-.4.8-.5s.7-.1.9-.1a3.55 3.55 0 01.7.1c.1 0 .2-.1.2-.2.3-.3.6-1.2.6-1.4m-16.4-4.6c-.2-.1-.4-.1-.7-.2-.3 0-.6-.1-.9-.1-1.2 0-2.2.3-2.8 1-.7.7-1.1 1.7-1.3 3l-.1.6h-1.5s-.2 0-.2.2l-.3 1.4c0 .1 0 .2.2.2h1.5l-1.5 8.3c-.1.7-.3 1.2-.4 1.6s-.3.7-.5.9-.3.4-.6.5c-.2.1-.5.1-.8.1-.2 0-.4 0-.5-.1-.2 0-.2-.1-.4-.1 0 0-.2-.1-.2.1-.1.1-.4 1.2-.5 1.4 0 .1 0 .2.1.3.2.1.3.1.6.2.4.1.7.1 1 .1.6 0 1.2-.1 1.6-.3a2.73 2.73 0 001.2-.9c.4-.4.6-.9.9-1.5.2-.6.4-1.4.6-2.2l1.5-8.5H67s.2 0 .2-.2l.2-1.4c0-.1 0-.2-.2-.2h-2.1s.1-.8.4-1.5c.1-.3.3-.5.5-.7s.4-.3.6-.3c.2-.1.5-.1.7-.1s.4 0 .5.1c.2 0 .3.1.3.1.2.1.2 0 .3-.1l.5-1.4c.1-.2-.1-.3-.1-.3zM39 42.9c0 .1-.1.2-.2.2H37c-.1 0-.2-.1-.2-.2V28.7c0-.1.1-.2.2-.2h1.8c.1 0 .2.1.2.2v14.2z" fill="#fff"></path></svg>