<svg xmlns="http://www.w3.org/2000/svg" viewBox="0 0 132.6 37.2"><path d="M17.6 1.7c.3 0 .4.1.6.3-1.5.6-3 2.3-3.8 5.8l-2.8.8c.9-2.6 2.7-6.9 6-6.9zM18.9 3c.3.8.5 1.6.5 3v.3l-3.7 1c.8-2.7 2.1-3.8 3.2-4.3zm3.3 2.3l-1.6.5v-.4c0-1.1-.1-2-.4-2.8.9.3 1.7 1.4 2 2.7zm8.2 2c0-.1-.1-.3-.3-.3-.3 0-2.9-.3-2.9-.3l-2.1-2c-.3-.3-.6-.1-.8-.1 0 0-.4.1-1 .4-.6-1.8-1.8-3.4-3.7-3.4h-.1c-.5-.8-1.3-1-1.9-1C13.1.5 11 6.1 10.2 9L7 10c-1 .3-1 .4-1.1 1.3-.1.7-2.6 20.6-2.6 20.6l20.1 3.8 10.9-2.4c-.1 0-3.9-25.8-3.9-26z" fill="#8db849"></path><path d="M30.1 7c-.1 0-2.8-.3-2.8-.3l-2.1-2c-.2-.1-.2-.1-.3-.1l-1.5 31.1 10.9-2.4-3.8-26c-.1-.1-.3-.3-.4-.3" fill="#5a863e"></path><path d="M19.7 13.1l-1.4 4s-1.1-.6-2.7-.6c-2.1 0-2.3 1.3-2.3 1.6 0 1.8 4.8 2.5 4.8 6.8 0 3.4-2.1 5.6-5.1 5.6-3.4 0-5.2-2.1-5.2-2.1l.9-3s1.8 1.5 3.3 1.5c1 0 1.4-.8 1.4-1.4 0-2.4-3.9-2.5-3.9-6.4 0-3.3 2.4-6.4 7.1-6.4 2.2-.2 3.1.4 3.1.4" fill="#fffffe"></path><path d="M47 20.5c-1.1-.6-1.6-1.1-1.6-1.8 0-.9.8-1.4 2-1.4 1.4 0 2.7.6 2.7.6l1-3s-.9-.8-3.5-.8c-3.8 0-6.3 2.1-6.3 5.2 0 1.8 1.3 3 2.8 3.9 1.3.8 1.8 1.3 1.8 2 0 .8-.6 1.5-1.9 1.5-1.8 0-3.5-.9-3.5-.9l-1 3s1.5 1 4.2 1c3.8 0 6.6-1.9 6.6-5.3-.3-1.7-1.7-3.1-3.3-4m15.3-6.4c-1.9 0-3.4.9-4.5 2.3l1.6-8.6h-4.3l-4.2 21.8h4.3l1.4-7.4c.5-2.8 2-4.5 3.4-4.5 1 0 1.4.6 1.4 1.6 0 .6 0 1.3-.1 1.9l-1.6 8.6H64l1.6-8.8.3-2.8c-.1-2.6-1.4-4.1-3.6-4.1m10.9 12.5c-1.5 0-2-1.3-2-2.8 0-2.4 1.3-6.4 3.5-6.4 1.5 0 2 1.3 2 2.5.1 2.8-1.2 6.7-3.5 6.7zm2.2-12.5c-5.2 0-8.6 4.7-8.6 9.8 0 3.3 2 5.9 5.9 5.9 5.1 0 8.5-4.5 8.5-9.8 0-3-1.8-5.9-5.8-5.9zM88 26.7c-1.1 0-1.8-.6-1.8-.6l.8-4c.5-2.7 1.9-4.4 3.4-4.4 1.3 0 1.8 1.3 1.8 2.4-.2 2.7-1.8 6.6-4.2 6.6zm4.2-12.6c-2.9 0-4.5 2.5-4.5 2.5l.3-2.3h-3.8c-.1 1.5-.5 3.9-.9 5.7l-3 15.7h4.3l1.1-6.3h.1s.9.5 2.5.5c5.1 0 8.3-5.2 8.3-10.4 0-2.8-1.3-5.4-4.4-5.4zM102.7 8c-1.4 0-2.4 1.1-2.4 2.5 0 1.3.8 2.1 2 2.1 1.4 0 2.5-.9 2.5-2.5 0-1.2-.9-2.1-2.1-2.1m-6 21.6h4.3l2.9-15.2h-4.3l-2.9 15.2zm18.1-15.1h-3l.1-.8c.3-1.5 1.1-2.8 2.5-2.8.8 0 1.4.3 1.4.3l.9-3.4s-.8-.4-2.3-.4-3 .4-4.2 1.4c-1.5 1.3-2.1 3-2.5 4.8l-.1.8h-2l-.6 3.3h2l-2.3 12h4.3l2.3-12h2.9l.6-3.2zm10.2 0s-2.7 6.7-3.9 10.4l-1-10.4h-4.5l2.5 13.9c0 .3 0 .5-.1.8-.5 1-1.4 1.9-2.3 2.5-.8.6-1.8 1-2.4 1.3l1.1 3.7c.9-.1 2.7-.9 4.2-2.3 1.9-1.8 3.8-4.7 5.6-8.5l5.2-11.2-4.4-.2z" fill="#1a1919"></path></svg>