<svg xmlns="http://www.w3.org/2000/svg" viewBox="0 0 139 29" fill="none"><path fill-rule="evenodd" clip-rule="evenodd" d="M42.695 0H4.37C1.944 0-.02 1.983 0 4.389v14.63a4.387 4.387 0 004.389 4.388h18.152l8.297 4.62-1.887-4.62h13.744a4.387 4.387 0 004.39-4.389V4.388A4.387 4.387 0 0042.694 0zM3.561 3.388c-.539.038-.943.23-1.212.597-.27.346-.366.789-.308 1.29 1.135 7.218 2.194 12.088 3.176 14.61.385.923.828 1.366 1.347 1.328.809-.058 1.771-1.174 2.907-3.35a360.5 360.5 0 012.772-5.543c1.04 3.638 2.464 6.371 4.254 8.2.5.52 1.02.75 1.52.712.443-.038.79-.27 1.02-.693.193-.366.27-.79.232-1.27-.116-1.752.058-4.197.539-7.334.5-3.234 1.116-5.563 1.867-6.95.154-.288.212-.577.192-.923a1.508 1.508 0 00-.596-1.098c-.366-.288-.77-.423-1.213-.385-.558.039-.982.308-1.27.847-1.194 2.176-2.04 5.698-2.541 10.588-.732-1.848-1.348-4.024-1.829-6.584-.212-1.135-.731-1.674-1.579-1.617-.577.039-1.058.424-1.443 1.155L7.18 14.995c-.693-2.79-1.347-6.198-1.944-10.221-.135-1.001-.693-1.463-1.675-1.386zm37.094 1.386c1.367.289 2.387 1.02 3.08 2.233.616 1.04.924 2.29.924 3.792 0 1.983-.5 3.792-1.502 5.448-1.155 1.925-2.656 2.887-4.523 2.887-.327 0-.674-.039-1.04-.116-1.366-.288-2.387-1.02-3.08-2.233-.616-1.058-.924-2.329-.924-3.81 0-1.983.5-3.793 1.502-5.43 1.174-1.924 2.675-2.887 4.523-2.887.328 0 .674.039 1.04.116zm-.809 10.414c.713-.635 1.194-1.579 1.463-2.85.078-.442.135-.923.135-1.423 0-.559-.115-1.155-.346-1.752-.29-.751-.674-1.155-1.136-1.251-.693-.135-1.367.25-2.002 1.193a6.224 6.224 0 00-1.02 2.29 6.69 6.69 0 00-.135 1.406c0 .558.115 1.155.346 1.752.29.75.674 1.154 1.136 1.25.482.097 1.001-.115 1.56-.615zm-8.18-8.181c-.694-1.213-1.733-1.944-3.08-2.233a5.053 5.053 0 00-1.04-.116c-1.848 0-3.35.963-4.523 2.888-1.002 1.636-1.502 3.446-1.502 5.428 0 1.482.308 2.753.924 3.811.693 1.213 1.713 1.945 3.08 2.233.366.077.712.116 1.04.116 1.866 0 3.368-.962 4.523-2.887 1-1.656 1.501-3.465 1.501-5.448 0-1.501-.308-2.753-.924-3.792zm-2.426 5.332c-.27 1.27-.75 2.214-1.463 2.849-.558.5-1.078.712-1.56.616-.461-.097-.846-.5-1.135-1.251a4.886 4.886 0 01-.346-1.752c0-.481.038-.963.134-1.405.174-.79.5-1.56 1.02-2.291.636-.943 1.31-1.328 2.002-1.193.463.096.848.5 1.136 1.25.231.597.347 1.194.347 1.752 0 .5-.039.982-.135 1.425z" fill="#7F54B3"></path><path d="M51.954 6.833c-1.29 1.271-1.925 2.888-1.925 4.851 0 2.099.635 3.812 1.906 5.101 1.27 1.29 2.926 1.945 4.986 1.945a7.25 7.25 0 002.002-.308v-3.119c-.674.193-1.252.289-1.752.289-1.02 0-1.829-.347-2.445-1.02-.616-.693-.924-1.617-.924-2.791 0-1.098.308-2.002.905-2.695.616-.713 1.367-1.06 2.29-1.06.597 0 1.233.097 1.926.29V5.197c-.636-.173-1.348-.25-2.099-.25-1.963-.02-3.58.616-4.87 1.886zm13.36-1.905c-1.772 0-3.157.597-4.159 1.77-1 1.175-1.482 2.83-1.482 4.948 0 2.29.5 4.042 1.482 5.255s2.426 1.829 4.312 1.829c1.829 0 3.234-.616 4.216-1.83.982-1.212 1.482-2.925 1.482-5.12 0-2.194-.5-3.888-1.501-5.081-1.02-1.174-2.464-1.771-4.35-1.771zm1.52 10.01c-.347.538-.866.808-1.52.808-.617 0-1.079-.27-1.406-.809-.327-.539-.481-1.617-.481-3.253 0-2.521.635-3.773 1.925-3.773 1.347 0 2.04 1.27 2.04 3.831-.019 1.578-.212 2.656-.558 3.195zm13.84-9.644l-.693 2.945c-.173.75-.346 1.52-.5 2.31l-.385 2.04c-.366-2.04-.866-4.466-1.502-7.295H73.13l-1.675 13.108h3.35l.904-9.028 2.29 9.028h2.388l2.194-9.008.943 9.008h3.504L85.256 5.294h-4.582zm16.035 0l-.693 2.945c-.173.75-.346 1.52-.5 2.31l-.385 2.04c-.366-2.04-.867-4.466-1.502-7.295h-4.466L87.49 18.402h3.349l.905-9.028 2.29 9.028h2.387l2.175-9.008.944 9.008h3.503l-1.771-13.108h-4.562zm10.895 7.93h3.138V10.51h-3.138V8.104h3.619V5.313h-7.161v13.109h7.18V15.63h-3.638v-2.406zm13.61-2.079c.365-.596.558-1.212.558-1.848 0-1.232-.481-2.213-1.444-2.926-.962-.712-2.291-1.077-3.946-1.077h-4.119v13.108h3.541v-5.967h.058l2.868 5.967h3.735l-2.83-5.91c.674-.307 1.213-.75 1.579-1.347zm-5.429-.211V7.815c.847.02 1.444.154 1.81.424.365.27.539.693.539 1.309 0 .904-.79 1.366-2.349 1.386zm8.065-4.1c-1.289 1.27-1.924 2.887-1.924 4.85 0 2.099.635 3.812 1.906 5.101 1.27 1.29 2.925 1.945 4.985 1.945.597 0 1.271-.097 2.002-.308v-3.119c-.673.193-1.251.289-1.752.289-1.02 0-1.828-.347-2.444-1.02-.616-.693-.924-1.617-.924-2.791 0-1.098.308-2.002.904-2.695.616-.713 1.367-1.06 2.291-1.06.596 0 1.232.097 1.925.29V5.197c-.635-.173-1.347-.25-2.098-.25-1.944-.02-3.58.616-4.871 1.886zm11.493 8.758v-2.387h3.137v-2.714h-3.137V8.085h3.637V5.294h-7.16v13.108H139v-2.79h-3.657v-.02z" fill="#000"></path></svg>