<svg xmlns="http://www.w3.org/2000/svg" viewBox="0 0 129.8 59.3"><path d="M77.5 25.9h-3.1c-.1-.3-.1-.6-.1-.9-.1-.7-.1-1.3 0-2 0-.3.1-.6.1-.9h7.8v24.8c-.4.1-.8.1-1.2.1h-2.3c-.4 0-.8-.1-1.2-.1v-21zm27.2 6.2c0-.9-.1-1.8-.4-2.6-.2-.8-.6-1.5-1.1-2.1a6.55 6.55 0 00-1.8-1.5c-.7-.4-1.6-.6-2.6-.6-2 0-3.5.6-4.5 1.8s-1.7 2.8-1.9 5h12.3zm-12.2 3.6c.1 2.7.8 4.7 2.1 5.9 1.3 1.3 3.3 1.9 5.9 1.9 2.3 0 4.5-.4 6.5-1.2.3.5.5 1.1.6 1.8.2.7.3 1.4.3 2.1-1.1.5-2.2.8-3.5 1a27.66 27.66 0 01-4.2.3c-2.3 0-4.2-.3-5.8-.9s-2.9-1.5-4-2.7c-1-1.1-1.8-2.5-2.3-4.1s-.7-3.3-.7-5.1.2-3.6.7-5.1c.5-1.6 1.2-3 2.1-4.2 1-1.2 2.2-2.1 3.6-2.8 1.5-.7 3.2-1 5.2-1 1.7 0 3.2.3 4.5.9s2.4 1.4 3.2 2.4 1.5 2.2 2 3.6.7 2.9.7 4.6v1.4c0 .4-.1.9-.1 1.3l-16.8-.1zm22.2-13.6c.3-.1.7-.1 1-.1h2.1c.4 0 .7.1 1 .1l.3 1.9c.1.8.1 1.5.1 2 .7-1.1 1.6-2 2.7-2.9 1.1-.8 2.5-1.2 4.3-1.2h.8c.2 0 .5 0 .7.1.1.3.1.6.1.9v1c0 .4 0 .8-.1 1.2 0 .4-.1.8-.2 1.2-.3-.1-.5-.1-.8-.1h-.7c-.9 0-1.7.1-2.5.4-.8.2-1.5.7-2.1 1.3s-1.1 1.4-1.5 2.5-.6 2.4-.6 4.1v12.3c-.4.1-.8.1-1.2.1h-2.4c-.4 0-.8-.1-1.2-.1l.2-24.7zM80.8 8.9c0 .6-.1 1.2-.3 1.7-.5.2-1.1.3-1.7.3s-1.2-.1-1.7-.3c-.2-.5-.3-1.1-.3-1.7s.1-1.2.3-1.7c.5-.2 1.1-.3 1.7-.3s1.2.1 1.7.3c.2.5.3 1.1.3 1.7zm5.9-1.4H82l3.3-3.3c-.5-.7-1.2-1.4-1.9-1.9l-3.3 3.3V1c-.4-.1-.9-.1-1.3-.1-.5 0-.9 0-1.3.1v4.7l-3.3-3.3c-.4.3-.7.5-1 .9-.3.3-.6.7-.9 1l3.3 3.3h-4.7l-.1 1.3c0 .5 0 .9.1 1.3h4.7l-3.3 3.3c.5.7 1.2 1.4 1.9 1.9l3.3-3.3v4.7c.4.1.9.1 1.3.1s.9 0 1.3-.1v-4.7l3.3 3.3c.4-.3.7-.5 1-.9.3-.3.6-.7.9-1L82 10.2h4.7c.1-.4.1-.9.1-1.3 0-.5 0-.9-.1-1.4zM1.9 46.2l13-20.3H3.4c-.1-.6-.1-1.2-.1-1.9s0-1.3.1-1.9H22l.2.6L9.1 43.1h12.3c.1.7.1 1.3.1 2 0 .6 0 1.3-.1 1.8H2.1l-.2-.7zm37.6-11c-.5-.1-1.1-.1-1.8-.2h-1.9c-2 0-3.5.4-4.6 1.1-1 .7-1.6 1.9-1.6 3.4 0 1 .2 1.7.5 2.3.4.5.8 1 1.3 1.3s1.1.5 1.8.5c.6.1 1.3.1 1.8.1l2.3-.1c.8-.1 1.5-.2 2.1-.4l.1-8zm0-4.6c0-1.9-.5-3.2-1.4-4s-2.4-1.1-4.2-1.1c-1.1 0-2.2.1-3.2.3l-2.9.7c-.6-1.1-.9-2.3-.9-3.8 1.1-.4 2.3-.6 3.6-.8s2.6-.3 3.8-.3c3.2 0 5.7.7 7.3 2.2 1.7 1.5 2.5 3.8 2.5 7v15.5c-1.1.3-2.5.5-4.1.8s-3.3.4-4.9.4-3-.1-4.3-.4-2.4-.8-3.2-1.4c-.9-.6-1.6-1.5-2.1-2.5s-.7-2.2-.7-3.6.3-2.6.8-3.6c.6-1 1.3-1.9 2.3-2.6s2.1-1.2 3.3-1.5c1.3-.3 2.6-.5 4-.5l2.5.1 1.7.2.1-1.1zm14.7 12.2c.6.2 1.2.4 1.9.5.6.1 1.5.1 2.5.1a8.29 8.29 0 003.2-.6c1-.4 1.8-1 2.5-1.7.7-.8 1.2-1.7 1.6-2.9s.6-2.6.6-4.2c0-2.6-.5-4.6-1.4-6.1s-2.5-2.3-4.7-2.3c-.8 0-1.6.1-2.3.4s-1.4.7-2 1.3-1 1.3-1.4 2.2-.5 1.9-.5 3.2v10.1zm-4.8-20.7c.3-.1.7-.1 1-.1h2c.4 0 .7.1 1 .1 0 .1.1.3.1.6l.1 1.1.1 1.1c0 .4.1.6.1.7.3-.5.7-1 1.2-1.5s1-.9 1.6-1.3 1.3-.7 2.1-.9a10.9 10.9 0 012.6-.3c1.4 0 2.8.2 4 .7s2.3 1.2 3.2 2.2 1.6 2.3 2.1 3.9.7 3.4.7 5.5c0 4.3-1.2 7.6-3.5 10s-5.6 3.6-9.8 3.6c-.7 0-1.5 0-2.2-.1s-1.4-.2-1.9-.4v11.4c-.4.1-.8.1-1.2.1h-2.4c-.4 0-.8-.1-1.2-.1l.3-36.3z" fill="#ff4a00"></path></svg>