<svg xmlns="http://www.w3.org/2000/svg" viewBox="0 0 72 56.7"><path d="M34.5 10.7v22.4H15.9l18.6-22.4zm0-8c0 5.1-4.1 9.3-9.3 9.3s-9.3-4.1-9.3-9.3h18.6zm3 30.4c0-5.1 4.1-9.3 9.3-9.3s9.3 4.1 9.3 9.3H37.5zm0-8.1V2.7H56L37.5 25zm10.4 27.2c1 0 1.9-.3 2.6-1l1.3 1.4c-.8.9-2 1.5-3.8 1.5-3.1 0-5.1-2.1-5.1-4.9-.1-2.6 2-4.8 4.7-4.9h.2c3.1 0 4.8 2.3 4.7 5.6H45c.3 1.4 1.2 2.3 2.9 2.3m2.2-3.8c-.2-1.3-1-2.2-2.5-2.2-1.4 0-2.4.8-2.6 2.2h5.1zM0 52.1l5.6-5.7H.1v-1.8h8.1v1.8l-5.6 5.7h5.7v1.8H0v-1.8zm14.6.1c1 0 1.9-.3 2.6-1l1.3 1.4c-.8.9-2 1.5-3.8 1.5-3.1 0-5.1-2.1-5.1-4.9-.1-2.6 2-4.8 4.7-4.9h.2c3.1 0 4.8 2.3 4.7 5.6h-7.3c.1 1.4 1 2.3 2.7 2.3m2.2-3.8c-.2-1.3-1-2.2-2.5-2.2-1.4 0-2.4.8-2.6 2.2h5.1zm14.3.8c0-3 2.2-4.8 4.7-4.8 1.2 0 2.3.5 3.1 1.4v-5.5h2v13.6h-2v-1.3c-.8.9-1.9 1.5-3.1 1.5-2.4 0-4.7-1.9-4.7-4.9m7.9 0c0-1.6-1.4-2.9-3-2.9s-2.9 1.4-2.9 3 1.3 2.9 3 2.9c1.7.1 2.9-1.3 2.9-3m14.6 2.7l1.8-.9c.5.9 1.4 1.4 2.4 1.4 1.1 0 1.7-.6 1.7-1.2 0-.8-1.1-.9-2.3-1.1-1.6-.3-3.2-.9-3.2-2.8 0-1.5 1.4-2.8 3.6-2.8 1.7 0 3 .7 3.8 1.8l-1.7.9c-.5-.7-1.3-1.1-2.1-1.1-1.1 0-1.6.5-1.6 1.1 0 .7.9.9 2.2 1.1 1.5.3 3.3.8 3.3 2.8 0 1.3-1.1 3-3.8 3-2 0-3.3-.8-4.1-2.2m13.2-2.1l-1.6 1.7v2.4h-2V40.3h2v8.9l4.2-4.6h2.4l-3.6 4 3.7 5.3h-2.2l-2.9-4.1zm-41.7-5.4c-2.4 0-4.3 1.5-4.3 4.1V54h2v-5.2c0-1.5.9-2.4 2.4-2.4s2.2.9 2.2 2.4V54h2v-5.5c.1-2.6-1.9-4.1-4.3-4.1" fill="#03363d"></path></svg>